<svg width="120" height="120" viewBox="0 0 120 120" fill="none" xmlns="http://www.w3.org/2000/svg">
<path d="M94.5039 83.0625C94.1444 85.1791 92.9664 87.1758 91.8282 88.8731C88.3339 94.1245 76.4332 99.1963 60.8586 99.1963C51.6535 99.1963 34.9407 96.3409 28.4313 88.5935C26.8339 86.6966 25.9554 82.8828 25.3963 79.3286C24.5576 74.7361 24.1183 65.5111 28.7907 53.5505C34.4216 39.1739 42.9277 31.4066 60.7987 31.4066C75.8542 31.4066 85.4585 40.7913 88.3538 45.5436C91.2092 50.2559 93.0862 56.4658 94.0047 61.8171C94.8034 66.4695 95.1428 71.0421 95.023 75.7744C94.9631 78.1106 94.9232 80.6465 94.5039 83.0625Z" stroke="#5999F9" stroke-miterlimit="10" stroke-linecap="round" stroke-linejoin="round"/>
<path fill-rule="evenodd" clip-rule="evenodd" d="M51.4139 66.5295C51.4139 71.2019 47.5203 74.6962 43.2273 74.6962C38.5549 74.6962 35.0406 71.2019 35.0406 66.5295C35.0406 64.9721 35.4399 63.0352 36.5981 61.8571L51.4139 66.5295Z" stroke="#5999F9" stroke-miterlimit="10" stroke-linecap="round" stroke-linejoin="round"/>
<path fill-rule="evenodd" clip-rule="evenodd" d="M67.0284 66.5295C67.0284 71.2019 70.9221 74.6962 75.2151 74.6962C79.8875 74.6962 83.4018 71.2019 83.4018 66.5295C83.4018 64.9721 83.0025 63.0352 81.8444 61.8571L67.0284 66.5295Z" stroke="#5999F9" stroke-miterlimit="10" stroke-linecap="round" stroke-linejoin="round"/>
<path d="M45.2838 41.0308C45.2239 41.0108 45.4835 41.0508 45.4036 41.0308" stroke="#5999F9" stroke-miterlimit="10" stroke-linecap="round" stroke-linejoin="round"/>
<path d="M35.0406 35.0006C34.7011 34.6212 34.4016 34.2219 34.162 33.8225C33.7027 33.0638 33.4831 32.2651 33.4831 31.4264C33.4831 25.556 45.6233 20.8037 60.579 20.8037C75.5346 20.8037 87.6749 25.556 87.6749 31.4264C87.6749 37.2969 75.5346 42.0492 60.579 42.0492C57.7636 42.0492 54.429 41.8295 51.8732 41.53" stroke="#5999F9" stroke-miterlimit="10" stroke-linecap="round" stroke-linejoin="round"/>
<path d="M21.6024 75.5347C21.6223 75.5347 21.6423 75.5148 21.6623 75.5148" stroke="#5999F9" stroke-miterlimit="10" stroke-linecap="round" stroke-linejoin="round"/>
<path d="M25.2565 63.2747C24.4378 60.1798 16.8901 54.0897 7.14596 59.0416C-2.57823 63.9936 3.33216 69.864 8.26413 70.3432C8.26413 70.3432 6.74658 76.1937 14.0148 74.9158C14.0148 74.9158 14.0547 78.3103 18.5074 76.9126" stroke="#5999F9" stroke-miterlimit="10" stroke-linecap="round" stroke-linejoin="round"/>
<path d="M78.2902 90.5503C78.2902 90.5503 89.5318 88.6534 89.9312 77.7511" stroke="#5999F9" stroke-miterlimit="10" stroke-linecap="round" stroke-linejoin="round" stroke-dasharray="0.13 0.13"/>
<path d="M17.9283 67.0686C18.0481 65.0718 20.2046 65.3913 20.9434 66.3897C21.6822 67.388 21.8619 69.1651 20.3843 70.3233C18.148 72.1004 13.1561 70.4031 13.815 65.9703C14.7136 59.8603 22.0017 60.0001 24.0384 62.5359C25.1566 63.9137 25.6158 64.6525 25.3563 66.2898" stroke="#5999F9" stroke-miterlimit="10" stroke-linecap="round" stroke-linejoin="round"/>
<path d="M98.3974 75.5347C98.3775 75.5347 98.3575 75.5148 98.3375 75.5148" stroke="#5999F9" stroke-miterlimit="10" stroke-linecap="round" stroke-linejoin="round"/>
<path d="M94.7434 63.2747C95.5621 60.1798 103.11 54.0897 112.854 59.0416C122.578 63.9936 116.668 69.864 111.736 70.3432C111.736 70.3432 113.253 76.1937 105.985 74.9158C105.985 74.9158 105.945 78.3103 101.492 76.9126" stroke="#5999F9" stroke-miterlimit="10" stroke-linecap="round" stroke-linejoin="round"/>
<path d="M102.072 67.0686C101.952 65.0718 99.7952 65.3913 99.0564 66.3897C98.3176 67.388 98.1379 69.1651 99.6155 70.3233C101.852 72.1004 106.844 70.4031 106.185 65.9703C105.286 59.8603 97.9981 60.0001 95.9614 62.5359C94.8432 63.9137 94.384 64.6525 94.6436 66.2898" stroke="#5999F9" stroke-miterlimit="10" stroke-linecap="round" stroke-linejoin="round"/>
<path d="M30.9871 79.3087C30.9871 79.3087 30.9273 84.9395 36.7178 88.5936" stroke="#5999F9" stroke-miterlimit="10" stroke-linecap="round" stroke-linejoin="round" stroke-dasharray="0.13 0.13"/>
</svg>
