<svg width="120" height="120" viewBox="0 0 120 120" fill="none" xmlns="http://www.w3.org/2000/svg">
<path d="M40.5004 69.7624L41.128 70.865L41.7726 69.7624" stroke="#5999F9" stroke-linecap="round" stroke-linejoin="round"/>
<path d="M43.5708 66.6581L58.4309 40.9243" stroke="#5999F9" stroke-linecap="round" stroke-linejoin="round" stroke-dasharray="1.59 1.59"/>
<path d="M59.3299 39.3637L59.9576 38.261H58.6853" stroke="#5999F9" stroke-linecap="round" stroke-linejoin="round"/>
<path d="M55.0891 38.261H25.3857" stroke="#5999F9" stroke-linecap="round" stroke-linejoin="round" stroke-dasharray="1.59 1.59"/>
<path d="M23.5876 38.2611H22.3153L22.943 39.3637" stroke="#5999F9" stroke-linecap="round" stroke-linejoin="round"/>
<path d="M24.7412 42.4849L39.6013 68.2187" stroke="#5999F9" stroke-linecap="round" stroke-linejoin="round" stroke-dasharray="1.59 1.59"/>
<path d="M78.1594 69.7624L78.7871 70.865L79.4317 69.7624" stroke="#5999F9" stroke-linecap="round" stroke-linejoin="round"/>
<path d="M81.23 66.6581L96.0901 40.9243" stroke="#5999F9" stroke-linecap="round" stroke-linejoin="round" stroke-dasharray="1.59 1.59"/>
<path d="M96.9892 39.3637L97.6169 38.261H96.3446" stroke="#5999F9" stroke-linecap="round" stroke-linejoin="round"/>
<path d="M92.7482 38.261H63.0449" stroke="#5999F9" stroke-linecap="round" stroke-linejoin="round" stroke-dasharray="1.59 1.59"/>
<path d="M61.2298 38.2611H59.9575L60.6021 39.3637" stroke="#5999F9" stroke-linecap="round" stroke-linejoin="round"/>
<path d="M62.4004 42.4849L77.2605 68.2187" stroke="#5999F9" stroke-linecap="round" stroke-linejoin="round" stroke-dasharray="1.59 1.59"/>
<path d="M59.3298 102.417L59.9575 103.52L60.6021 102.417" stroke="#5999F9" stroke-linecap="round" stroke-linejoin="round"/>
<path d="M62.4003 99.2963L77.2604 73.5625" stroke="#5999F9" stroke-linecap="round" stroke-linejoin="round" stroke-dasharray="1.59 1.59"/>
<path d="M78.1595 72.0017L78.7872 70.916H77.5149" stroke="#5999F9" stroke-linecap="round" stroke-linejoin="round"/>
<path d="M73.9186 70.916H44.2153" stroke="#5999F9" stroke-linecap="round" stroke-linejoin="round" stroke-dasharray="1.59 1.59"/>
<path d="M42.4172 70.916H41.1449L41.7725 72.0017" stroke="#5999F9" stroke-linecap="round" stroke-linejoin="round"/>
<path d="M43.5706 75.123L58.4307 100.857" stroke="#5999F9" stroke-linecap="round" stroke-linejoin="round" stroke-dasharray="1.59 1.59"/>
<path d="M60.6021 39.3977L59.9575 38.2951L59.3298 39.3977" stroke="#5999F9" stroke-linecap="round" stroke-linejoin="round"/>
<path d="M57.5318 42.519L42.6716 68.2528" stroke="#5999F9" stroke-linecap="round" stroke-linejoin="round" stroke-dasharray="1.59 1.59"/>
<path d="M41.7725 69.8134L41.1449 70.916H42.4172" stroke="#5999F9" stroke-linecap="round" stroke-linejoin="round"/>
<path d="M46.0135 70.9161H75.7169" stroke="#5999F9" stroke-linecap="round" stroke-linejoin="round" stroke-dasharray="1.59 1.59"/>
<path d="M77.5149 70.916H78.7872L78.1595 69.8134" stroke="#5999F9" stroke-linecap="round" stroke-linejoin="round"/>
<path d="M76.3613 66.6921L61.5012 40.9583" stroke="#5999F9" stroke-linecap="round" stroke-linejoin="round" stroke-dasharray="1.59 1.59"/>
<path d="M59.9916 103.52L61.0942 102.876" stroke="#5999F9" stroke-linecap="round" stroke-linejoin="round"/>
<path d="M64.1815 101.094L95.0383 83.2825" stroke="#5999F9" stroke-linecap="round" stroke-linejoin="round" stroke-dasharray="1.58 1.58"/>
<path d="M96.582 82.4004L97.6847 81.7558V80.4835" stroke="#5999F9" stroke-linecap="round" stroke-linejoin="round"/>
<path d="M97.6848 76.9212V41.2976" stroke="#5999F9" stroke-linecap="round" stroke-linejoin="round" stroke-dasharray="1.58 1.58"/>
<path d="M97.6847 39.5163V38.244L96.582 37.5994" stroke="#5999F9" stroke-linecap="round" stroke-linejoin="round"/>
<path d="M93.4948 35.8184L62.6379 18.0066" stroke="#5999F9" stroke-linecap="round" stroke-linejoin="round" stroke-dasharray="1.58 1.58"/>
<path d="M61.0942 17.1075L59.9916 16.4798L58.8889 17.1075" stroke="#5999F9" stroke-linecap="round" stroke-linejoin="round"/>
<path d="M55.8015 18.8887L24.9617 36.7175" stroke="#5999F9" stroke-linecap="round" stroke-linejoin="round" stroke-dasharray="1.58 1.58"/>
<path d="M23.418 37.5994L22.3153 38.244V39.5163" stroke="#5999F9" stroke-linecap="round" stroke-linejoin="round"/>
<path d="M22.3153 43.0789V78.7024" stroke="#5999F9" stroke-linecap="round" stroke-linejoin="round" stroke-dasharray="1.58 1.58"/>
<path d="M22.3153 80.4835V81.7558" stroke="#5999F9" stroke-linecap="round" stroke-linejoin="round"/>
<path d="M59.9575 38.295V37.0227" stroke="#5999F9" stroke-linecap="round" stroke-linejoin="round"/>
<path d="M59.9575 33.9354V19.2958" stroke="#5999F9" stroke-linecap="round" stroke-linejoin="round" stroke-dasharray="1.36 1.36"/>
<path d="M59.9575 17.7521V16.4799" stroke="#5999F9" stroke-linecap="round" stroke-linejoin="round"/>
<path d="M78.7871 70.916L79.8897 71.5437" stroke="#5999F9" stroke-linecap="round" stroke-linejoin="round"/>
<path d="M82.5699 73.0704L95.2418 80.3648" stroke="#5999F9" stroke-linecap="round" stroke-linejoin="round" stroke-dasharray="1.36 1.36"/>
<path d="M96.5818 81.1282L97.6844 81.7558" stroke="#5999F9" stroke-linecap="round" stroke-linejoin="round"/>
<path d="M41.1451 70.916L40.0425 71.5437" stroke="#5999F9" stroke-linecap="round" stroke-linejoin="round"/>
<path d="M37.3791 73.0704L24.7412 80.3478" stroke="#5999F9" stroke-linecap="round" stroke-linejoin="round" stroke-dasharray="1.36 1.36"/>
<path d="M23.418 81.1282L22.3153 81.7558" stroke="#5999F9" stroke-linecap="round" stroke-linejoin="round"/>
<path d="M59.9405 42.4001C62.2078 42.4001 64.0457 40.5621 64.0457 38.2949C64.0457 36.0277 62.2078 34.1897 59.9405 34.1897C57.6733 34.1897 55.8353 36.0277 55.8353 38.2949C55.8353 40.5621 57.6733 42.4001 59.9405 42.4001Z" fill="#18121D" stroke="#5999F9" stroke-miterlimit="10"/>
<path d="M59.9405 20.585C62.2078 20.585 64.0457 18.747 64.0457 16.4798C64.0457 14.2125 62.2078 12.3746 59.9405 12.3746C57.6733 12.3746 55.8353 14.2125 55.8353 16.4798C55.8353 18.747 57.6733 20.585 59.9405 20.585Z" fill="#18121D" stroke="#5999F9" stroke-miterlimit="10"/>
<path d="M41.128 75.0212C43.3953 75.0212 45.2332 73.1832 45.2332 70.916C45.2332 68.6487 43.3953 66.8108 41.128 66.8108C38.8608 66.8108 37.0228 68.6487 37.0228 70.916C37.0228 73.1832 38.8608 75.0212 41.128 75.0212Z" fill="#18121D" stroke="#5999F9" stroke-miterlimit="10"/>
<path d="M78.7872 75.0212C81.0544 75.0212 82.8924 73.1832 82.8924 70.916C82.8924 68.6487 81.0544 66.8108 78.7872 66.8108C76.52 66.8108 74.682 68.6487 74.682 70.916C74.682 73.1832 76.52 75.0212 78.7872 75.0212Z" fill="#18121D" stroke="#5999F9" stroke-miterlimit="10"/>
<path d="M59.9575 107.625C62.2247 107.625 64.0627 105.787 64.0627 103.52C64.0627 101.253 62.2247 99.415 59.9575 99.415C57.6903 99.415 55.8523 101.253 55.8523 103.52C55.8523 105.787 57.6903 107.625 59.9575 107.625Z" fill="#18121D" stroke="#5999F9" stroke-miterlimit="10"/>
<path d="M97.6847 85.8779C99.9519 85.8779 101.79 84.04 101.79 81.7727C101.79 79.5055 99.9519 77.6675 97.6847 77.6675C95.4174 77.6675 93.5795 79.5055 93.5795 81.7727C93.5795 84.04 95.4174 85.8779 97.6847 85.8779Z" fill="#18121D" stroke="#5999F9" stroke-miterlimit="10"/>
<path d="M97.6847 42.4001C99.9519 42.4001 101.79 40.5621 101.79 38.2949C101.79 36.0277 99.9519 34.1897 97.6847 34.1897C95.4174 34.1897 93.5795 36.0277 93.5795 38.2949C93.5795 40.5621 95.4174 42.4001 97.6847 42.4001Z" fill="#18121D" stroke="#5999F9" stroke-miterlimit="10"/>
<path d="M22.3153 85.8779C24.5825 85.8779 26.4205 84.04 26.4205 81.7727C26.4205 79.5055 24.5825 77.6675 22.3153 77.6675C20.048 77.6675 18.2101 79.5055 18.2101 81.7727C18.2101 84.04 20.048 85.8779 22.3153 85.8779Z" fill="#18121D" stroke="#5999F9" stroke-miterlimit="10"/>
<path d="M22.3153 42.4001C24.5825 42.4001 26.4205 40.5621 26.4205 38.2949C26.4205 36.0277 24.5825 34.1897 22.3153 34.1897C20.048 34.1897 18.2101 36.0277 18.2101 38.2949C18.2101 40.5621 20.048 42.4001 22.3153 42.4001Z" fill="#18121D" stroke="#5999F9" stroke-miterlimit="10"/>
</svg>
