<svg width="120" height="120" viewBox="0 0 120 120" fill="none" xmlns="http://www.w3.org/2000/svg">
<g clip-path="url(#clip0_200:1308)">
<path d="M60.0001 29.921C53.4731 29.921 48.2058 35.2074 48.2058 41.7152C48.2058 45.3031 49.5036 48.2994 52.3281 50.6659C54.1029 52.1735 54.8091 53.3186 55.1144 55.1507C55.4198 56.9447 55.3053 58.605 55.3053 58.605H60.0001" stroke="#5999F9" stroke-miterlimit="10" stroke-linejoin="round"/>
<path d="M69.7713 35.1119C71.0499 37.0013 71.7943 39.2724 71.7943 41.7343C71.7943 45.3222 70.4965 48.3184 67.672 50.6849C65.8971 52.1926 65.191 53.3377 64.8857 55.1698C64.5803 56.9637 64.6948 58.6241 64.6948 58.6241H60" stroke="#5999F9" stroke-miterlimit="10" stroke-linecap="round" stroke-linejoin="round"/>
<path d="M60 29.921C62.3856 29.921 64.5994 30.6271 66.4506 31.8485" stroke="#5999F9" stroke-miterlimit="10" stroke-linecap="round" stroke-linejoin="round"/>
<path d="M55.3053 58.6242V61.3915C55.3053 63.9679 57.4046 66.0672 59.981 66.0672C62.5574 66.0672 64.6567 63.9679 64.6567 61.3915V58.6242H55.3053V58.6242Z" stroke="#5999F9" stroke-miterlimit="10" stroke-linejoin="round"/>
<path d="M78.6074 41.6962H78.7029" stroke="#5999F9" stroke-linecap="round" stroke-linejoin="round"/>
<path d="M79.4091 41.6962H87.2337" stroke="#5999F9" stroke-linecap="round" stroke-linejoin="round" stroke-dasharray="2.47 2.47"/>
<path d="M89.6002 41.6962H89.6956" stroke="#5999F9" stroke-linecap="round" stroke-linejoin="round"/>
<path d="M73.4548 28.4131L73.5121 28.3559" stroke="#5999F9" stroke-linecap="round" stroke-linejoin="round"/>
<path d="M74.0081 27.8599L79.5426 22.3254" stroke="#5999F9" stroke-linecap="round" stroke-linejoin="round" stroke-dasharray="2.47 2.47"/>
<path d="M81.2222 20.6459L81.2794 20.5886" stroke="#5999F9" stroke-linecap="round" stroke-linejoin="round"/>
<path d="M60.4008 22.6879V22.5925" stroke="#5999F9" stroke-linecap="round" stroke-linejoin="round"/>
<path d="M60.4008 21.8864V14.0618" stroke="#5999F9" stroke-linecap="round" stroke-linejoin="round" stroke-dasharray="2.47 2.47"/>
<path d="M60.4008 11.6953V11.5999" stroke="#5999F9" stroke-linecap="round" stroke-linejoin="round"/>
<path d="M47.137 27.8598L47.0607 27.7834" stroke="#5999F9" stroke-linecap="round" stroke-linejoin="round"/>
<path d="M46.5644 27.2874L41.0299 21.7529" stroke="#5999F9" stroke-linecap="round" stroke-linejoin="round" stroke-dasharray="2.47 2.47"/>
<path d="M39.3697 20.0925L39.2933 20.0161" stroke="#5999F9" stroke-linecap="round" stroke-linejoin="round"/>
<path d="M41.3927 40.8945H41.2972" stroke="#5999F9" stroke-linecap="round" stroke-linejoin="round"/>
<path d="M40.5911 40.8945H32.7665" stroke="#5999F9" stroke-linecap="round" stroke-linejoin="round" stroke-dasharray="2.47 2.47"/>
<path d="M30.419 40.8945H30.3236" stroke="#5999F9" stroke-linecap="round" stroke-linejoin="round"/>
<path d="M59.9999 99.8087C67.2831 99.8087 73.1873 93.9045 73.1873 86.6213C73.1873 79.338 67.2831 73.4338 59.9999 73.4338C52.7167 73.4338 46.8125 79.338 46.8125 86.6213C46.8125 93.9045 52.7167 99.8087 59.9999 99.8087Z" stroke="#5999F9" stroke-miterlimit="10" stroke-linecap="round" stroke-linejoin="round"/>
<path d="M51.9081 97.1748C50.6676 97.8428 49.3889 98.7206 48.2057 99.9039C43.091 105.019 40.9344 110.21 40.9344 120" stroke="#5999F9" stroke-miterlimit="10" stroke-linecap="round" stroke-linejoin="round"/>
<path d="M68.0728 97.1748C69.3132 97.8428 70.5919 98.7206 71.7751 99.9039C76.8898 105.019 79.0463 110.21 79.0463 120" stroke="#5999F9" stroke-miterlimit="10" stroke-linecap="round" stroke-linejoin="round"/>
<path fill-rule="evenodd" clip-rule="evenodd" d="M68.3209 86.0104C68.6453 86.4684 68.8362 87.0028 68.8362 87.6135C68.8362 89.1402 67.5766 90.3807 66.0116 90.3807C64.4467 90.3807 63.1871 89.1402 63.1871 87.6135L68.3209 86.0104Z" fill="#5999F9"/>
<path fill-rule="evenodd" clip-rule="evenodd" d="M51.8318 86.0104C51.5074 86.4684 51.3165 87.0028 51.3165 87.6135C51.3165 89.1402 52.5761 90.3807 54.141 90.3807C55.706 90.3807 56.9655 89.1402 56.9655 87.6135L51.8318 86.0104Z" fill="#5999F9"/>
<path d="M92.6156 99.8087C99.8988 99.8087 105.803 93.9045 105.803 86.6213C105.803 79.338 99.8988 73.4338 92.6156 73.4338C85.3324 73.4338 79.4282 79.338 79.4282 86.6213C79.4282 93.9045 85.3324 99.8087 92.6156 99.8087Z" stroke="#5999F9" stroke-miterlimit="10" stroke-linecap="round" stroke-linejoin="round"/>
<path d="M84.5237 97.1748C84.5047 97.1939 84.4665 97.1939 84.4474 97.213" stroke="#5999F9" stroke-linecap="round" stroke-linejoin="round"/>
<path d="M84.4473 97.213C83.5122 97.7092 82.5771 98.339 81.661 99.1406" stroke="#5999F9" stroke-linecap="round" stroke-linejoin="round" stroke-dasharray="1.84 1.84"/>
<path d="M79.1037 101.774C79.0846 101.793 79.0655 101.832 79.0464 101.851" stroke="#5999F9" stroke-linecap="round" stroke-linejoin="round"/>
<path d="M100.707 97.1748C101.948 97.8428 103.227 98.7206 104.41 99.9039C109.524 105.019 111.681 110.21 111.681 120" stroke="#5999F9" stroke-miterlimit="10" stroke-linecap="round" stroke-linejoin="round"/>
<path fill-rule="evenodd" clip-rule="evenodd" d="M100.936 86.0104C101.261 86.4684 101.452 87.0028 101.452 87.6135C101.452 89.1402 100.192 90.3807 98.6271 90.3807C97.0622 90.3807 95.8026 89.1402 95.8026 87.6135L100.936 86.0104Z" fill="#5999F9"/>
<path fill-rule="evenodd" clip-rule="evenodd" d="M84.4473 86.0104C84.1228 86.4684 83.932 87.0028 83.932 87.6135C83.932 89.1402 85.1916 90.3807 86.7565 90.3807C88.3214 90.3807 89.581 89.1402 89.581 87.6135L84.4473 86.0104Z" fill="#5999F9"/>
<path d="M27.3654 99.8087C34.6486 99.8087 40.5528 93.9045 40.5528 86.6213C40.5528 79.338 34.6486 73.4338 27.3654 73.4338C20.0822 73.4338 14.178 79.338 14.178 86.6213C14.178 93.9045 20.0822 99.8087 27.3654 99.8087Z" stroke="#5999F9" stroke-miterlimit="10" stroke-linecap="round" stroke-linejoin="round"/>
<path d="M35.4573 97.1748C35.4764 97.1939 35.5145 97.1939 35.5336 97.213" stroke="#5999F9" stroke-linecap="round" stroke-linejoin="round"/>
<path d="M35.5337 97.213C36.4688 97.7092 37.404 98.339 38.32 99.1406" stroke="#5999F9" stroke-linecap="round" stroke-linejoin="round" stroke-dasharray="1.84 1.84"/>
<path d="M40.8774 101.774C40.8965 101.793 40.9156 101.832 40.9347 101.851" stroke="#5999F9" stroke-linecap="round" stroke-linejoin="round"/>
<path d="M19.2927 97.1748C18.0522 97.8428 16.7735 98.7206 15.5903 99.9039C10.4756 105.019 8.31909 110.21 8.31909 120" stroke="#5999F9" stroke-miterlimit="10" stroke-linecap="round" stroke-linejoin="round"/>
<path fill-rule="evenodd" clip-rule="evenodd" d="M19.0446 86.0104C18.7201 86.4684 18.5293 87.0028 18.5293 87.6135C18.5293 89.1402 19.7889 90.3807 21.3538 90.3807C22.9187 90.3807 24.1783 89.1402 24.1783 87.6135L19.0446 86.0104Z" fill="#5999F9"/>
<path fill-rule="evenodd" clip-rule="evenodd" d="M35.5336 86.0104C35.8581 86.4684 36.0489 87.0028 36.0489 87.6135C36.0489 89.1402 34.7893 90.3807 33.2244 90.3807C31.6595 90.3807 30.3999 89.1402 30.3999 87.6135L35.5336 86.0104Z" fill="#5999F9"/>
</g>
<defs>
<clipPath id="clip0_200:1308">
<rect width="120" height="120" fill="white"/>
</clipPath>
</defs>
</svg>
