<svg width="20" height="20" viewBox="0 0 20 20" fill="none" xmlns="http://www.w3.org/2000/svg">
<path d="M19 10C19 14.9706 14.9706 19 10 19C5.02944 19 1 14.9706 1 10C1 5.02944 5.02944 1 10 1C14.9706 1 19 5.02944 19 10Z" fill="white"/>
<path fill-rule="evenodd" clip-rule="evenodd" d="M10 18.4C14.6392 18.4 18.4 14.6392 18.4 10C18.4 5.36081 14.6392 1.6 10 1.6C5.36081 1.6 1.6 5.36081 1.6 10C1.6 14.6392 5.36081 18.4 10 18.4ZM10 19C14.9706 19 19 14.9706 19 10C19 5.02944 14.9706 1 10 1C5.02944 1 1 5.02944 1 10C1 14.9706 5.02944 19 10 19Z" fill="#AF2B2D"/>
<path d="M8.08086 13.1506C9.21976 13.1668 10.3587 12.3533 10.8788 12.3533C11.3988 12.3533 13.713 12.3678 14.8926 11.8746C15.9332 11.4395 16.0945 9.74305 16.0668 9.48941C16.0386 9.23578 15.0837 8.14511 14.3389 7.88419C13.5941 7.62328 12.9725 7.68375 11.8771 7.57569C10.7029 7.45979 7.70847 7.33662 6.47837 7.48891C5.24827 7.6412 3.92643 8.35899 3.94054 9.149C3.95465 9.93957 4.6153 10.2033 4.78413 10.5319C4.95296 10.86 5.30418 11.8897 5.7542 12.2883C6.20423 12.687 7.06139 13.136 8.08086 13.1506Z" fill="#AF2B2D"/>
<path d="M16.2166 10.6658C16.2166 10.6658 16.0386 11.6227 15.9962 11.831C15.9539 12.0387 15.7101 13.0056 14.5294 13.4597C13.3482 13.9144 12.8797 13.6434 11.3424 13.7979C9.80505 13.9524 9.43048 14.383 8.59612 14.5907C7.76176 14.7984 7.18362 14.7839 6.13592 14.1361C5.30644 13.6238 5.40036 13.0096 4.77228 12.2414C4.1442 11.4732 3.84455 11.125 3.7832 10.733V9.8064C3.7832 9.8064 4.0454 10.2902 4.33148 10.5315C4.61757 10.7728 4.91722 11.9424 5.47038 12.4502C6.02355 12.9575 7.21836 13.6394 8.43218 13.5185C9.64599 13.3976 10.2268 12.7934 10.869 12.6921C11.5112 12.5908 13.6012 12.6971 14.5946 12.3394C15.588 11.9816 15.9403 11.3909 16.2166 10.6658Z" fill="#AF2B2D"/>
<path d="M4.65088 8.81484C4.65088 8.81484 4.88973 8.55393 5.26267 8.44531L8.10287 12.6216C8.10287 12.6216 7.74458 12.6938 7.22399 12.5057L4.65088 8.81484Z" fill="white"/>
<path d="M9.59221 12.2581C9.59221 12.2581 9.76809 12.201 9.83106 12.1573L6.99087 7.95918C6.99087 7.95918 6.76667 7.94854 6.6543 7.99949L9.59221 12.2581Z" fill="white"/>
<path d="M8.67139 7.95818L11.3357 11.8164C11.3357 11.8164 12.1158 11.7873 12.2217 11.8164L9.6279 7.95818C9.62735 7.95818 9.09319 7.90835 8.67139 7.95818Z" fill="white"/>
<path d="M11.3901 8.08243L13.8596 11.6276L14.0843 11.584L11.7082 8.08187C11.7082 8.08243 11.5492 8.06619 11.3901 8.08243Z" fill="white"/>
<path d="M13.5361 8.26391C13.5361 8.26391 14.0214 8.2348 14.3232 8.49571L15.4904 10.1631C15.4904 10.1631 15.448 10.5471 15.2515 10.7577L13.5361 8.26391Z" fill="white"/>
<path d="M7.9686 6.65404C7.9686 6.65404 7.57505 6.3976 7.64507 5.85171C7.7151 5.30525 8.11354 4.98667 8.10214 4.46933C8.0902 3.95198 8.02506 3.83105 8.02506 3.83105C8.02506 3.83105 8.46585 4.097 8.41428 4.63841C8.36271 5.17983 7.97837 5.60983 7.94092 5.90994C7.90292 6.20948 7.9686 6.65404 7.9686 6.65404Z" fill="#AF2B2D"/>
<path d="M10.1117 6.135C10.1117 6.135 9.7181 5.87857 9.78813 5.33267C9.85815 4.78622 10.2567 4.46764 10.2453 3.95029C10.2333 3.43295 10.1682 3.31201 10.1682 3.31201C10.1682 3.31201 10.609 3.57796 10.5574 4.11938C10.5058 4.6608 10.1215 5.0908 10.084 5.3909C10.0466 5.69101 10.1117 6.135 10.1117 6.135Z" fill="#AF2B2D"/>
<path d="M12.0892 6.65404C12.0892 6.65404 11.6957 6.3976 11.7657 5.85171C11.8357 5.30581 12.2342 4.98667 12.2228 4.46933C12.2108 3.95198 12.1457 3.83105 12.1457 3.83105C12.1457 3.83105 12.5865 4.097 12.5349 4.63841C12.4833 5.17983 12.099 5.60983 12.0615 5.90994C12.0235 6.20948 12.0892 6.65404 12.0892 6.65404Z" fill="#AF2B2D"/>
<path fill-rule="evenodd" clip-rule="evenodd" d="M10 17.8C14.3078 17.8 17.8 14.3078 17.8 10C17.8 5.69218 14.3078 2.2 10 2.2C5.69218 2.2 2.2 5.69218 2.2 10C2.2 14.3078 5.69218 17.8 10 17.8ZM10 18C14.4183 18 18 14.4183 18 10C18 5.58172 14.4183 2 10 2C5.58172 2 2 5.58172 2 10C2 14.4183 5.58172 18 10 18Z" fill="#AF2B2D"/>
</svg>
