<svg width="20" height="20" viewBox="0 0 20 20" fill="none" xmlns="http://www.w3.org/2000/svg">
<path d="M18.7296 12.1771C17.5276 16.9986 12.6443 19.9329 7.82225 18.7306C3.00223 17.5285 0.0679732 12.6449 1.27051 7.82378C2.472 3.00177 7.35537 0.0672965 12.1759 1.26931C16.9976 2.47133 19.9317 7.35553 18.7295 12.1772L18.7296 12.1771Z" fill="#F7931A"/>
<path d="M13.981 8.71018C14.1602 7.51248 13.2483 6.86867 12.0014 6.43918L12.4059 4.81679L11.4183 4.5707L11.0245 6.15038C10.7649 6.08562 10.4983 6.02461 10.2333 5.96412L10.6299 4.37402L9.64288 4.12793L9.23816 5.7498C9.02331 5.70088 8.81228 5.65253 8.60755 5.60159L8.60869 5.59649L7.24677 5.25639L6.98405 6.31121C6.98405 6.31121 7.71677 6.47917 7.70133 6.48951C8.10125 6.58932 8.17357 6.85406 8.16156 7.0639L7.7008 8.91219C7.72834 8.91918 7.76406 8.9293 7.80347 8.94514C7.77053 8.93696 7.73546 8.92803 7.69908 8.91932L7.05325 11.5085C7.00437 11.63 6.88032 11.8124 6.60071 11.7431C6.61061 11.7575 5.88291 11.564 5.88291 11.564L5.39258 12.6945L6.67778 13.0148C6.91688 13.0748 7.15117 13.1375 7.38191 13.1965L6.97323 14.8375L7.95969 15.0836L8.36441 13.46C8.6339 13.5332 8.89542 13.6007 9.15145 13.6643L8.7481 15.2802L9.73574 15.5263L10.1444 13.8884C11.8285 14.2071 13.0948 14.0786 13.6278 12.5554C14.0573 11.329 13.6064 10.6216 12.7204 10.1603C13.3657 10.0115 13.8518 9.58706 13.9814 8.71031L13.9811 8.71009L13.981 8.71018ZM11.7246 11.8743C11.4194 13.1007 9.35447 12.4377 8.68501 12.2715L9.22734 10.0974C9.89675 10.2646 12.0436 10.5953 11.7246 11.8743ZM12.03 8.69241C11.7516 9.80794 10.033 9.2412 9.47545 9.10223L9.96714 7.1305C10.5247 7.26947 12.32 7.52884 12.0301 8.69241H12.03Z" fill="white"/>
</svg>
