<svg width="20" height="20" viewBox="0 0 20 20" fill="none" xmlns="http://www.w3.org/2000/svg">
<path d="M10 1C5.0291 1 1 5.02983 1 10C1 14.9702 5.02983 19 10 19C14.9702 19 19 14.9702 19 10C19 5.02983 14.9709 1 10 1ZM15.0409 11.8931C15.0409 11.8931 15.0416 11.8998 15.0402 11.9106C14.4318 16.5678 10.0562 17.5745 10.0562 17.5745V15.1839C7.05787 15.1839 4.62714 12.7532 4.62714 9.75488C4.62714 6.75659 7.05787 4.32585 10.0562 4.32585C12.5445 4.32585 14.6404 6.00081 15.2817 8.28419H10.1948V11.8931H15.0409Z" fill="url(#paint0_linear_1_10)"/>
<defs>
<linearGradient id="paint0_linear_1_10" x1="3.63609" y1="3.63639" x2="16.3644" y2="16.3647" gradientUnits="userSpaceOnUse">
<stop stop-color="#0EB3F1"/>
<stop offset="0.9192" stop-color="#F710B3"/>
</linearGradient>
</defs>
</svg>
