<svg width="20" height="20" viewBox="0 0 20 20" fill="none" xmlns="http://www.w3.org/2000/svg">
<path d="M10 1C14.971 1 19 5.02979 19 10C19 14.971 14.971 19 10 19C5.02979 19 1 14.9706 1 10C1 5.02979 5.02979 1 10 1Z" fill="#F5AC37"/>
<path d="M10.3316 10.6311H13.7515C13.8244 10.6311 13.8588 10.6311 13.8641 10.5356C13.892 10.1877 13.892 9.83773 13.8641 9.48942C13.8641 9.42179 13.8304 9.39384 13.7571 9.39384H6.95108C6.86684 9.39384 6.84416 9.42179 6.84416 9.50076V10.5019C6.84416 10.6311 6.84416 10.6311 6.97903 10.6311H10.3316ZM13.4821 8.22379C13.4919 8.19827 13.4919 8.17033 13.4821 8.14522C13.425 8.02088 13.3574 7.90221 13.2788 7.79084C13.1606 7.60049 13.0212 7.42512 12.8625 7.26757C12.7876 7.1724 12.7009 7.08694 12.6037 7.01444C12.1169 6.60013 11.5381 6.3069 10.916 6.15948C10.6022 6.08901 10.2814 6.0554 9.95985 6.05823H6.93933C6.85509 6.05823 6.84375 6.09185 6.84375 6.16515V8.16182C6.84375 8.24606 6.84375 8.26874 6.95067 8.26874H13.4416C13.4416 8.26874 13.4979 8.2574 13.5093 8.22379H13.4817H13.4821ZM13.4821 11.8012C13.3866 11.7907 13.2902 11.7907 13.1946 11.8012H6.95675C6.87251 11.8012 6.84416 11.8012 6.84416 11.9138V13.8659C6.84416 13.9558 6.84416 13.9785 6.95675 13.9785H9.83673C9.97444 13.989 10.1121 13.9793 10.247 13.9505C10.6649 13.9206 11.076 13.8299 11.4681 13.6804C11.6106 13.631 11.7483 13.5666 11.8783 13.4892H11.9176C12.5927 13.1381 13.1411 12.5865 13.487 11.9093C13.487 11.9093 13.5263 11.8243 13.4821 11.802V11.8012ZM5.71379 14.9906V14.957V13.6464V13.2021V11.8802C5.71379 11.8069 5.71379 11.7959 5.62388 11.7959H4.4032C4.33556 11.7959 4.30762 11.7959 4.30762 11.706V10.6372H5.61254C5.68544 10.6372 5.71379 10.6372 5.71379 10.5416V9.48416C5.71379 9.41652 5.71379 9.39992 5.62388 9.39992H4.4032C4.33556 9.39992 4.30762 9.39992 4.30762 9.31001V8.32018C4.30762 8.25821 4.30762 8.24161 4.39753 8.24161H5.60687C5.69111 8.24161 5.71379 8.24161 5.71379 8.13469V5.10283C5.71379 5.01291 5.71379 4.99023 5.82638 4.99023H10.0449C10.351 5.00238 10.6552 5.036 10.9561 5.09149C11.5762 5.2061 12.1719 5.42764 12.7167 5.74395C13.0779 5.95657 13.4104 6.21335 13.7065 6.509C13.9293 6.74026 14.1301 6.99055 14.3083 7.25704C14.4853 7.52718 14.6323 7.81595 14.7478 8.11768C14.7619 8.19625 14.8373 8.2493 14.9158 8.23594H15.9227C16.0519 8.23594 16.0519 8.23594 16.0576 8.35987V9.28247C16.0576 9.37238 16.0239 9.39506 15.9336 9.39506H15.1572C15.0787 9.39506 15.056 9.39506 15.0617 9.49631C15.0924 9.83894 15.0924 10.1828 15.0617 10.5254C15.0617 10.621 15.0617 10.6323 15.169 10.6323H16.0572C16.0964 10.683 16.0572 10.7336 16.0572 10.7846C16.0628 10.8498 16.0628 10.9158 16.0572 10.9811V11.6619C16.0572 11.7574 16.0292 11.7858 15.9446 11.7858H14.8814C14.8073 11.7716 14.7352 11.819 14.7182 11.8927C14.4651 12.5508 14.0601 13.1409 13.5368 13.614C13.3456 13.7861 13.1448 13.9481 12.935 14.0976C12.7098 14.2272 12.4907 14.362 12.2598 14.4689C11.835 14.6601 11.3895 14.8011 10.9322 14.8906C10.4981 14.9683 10.0578 15.0036 9.61601 14.9975H5.71217V14.9918L5.71379 14.9906Z" fill="#FEFEFD"/>
</svg>
