<svg width="20" height="20" viewBox="0 0 20 20" fill="none" xmlns="http://www.w3.org/2000/svg">
<path d="M16.854 7.94075C18.5773 7.1684 18.5262 5.907 18.2153 5.22805C16.1039 1.89032 12.3349 0.537681 9.11789 1.13847C4.31038 1.93219 1.53904 6.2203 1.6153 10.3281C1.68821 14.2552 4.51229 16.8312 5.54479 17.3918C4.31792 15.7893 4.7485 12.8627 5.06434 11.7507C4.95583 11.1515 4.89648 9.94855 5.50724 8.38885C6.24164 6.5136 7.35264 5.4996 9.68409 5.4996C11.648 5.4996 12.9016 6.7232 13.278 7.34525C13.7588 7.8408 15.3373 8.6205 16.854 7.94075Z" fill="url(#paint0_linear_1_182)"/>
<path d="M16.8534 7.94075C18.5767 7.1684 18.5257 5.907 18.2147 5.22805C16.1033 1.89032 12.3343 0.537681 9.11732 1.13847C7.71452 1.37007 6.48512 1.89917 5.44922 2.6345C6.27682 2.32088 8.55842 1.85471 11.4945 2.94236C14.3264 3.99145 16.0365 6.629 16.5162 8.0684C16.6286 8.03335 16.7412 7.99105 16.8534 7.94075Z" fill="url(#paint1_linear_1_182)"/>
<path d="M16.8557 12.0339C18.579 12.8063 18.528 14.0677 18.217 14.7466C16.1056 18.0844 12.3366 19.437 9.11961 18.8362C5.79661 18.2876 3.39717 16.0492 2.29123 13.452C1.78575 12.265 1.58269 11.1238 1.62445 9.72948C1.84856 5.60378 4.45031 3.32765 5.45856 2.6311C4.93106 3.56351 3.97515 5.94888 4.01991 8.22398C4.06441 10.4854 4.66329 11.2444 5.05636 11.7426L5.06351 11.7517C5.15601 12.1552 5.25051 12.7107 5.45936 12.9592C6.30916 13.9702 8.49016 14.3417 9.69056 14.3417C11.721 14.3417 13.0746 13.7794 13.5313 13.0938C13.7557 12.757 13.8051 12.3675 13.8051 12.2446C14.5207 11.842 15.706 11.5186 16.8557 12.0339Z" fill="url(#paint2_linear_1_182)"/>
<path d="M16.8534 12.0593C18.5767 12.8316 18.5257 14.093 18.2147 14.772C16.1033 18.1097 12.3343 19.4623 9.11732 18.8616C7.71452 18.63 6.48512 18.1009 5.44922 17.3655C6.27682 17.6791 8.55842 18.1453 11.4945 17.0577C14.3264 16.0086 16.0365 13.371 16.5162 11.9316C16.6286 11.9667 16.7412 12.009 16.8534 12.0593Z" fill="url(#paint3_linear_1_182)"/>
<path fill-rule="evenodd" clip-rule="evenodd" d="M8.45977 10.0773C8.45977 10.6864 7.95082 11.1433 7.39102 11.1433C6.78027 11.1433 6.32227 10.6864 6.32227 10.0773C6.32227 9.87424 6.37317 9.62044 6.52582 9.46814" fill="url(#paint4_linear_1_182)"/>
<path fill-rule="evenodd" clip-rule="evenodd" d="M10.4956 10.0772C10.4956 10.6864 11.0045 11.1432 11.5644 11.1432C12.1751 11.1432 12.6331 10.6864 12.6331 10.0772C12.6331 9.87417 12.5822 9.62032 12.4295 9.46802" fill="url(#paint5_linear_1_182)"/>
<defs>
<linearGradient id="paint0_linear_1_182" x1="2.68212" y1="12.1161" x2="12.7631" y2="3.84468" gradientUnits="userSpaceOnUse">
<stop stop-color="#FB0F0F"/>
<stop offset="1" stop-color="#2724D0"/>
</linearGradient>
<linearGradient id="paint1_linear_1_182" x1="10.7451" y1="5.79605" x2="12.1189" y2="1.33731" gradientUnits="userSpaceOnUse">
<stop stop-color="#FF5D97"/>
<stop offset="1" stop-color="#4C27BE"/>
</linearGradient>
<linearGradient id="paint2_linear_1_182" x1="1.82967" y1="5.75503" x2="13.9244" y2="15.7546" gradientUnits="userSpaceOnUse">
<stop stop-color="#FF5555"/>
<stop offset="1" stop-color="#1D0057"/>
</linearGradient>
<linearGradient id="paint3_linear_1_182" x1="13.24" y1="7.94404" x2="19.3879" y2="15.067" gradientUnits="userSpaceOnUse">
<stop stop-color="#7A35B5"/>
<stop offset="0.995152" stop-color="#F55156"/>
</linearGradient>
<linearGradient id="paint4_linear_1_182" x1="7.60972" y1="12.0884" x2="9.04967" y2="10.9251" gradientUnits="userSpaceOnUse">
<stop stop-color="#3835B5"/>
<stop offset="0.995152" stop-color="#AD51F5"/>
</linearGradient>
<linearGradient id="paint5_linear_1_182" x1="11.758" y1="10.6047" x2="11.3302" y2="9.63667" gradientUnits="userSpaceOnUse">
<stop stop-color="#FF5D97"/>
<stop offset="1" stop-color="#4C27BE"/>
</linearGradient>
</defs>
</svg>
