<svg width="20" height="20" viewBox="0 0 20 20" fill="none" xmlns="http://www.w3.org/2000/svg">
<path d="M8.72167 6.1603C8.88534 6.1603 9.04263 6.23895 9.12021 6.28464C9.13509 6.29315 9.15156 6.29793 9.16803 6.29793C9.18238 6.29793 9.19726 6.29421 9.21001 6.28677C9.32745 6.21716 9.55701 6.20016 9.76797 6.20016C9.96884 6.20016 10.1527 6.21557 10.2074 6.21557C10.2925 6.21557 10.4056 6.27614 10.4636 6.31121C10.4769 6.31918 10.4923 6.32344 10.5071 6.32344C10.5194 6.32344 10.5321 6.32078 10.5438 6.316C10.6751 6.25914 10.7877 6.23576 10.902 6.23576C10.9875 6.23576 11.0747 6.24904 11.1708 6.27136C11.3297 6.30803 11.4727 6.31441 11.5503 6.31441C11.571 6.31441 11.5869 6.31387 11.5975 6.31334C11.6066 6.31281 11.6156 6.31069 11.6241 6.3075C11.7474 6.25914 11.8632 6.24107 11.9685 6.24107C12.1093 6.24107 12.231 6.27402 12.3271 6.31281C12.4967 6.38136 12.5291 6.52855 12.5838 6.65237C12.6391 6.77618 12.6848 6.84951 12.74 6.96429C12.7799 7.04719 12.7475 7.19969 12.7267 7.27781C12.7193 7.30544 12.7257 7.33414 12.7443 7.35592C12.8777 7.51162 13.0419 8.09774 13.0838 8.32677C13.1152 8.49681 13.0844 8.62806 13.0615 8.69342C13.0514 8.72212 13.0567 8.75347 13.0764 8.77685C13.1077 8.81458 13.1529 8.87887 13.1758 8.95539C13.2124 9.07921 13.3362 9.11587 13.3867 9.18921C13.4372 9.26254 13.5562 9.5564 13.5977 9.67543C13.6391 9.79446 13.5153 10.0468 13.5382 10.1387C13.561 10.2307 13.8501 10.3821 14.0015 10.7674C14.0626 10.9231 14.0759 11.1537 14.0786 11.2525C14.0791 11.277 14.0897 11.2994 14.1083 11.3148C14.2168 11.4057 14.3634 11.8774 14.4601 12.1761C14.5483 12.4487 14.5823 12.7442 14.5908 12.833C14.5924 12.8505 14.5999 12.8675 14.6116 12.8808C14.94 13.2661 15.0101 13.589 14.9697 13.8414C14.9283 14.0981 14.6164 14.2592 14.3825 14.2959C14.3666 14.2985 14.3512 14.2995 14.3358 14.2995C14.2024 14.2995 14.085 14.2129 14.0159 14.1486C13.9989 14.1326 13.9776 14.1252 13.9564 14.1252C13.9346 14.1252 13.9128 14.1333 13.8958 14.1492C13.7598 14.2752 13.5052 14.2959 13.3187 14.2959C13.2698 14.2959 13.2257 14.2942 13.1896 14.2931C13.053 14.2878 12.9276 14.2061 12.8633 14.1556C12.8479 14.1434 12.8293 14.1374 12.8107 14.1374C12.7953 14.1374 12.7799 14.1418 12.7661 14.1497C12.7081 14.1838 12.6056 14.2363 12.4828 14.2687C12.4201 14.2852 12.3356 14.2931 12.2453 14.2931C12.0599 14.2931 11.8505 14.2586 11.758 14.1906C11.6549 14.1151 11.6316 13.8925 11.6262 13.7857C11.6246 13.7548 11.6076 13.7267 11.5795 13.7139C11.4418 13.6491 11.3218 13.3803 11.2745 13.2613C11.2612 13.2283 11.2298 13.2064 11.1942 13.2064C11.1937 13.2064 11.1932 13.2064 11.1926 13.2064C11.1836 13.2064 11.174 13.2064 11.1634 13.2064C11.1097 13.2064 11.0375 13.2044 10.9636 13.1948C10.8626 13.1821 10.7728 13.1283 10.7266 13.0959C10.7123 13.0858 10.6953 13.0811 10.6782 13.0811C10.6692 13.0811 10.6602 13.0826 10.6511 13.0853C10.5773 13.1092 10.4901 13.1778 10.2776 13.1778C10.2436 13.1778 10.2064 13.1762 10.1655 13.1719C10.0215 13.1581 9.93589 13.1401 9.88913 13.112C9.87478 13.1035 9.85884 13.0986 9.8429 13.0986C9.8243 13.0986 9.80623 13.1045 9.79082 13.1167C9.75469 13.1454 9.69889 13.1799 9.62396 13.199C9.48155 13.2357 9.28016 13.5525 9.16963 13.9191C9.05963 14.2863 8.97674 14.2496 8.66959 14.2628C8.65418 14.2634 8.63877 14.264 8.62443 14.264C8.45119 14.264 8.34598 14.2171 8.29231 14.1831C8.27849 14.1741 8.26255 14.1698 8.24714 14.1698C8.23014 14.1698 8.21313 14.1746 8.19879 14.1847C8.1398 14.2246 8.03459 14.2841 7.91768 14.2899C7.91237 14.2899 7.90759 14.2906 7.90227 14.2906C7.79227 14.2906 7.68812 14.2304 7.62701 14.1868C7.61213 14.1762 7.59513 14.1709 7.57759 14.1709C7.55953 14.1709 7.54093 14.1768 7.52605 14.1884C7.45484 14.2432 7.34591 14.2639 7.20987 14.2687C7.20456 14.2687 7.19925 14.2687 7.19393 14.2687C7.08819 14.2687 6.99094 14.2341 6.93621 14.2097C6.92558 14.2049 6.91442 14.2029 6.90326 14.2029C6.8852 14.2029 6.8666 14.2087 6.85066 14.2194C6.78051 14.2656 6.70293 14.2639 6.64235 14.2682C6.6397 14.2682 6.63704 14.2687 6.63491 14.2687C6.6126 14.2687 6.594 14.2613 6.57859 14.2512C6.56265 14.2406 6.54405 14.2348 6.52545 14.2348C6.51216 14.2348 6.49888 14.2379 6.48719 14.2442C6.46381 14.257 6.42927 14.2682 6.37932 14.2682C6.35487 14.2682 6.32671 14.2655 6.29483 14.2591C6.09875 14.2214 5.86812 13.9392 5.90266 13.7187C5.9287 13.5513 6.06846 13.4116 6.13382 13.3542C6.15348 13.3372 6.16411 13.3123 6.16304 13.2868C6.1572 13.1024 6.34584 12.9673 6.43724 12.9126C6.46593 12.8956 6.48188 12.8642 6.47922 12.8313C6.46221 12.6357 6.52757 12.4779 6.52757 12.4779C6.54511 12.3323 6.6668 12.226 6.72525 12.183C6.74544 12.1681 6.75766 12.1458 6.76032 12.1213C6.80602 11.7281 7.12273 11.3839 7.20775 11.2973C7.22157 11.2835 7.23007 11.2643 7.23166 11.2452C7.27842 10.7898 7.43731 10.6388 7.50905 10.5931C7.5319 10.5782 7.54624 10.5539 7.5489 10.5268C7.59141 10.0544 7.83107 9.78701 7.92512 9.69934C7.94585 9.68021 7.95647 9.65204 7.95222 9.62441C7.92778 9.46818 7.98942 9.12384 8.02396 8.95221C8.03459 8.89907 7.99526 8.84965 7.94106 8.84806C7.78218 8.84434 7.48726 8.83583 7.37567 8.82255C7.21944 8.80395 7.06374 8.29967 7.06853 8.12059C7.07225 7.98455 7.14186 7.87774 7.17533 7.83417C7.18649 7.81929 7.19234 7.80229 7.1934 7.78369C7.19978 7.64925 7.24495 7.48824 7.26727 7.41597C7.2747 7.39206 7.27152 7.36602 7.25823 7.34476C7.22635 7.29322 7.16896 7.18641 7.15621 7.06525C7.13761 6.89574 7.10891 6.58913 7.25132 6.40793C7.40277 6.21503 7.57813 6.16137 7.72054 6.16137C7.82469 6.16137 8.01705 6.24267 8.1127 6.28571C8.12386 6.29102 8.13555 6.29315 8.14724 6.29315C8.17009 6.29315 8.19294 6.28358 8.21048 6.26711C8.33004 6.15446 8.50221 6.16509 8.71157 6.16137C8.71529 6.1603 8.71848 6.1603 8.72167 6.1603ZM8.72167 5.78833C8.71582 5.78833 8.70998 5.78833 8.70467 5.78833C8.68394 5.78886 8.66375 5.78886 8.64409 5.78939C8.48308 5.79152 8.29284 5.79365 8.11748 5.88239C7.90546 5.79949 7.79174 5.78833 7.7216 5.78833C7.42721 5.78833 7.15674 5.92649 6.96012 6.17731C6.72047 6.48232 6.76564 6.90265 6.78742 7.10404C6.80071 7.22573 6.83844 7.33467 6.87988 7.42235C6.85916 7.50152 6.84056 7.59133 6.82993 7.68113C6.76936 7.77891 6.70293 7.92716 6.69815 8.10943C6.6939 8.28 6.75607 8.50744 6.81612 8.66366C6.86235 8.78429 7.0037 9.15148 7.33369 9.19027C7.38895 9.19665 7.47929 9.20249 7.60363 9.2078C7.58344 9.35128 7.57706 9.4533 7.576 9.52663C7.44156 9.68233 7.25823 9.96078 7.19446 10.3711C7.06268 10.5007 6.93037 10.7238 6.8751 11.1085C6.72419 11.2764 6.48985 11.5862 6.41067 11.9619C6.31289 12.0544 6.20343 12.1953 6.16676 12.3829C6.14604 12.4445 6.11575 12.5539 6.10725 12.6894C5.94252 12.8217 5.8373 12.9834 5.80329 13.1561C5.69542 13.2692 5.56895 13.4435 5.53548 13.6603C5.46586 14.1067 5.85537 14.5519 6.22468 14.6231C6.27835 14.6332 6.33043 14.6385 6.37985 14.6385C6.42821 14.6385 6.47444 14.6338 6.51854 14.6243C6.5568 14.6338 6.59559 14.6392 6.63545 14.6392C6.64714 14.6392 6.65883 14.6386 6.67052 14.6381C6.67636 14.6376 6.68274 14.6375 6.68912 14.6369C6.74172 14.6337 6.82409 14.6291 6.91655 14.5972C6.99626 14.6211 7.09138 14.6397 7.19446 14.6397C7.20403 14.6397 7.21306 14.6397 7.22263 14.6392C7.31881 14.636 7.44475 14.6253 7.56803 14.5812C7.66315 14.6264 7.77686 14.6614 7.9028 14.6614C7.91396 14.6614 7.92565 14.6609 7.93681 14.6604C8.05903 14.654 8.16903 14.6189 8.26043 14.5758C8.35501 14.6093 8.47564 14.6343 8.62496 14.6343C8.64515 14.6343 8.66587 14.6337 8.68713 14.6327C8.71529 14.6316 8.74133 14.6307 8.76578 14.6301C8.91775 14.6253 9.07557 14.6205 9.22755 14.5142C9.39653 14.3967 9.47093 14.2093 9.52672 14.0238C9.60005 13.7788 9.71111 13.6003 9.76478 13.5429C9.80198 13.5307 9.83865 13.5158 9.87372 13.4988C9.94971 13.5185 10.0347 13.5301 10.1299 13.5391C10.1809 13.5439 10.2308 13.5466 10.2776 13.5466C10.4476 13.5466 10.5709 13.5136 10.657 13.4822C10.7314 13.5178 10.8196 13.5487 10.9174 13.5609C10.9461 13.5646 10.9753 13.5673 11.0056 13.5694C11.0996 13.7607 11.1916 13.8745 11.267 13.9436C11.301 14.1976 11.3919 14.3798 11.5375 14.4872C11.7527 14.645 12.104 14.6619 12.2448 14.6619C12.3319 14.6619 12.4605 14.6555 12.5764 14.6252C12.6555 14.6045 12.7283 14.5775 12.7916 14.5499C12.8984 14.6083 13.0286 14.6561 13.1747 14.6614C13.2146 14.663 13.2629 14.6646 13.3176 14.6646C13.5727 14.6646 13.7789 14.6285 13.9415 14.5541C14.0674 14.6291 14.2008 14.6684 14.3347 14.6684C14.3698 14.6684 14.4049 14.6657 14.4394 14.6604C14.822 14.6004 15.2657 14.3363 15.3364 13.8979C15.3996 13.5057 15.27 13.105 14.9511 12.706C14.9325 12.5545 14.8927 12.3027 14.814 12.0593L14.7949 11.9997C14.6498 11.5506 14.5552 11.2919 14.4458 11.1367C14.4357 10.9783 14.4096 10.7871 14.3475 10.6293C14.2295 10.3291 14.051 10.142 13.9309 10.0241C13.9665 9.88692 14.0069 9.71847 13.9489 9.55161C13.9473 9.54736 13.7954 9.12544 13.6928 8.97612C13.6402 8.8996 13.578 8.85178 13.5323 8.81724C13.5281 8.81405 13.5233 8.81033 13.5185 8.80661C13.4999 8.754 13.476 8.70618 13.4516 8.6642C13.4717 8.5542 13.4787 8.41604 13.4494 8.25662C13.4478 8.24918 13.3155 7.5977 13.1147 7.24114C13.1455 7.06472 13.1322 6.91965 13.0748 6.80062C13.0488 6.74642 13.0254 6.70232 13.0031 6.65927C12.9749 6.6056 12.9505 6.55937 12.9234 6.4988C12.9164 6.48285 12.9095 6.46638 12.9032 6.44991C12.8516 6.32131 12.7554 6.08272 12.4664 5.96528C12.3043 5.89939 12.1369 5.86644 11.9679 5.86644C11.8234 5.86644 11.6799 5.89089 11.5396 5.93978C11.4806 5.93924 11.3728 5.93393 11.2543 5.9063C11.1209 5.87548 11.0088 5.86113 10.9014 5.86113C10.7744 5.86113 10.6533 5.88079 10.5268 5.92224C10.412 5.86857 10.3047 5.842 10.2069 5.842C10.1963 5.842 10.1596 5.83988 10.1293 5.83828C10.0416 5.8335 9.90932 5.82659 9.76744 5.82659C9.51503 5.82659 9.32586 5.84838 9.17919 5.89514C9.05379 5.83828 8.89437 5.78833 8.72167 5.78833Z" fill="#C00F26"/>
<path d="M7.25176 6.40703C7.32456 6.31457 7.40268 6.25399 7.48026 6.21626L9.40919 1.573L1 9.94075C1 13.932 3.39443 16.0512 3.39443 16.0512L7.1508 7.00909C7.13433 6.83373 7.1237 6.57017 7.25176 6.40703Z" fill="#C00F26"/>
<path d="M8.21101 6.2661C8.33057 6.15344 8.50274 6.16407 8.7121 6.16035C8.71529 6.16035 8.71848 6.16035 8.7222 6.16035C8.88587 6.16035 9.04316 6.239 9.12074 6.28469C9.13562 6.2932 9.15209 6.29798 9.16857 6.29798C9.18291 6.29798 9.19779 6.29426 9.21054 6.28682C9.32798 6.21721 9.55754 6.20021 9.7685 6.20021C9.96936 6.20021 10.1532 6.21561 10.208 6.21561C10.293 6.21561 10.4062 6.27619 10.4641 6.31126C10.4774 6.31923 10.4928 6.32349 10.5077 6.32349C10.5199 6.32349 10.5326 6.32083 10.5443 6.31605C10.6756 6.25919 10.7882 6.23581 10.9025 6.23581C10.988 6.23581 11.0752 6.24909 11.1714 6.27141C11.3303 6.30808 11.4732 6.31446 11.5508 6.31446C11.5715 6.31446 11.5874 6.31392 11.5981 6.31339C11.6071 6.31286 11.6161 6.31074 11.6246 6.30755C11.7479 6.25919 11.8638 6.24112 11.969 6.24112C12.1098 6.24112 12.2315 6.27407 12.3277 6.31286C12.4972 6.38141 12.5296 6.5286 12.5843 6.65242C12.6189 6.73 12.6497 6.78792 12.6816 6.8485L16.0431 3.50076L10.2898 1.07764L8.12598 6.29001C8.13342 6.29214 8.14086 6.2932 8.14777 6.2932C8.17062 6.29214 8.19294 6.2831 8.21101 6.2661Z" fill="#C00F26"/>
<path d="M6.13446 13.3538C6.15412 13.3368 6.16475 13.3119 6.16368 13.2863C6.15784 13.102 6.34648 12.967 6.43788 12.9123C6.46658 12.8952 6.48252 12.8639 6.47986 12.8309C6.46286 12.6354 6.52822 12.4776 6.52822 12.4776C6.54575 12.332 6.66744 12.2257 6.72589 12.1827C6.74608 12.1678 6.75831 12.1455 6.76096 12.121C6.80666 11.7278 7.12337 11.3835 7.20839 11.2968C7.22221 11.283 7.23071 11.2639 7.2323 11.2448C7.27907 10.7894 7.43795 10.6384 7.50969 10.5927C7.53254 10.5779 7.54688 10.5534 7.54954 10.5263C7.59205 10.0539 7.83171 9.78665 7.92576 9.69897C7.94649 9.67984 7.95711 9.65168 7.95286 9.62405C7.92842 9.46782 7.99006 9.12348 8.0246 8.95185C8.03523 8.89871 7.99591 8.84929 7.94171 8.8477C7.78282 8.84398 7.4879 8.83547 7.37631 8.82219C7.3051 8.81368 7.23443 8.70422 7.1781 8.57031L4.51904 14.9751L6.00002 13.5005C6.04837 13.4341 6.10098 13.3831 6.13446 13.3538Z" fill="#C00F26"/>
<path d="M13.1897 14.2912C13.0531 14.2859 12.9277 14.2041 12.8634 14.1536C12.848 14.1414 12.8294 14.1355 12.8108 14.1355C12.7954 14.1355 12.78 14.1398 12.7662 14.1477C12.7082 14.1817 12.6057 14.2343 12.4829 14.2668C12.4202 14.2832 12.3357 14.2912 12.2454 14.2912C12.06 14.2912 11.8506 14.2567 11.7581 14.1886C11.655 14.1132 11.6317 13.8905 11.6263 13.7837C11.6247 13.7529 11.6077 13.7247 11.5796 13.712C11.442 13.6472 11.3219 13.3783 11.2746 13.2592C11.2613 13.2263 11.2299 13.2045 11.1943 13.2045C11.1938 13.2045 11.1933 13.2045 11.1927 13.2045C11.1837 13.2045 11.1741 13.2045 11.1635 13.2045C11.1098 13.2045 11.0376 13.2024 10.9637 13.1928C10.8627 13.1801 10.7729 13.1264 10.7267 13.094C10.7124 13.0839 10.6954 13.0791 10.6783 13.0791C10.6693 13.0791 10.6603 13.0807 10.6512 13.0834C10.5774 13.1073 10.4902 13.1758 10.2777 13.1758C10.2437 13.1758 10.2065 13.1742 10.1656 13.17C10.0216 13.1562 9.93598 13.1381 9.88922 13.1099C9.87487 13.1014 9.85893 13.0966 9.84299 13.0966C9.82439 13.0966 9.80632 13.1025 9.79144 13.1147C9.75531 13.1434 9.69951 13.1779 9.62459 13.1971C9.48218 13.2337 9.28078 13.5504 9.17025 13.9171C9.06025 14.2843 8.97736 14.2476 8.67022 14.2609C8.65481 14.2614 8.6394 14.262 8.62505 14.262C8.45182 14.262 8.3466 14.2152 8.29293 14.1812C8.27912 14.1722 8.26317 14.1679 8.24776 14.1679C8.23076 14.1679 8.21375 14.1727 8.19941 14.1828C8.14042 14.2227 8.03521 14.2822 7.91777 14.288C7.91246 14.288 7.90768 14.2885 7.90236 14.2885C7.79237 14.2885 7.68821 14.2285 7.6271 14.1849C7.61222 14.1743 7.59522 14.169 7.57769 14.169C7.55962 14.169 7.54155 14.1748 7.52614 14.1865C7.45493 14.2413 7.346 14.262 7.20997 14.2668C7.20465 14.2668 7.19934 14.2668 7.19402 14.2668C7.08828 14.2668 6.99103 14.2322 6.9363 14.2078C6.92567 14.203 6.91451 14.2009 6.90335 14.2009C6.88529 14.2009 6.86669 14.2067 6.85075 14.2173C6.7806 14.2636 6.70302 14.262 6.64244 14.2662C6.63979 14.2662 6.63713 14.2668 6.635 14.2668C6.61269 14.2668 6.59409 14.2593 6.57868 14.2492C6.56274 14.2386 6.54414 14.2327 6.52554 14.2327C6.51225 14.2327 6.49897 14.2359 6.48728 14.2423C6.4639 14.2551 6.42936 14.2662 6.37941 14.2662C6.35496 14.2662 6.3268 14.2636 6.29492 14.2572C6.254 14.2492 6.20579 14.2292 6.16434 14.2026L3.94141 16.4284L9.96946 18.9228L16.0459 16.4226L13.8425 14.19C13.7 14.2777 13.4809 14.2928 13.3177 14.2928C13.2699 14.2939 13.2258 14.2928 13.1897 14.2912Z" fill="#C00F26"/>
<path d="M18.9837 9.43795C18.7765 5.93026 16.6026 3.84351 16.6026 3.84351L12.8584 7.56587C12.9589 7.80712 13.0534 8.15996 13.0843 8.32575C13.1156 8.4958 13.0848 8.62705 13.0619 8.69241C13.0519 8.72111 13.0572 8.75246 13.0768 8.77584C13.1082 8.81356 13.1533 8.87787 13.1762 8.95438C13.2129 9.0782 13.3367 9.11486 13.3872 9.18819C13.4376 9.26152 13.5567 9.55538 13.5981 9.67441C13.6396 9.79344 13.5158 10.0459 13.5386 10.1378C13.5615 10.2297 13.8505 10.3812 14.002 10.7664C14.0631 10.9221 14.0764 11.1527 14.079 11.2516C14.0796 11.276 14.0902 11.2983 14.1088 11.3137C14.2172 11.4046 14.3638 11.8765 14.4606 12.1751C14.5488 12.4477 14.5828 12.7432 14.5913 12.8319C14.5929 12.8494 14.6003 12.8665 14.612 12.8797C14.9404 13.265 15.0105 13.5881 14.9702 13.8405C14.9457 13.9925 14.8267 14.1104 14.6848 14.1891L16.5733 16.0861C16.5723 16.0856 19.2313 13.6359 18.9837 9.43795Z" fill="#C00F26"/>
<path d="M10.0801 11.1702C10.1301 11.1372 10.2396 11.0341 10.2794 10.7557C10.2847 10.7169 10.3299 10.6978 10.3607 10.7217C10.4027 10.7541 10.4558 10.7913 10.4999 10.8094C10.5185 10.8173 10.5313 10.8349 10.5313 10.855C10.5323 10.9449 10.5398 11.1803 10.5908 11.3004C10.6009 11.3248 10.5903 11.3524 10.5669 11.3647C10.5281 11.3848 10.4739 11.4183 10.4324 11.464C10.417 11.481 10.3926 11.4853 10.3724 11.4746C10.3155 11.4454 10.2034 11.3923 10.1104 11.3763C10.0881 11.3726 10.0722 11.354 10.0695 11.3317L10.0578 11.2169C10.0562 11.1983 10.0647 11.1803 10.0801 11.1702Z" fill="#C00F26"/>
</svg>
