<svg width="20" height="20" viewBox="0 0 20 20" fill="none" xmlns="http://www.w3.org/2000/svg">
<path d="M10 19.0005C14.9875 19.0005 19 14.988 19 10.0005C19 5.01296 14.9875 1.00049 10 1.00049C5.01247 1.00049 1 5.01296 1 10.0005C1 14.988 5.01247 19.0005 10 19.0005Z" fill="#2775CA"/>
<path d="M12.4752 11.4257C12.4752 10.1132 11.6877 9.66321 10.1127 9.47574C8.98767 9.32571 8.76267 9.02574 8.76267 8.50068C8.76267 7.97562 9.1377 7.63821 9.88767 7.63821C10.5627 7.63821 10.9377 7.86321 11.1252 8.42571C11.1627 8.53821 11.2752 8.61318 11.3877 8.61318H11.9877C12.1377 8.61318 12.2502 8.50068 12.2502 8.35074V8.31321C12.1002 7.48818 11.4252 6.85071 10.5627 6.77574V5.87574C10.5627 5.72571 10.4502 5.61321 10.2627 5.57568H9.7002C9.55017 5.57568 9.43767 5.68818 9.40014 5.87574V6.73821C8.27514 6.88824 7.5627 7.63821 7.5627 8.57574C7.5627 9.81324 8.31267 10.3007 9.88767 10.4882C10.9377 10.6757 11.2752 10.9007 11.2752 11.5007C11.2752 12.1008 10.7502 12.5132 10.0377 12.5132C9.06264 12.5132 8.72514 12.1007 8.61264 11.5382C8.5752 11.3882 8.4627 11.3132 8.3502 11.3132H7.71264C7.5627 11.3132 7.4502 11.4257 7.4502 11.5757V11.6132C7.60014 12.5507 8.20017 13.2257 9.43767 13.4132V14.3132C9.43767 14.4632 9.55017 14.5757 9.73764 14.6132H10.3002C10.4502 14.6132 10.5627 14.5007 10.6002 14.3132V13.4132C11.7252 13.2257 12.4752 12.4382 12.4752 11.4257Z" fill="white"/>
<path d="M8.08774 15.3629C5.16274 14.313 3.66271 11.0505 4.75027 8.16293C5.31277 6.58793 6.55027 5.38796 8.08774 4.82546C8.23777 4.75049 8.31274 4.63799 8.31274 4.45043V3.92546C8.31274 3.77543 8.23777 3.66293 8.08774 3.62549C8.05021 3.62549 7.97524 3.62549 7.93771 3.66293C4.37524 4.78793 2.42521 8.57549 3.55021 12.138C4.22521 14.2379 5.83774 15.8505 7.93771 16.5255C8.08774 16.6004 8.23777 16.5255 8.27521 16.3754C8.31274 16.338 8.31274 16.3005 8.31274 16.2255V15.7004C8.31274 15.5879 8.20024 15.438 8.08774 15.3629ZM12.0627 3.66293C11.9127 3.58796 11.7627 3.66293 11.7252 3.81296C11.6877 3.85049 11.6877 3.88793 11.6877 3.96299V4.48796C11.6877 4.63799 11.8002 4.78793 11.9127 4.86299C14.8377 5.91293 16.3377 9.17543 15.2502 12.063C14.6877 13.638 13.4502 14.838 11.9127 15.4005C11.7627 15.4754 11.6877 15.5879 11.6877 15.7755V16.3005C11.6877 16.4505 11.7627 16.563 11.9127 16.6004C11.9502 16.6004 12.0252 16.6004 12.0627 16.563C15.6252 15.438 17.5752 11.6504 16.4502 8.08796C15.7752 5.95046 14.1252 4.33793 12.0627 3.66293Z" fill="white"/>
</svg>
