<svg width="20" height="20" viewBox="0 0 20 20" fill="none" xmlns="http://www.w3.org/2000/svg">
<path d="M6.22796 15.0045C5.79283 15.0054 5.36524 14.8909 4.98886 14.6725C4.61248 14.4541 4.30079 14.1398 4.08559 13.7616C3.8704 13.3834 3.75942 12.9549 3.76398 12.5198C3.76853 12.0847 3.88847 11.6586 4.11154 11.2849C4.33461 10.9113 4.65283 10.6036 5.0337 10.3932C5.41458 10.1828 5.84447 10.0772 6.27949 10.0872C6.71451 10.0972 7.13908 10.2225 7.50986 10.4502C7.88064 10.678 8.18434 11 8.38996 11.3835C8.597 10.4301 9.05238 9.5483 9.70996 8.82754C8.98448 8.14675 8.07571 7.69303 7.09559 7.52224C6.11548 7.35146 5.10681 7.47107 4.19382 7.86635C3.28083 8.26163 2.50339 8.91532 1.95725 9.7469C1.41111 10.5785 1.12012 11.5516 1.12012 12.5465C1.12012 13.5414 1.41111 14.5146 1.95725 15.3462C2.50339 16.1778 3.28083 16.8314 4.19382 17.2267C5.10681 17.622 6.11548 17.7416 7.09559 17.5708C8.07571 17.4 8.98448 16.9463 9.70996 16.2655C9.05214 15.5449 8.59673 14.6631 8.38996 13.7095C8.18062 14.1009 7.86893 14.4281 7.48815 14.6562C7.10738 14.8843 6.67182 15.0047 6.22796 15.0045Z" fill="#FF5F5F"/>
<path d="M13.7851 2.35156C12.4325 2.35156 11.1353 2.88888 10.1788 3.84532C9.22238 4.80175 8.68506 6.09896 8.68506 7.45156H11.3231C11.3165 7.12454 11.3752 6.79948 11.4958 6.49543C11.6164 6.19137 11.7964 5.91443 12.0254 5.68082C12.2543 5.44721 12.5276 5.26163 12.8291 5.13493C13.1307 5.00823 13.4545 4.94298 13.7816 4.94298C14.1087 4.94298 14.4325 5.00823 14.734 5.13493C15.0356 5.26163 15.3088 5.44721 15.5378 5.68082C15.7667 5.91443 15.9468 6.19137 16.0674 6.49543C16.188 6.79948 16.2467 7.12454 16.2401 7.45156H18.8791C18.8791 6.1 18.3426 4.8037 17.3874 3.84744C16.4323 2.89117 15.1366 2.35315 13.7851 2.35156Z" fill="#4FEDCE"/>
<path d="M13.7847 7.44854C12.7758 7.44755 11.7893 7.74582 10.95 8.30562C10.1106 8.86541 9.45612 9.66158 9.06935 10.5934C8.68257 11.5252 8.58086 12.5508 8.77708 13.5404C8.9733 14.5301 9.45863 15.4393 10.1717 16.153C10.8848 16.8668 11.7935 17.353 12.7829 17.5502C13.7724 17.7474 14.7981 17.6467 15.7303 17.2608C16.6625 16.8749 17.4593 16.2213 18.0199 15.3825C18.5805 14.5437 18.8797 13.5574 18.8797 12.5485C18.8836 11.8781 18.7544 11.2136 18.4998 10.5935C18.2452 9.97331 17.8701 9.40979 17.3963 8.93551C16.9225 8.46123 16.3593 8.08561 15.7394 7.83037C15.1195 7.57514 14.4551 7.44536 13.7847 7.44854ZM13.7847 15.0045C13.2981 15.0053 12.8222 14.8617 12.4172 14.5919C12.0122 14.322 11.6964 13.9381 11.5098 13.4886C11.3231 13.0392 11.274 12.5445 11.3687 12.0672C11.4634 11.5898 11.6976 11.1513 12.0416 10.8071C12.3856 10.4629 12.8241 10.2286 13.3014 10.1337C13.7787 10.0389 14.2734 10.0877 14.7229 10.2742C15.1724 10.4607 15.5565 10.7763 15.8265 11.1812C16.0965 11.586 16.2403 12.0619 16.2397 12.5485C16.2384 13.1993 15.9794 13.8231 15.5193 14.2834C15.0592 14.7437 14.4355 15.003 13.7847 15.0045Z" fill="#FF5F5F"/>
</svg>
