<svg width="20" height="20" viewBox="0 0 20 20" fill="none" xmlns="http://www.w3.org/2000/svg">
<path d="M10 1C14.971 1 19 5.02979 19 10C19 14.971 14.971 19 10 19C5.02979 19 1 14.9706 1 10C1 5.02979 5.02979 1 10 1Z" fill="#23292F"/>
<path d="M14.385 5.03833H16.179L12.4462 8.60697C11.0949 9.89895 8.90433 9.89895 7.55303 8.60697L3.82068 5.03833H5.61465L8.45026 7.74933C9.30581 8.56766 10.6934 8.56766 11.5494 7.74933L14.385 5.03833ZM5.59182 14.9619H3.79785L7.55352 11.3712C8.90483 10.0792 11.0953 10.0792 12.4467 11.3712L16.2023 14.9619H14.4084L11.5494 12.2288C10.6939 11.4105 9.3063 11.4105 8.45026 12.2288L5.59182 14.9619Z" fill="white"/>
</svg>
