<svg width="20" height="20" viewBox="0 0 20 20" fill="none" xmlns="http://www.w3.org/2000/svg">
<path d="M9.97766 18.7449C14.7838 18.7449 18.68 14.8488 18.68 10.0426C18.68 5.23647 14.7838 1.34033 9.97766 1.34033C5.17153 1.34033 1.27539 5.23647 1.27539 10.0426C1.27539 14.8488 5.17153 18.7449 9.97766 18.7449Z" fill="#FFF200"/>
<path fill-rule="evenodd" clip-rule="evenodd" d="M10 1.59546C5.3583 1.59546 1.59546 5.3583 1.59546 10C1.59546 14.6417 5.3583 18.4045 10 18.4045C14.6417 18.4045 18.4045 14.6417 18.4045 10C18.4045 5.3583 14.6417 1.59546 10 1.59546ZM1 10C1 5.02944 5.02944 1 10 1C14.9706 1 19 5.02944 19 10C19 14.9706 14.9706 19 10 19C5.02944 19 1 14.9706 1 10Z" fill="black"/>
<path d="M13.5006 11.8128C14.7883 11.8128 15.8322 10.4908 15.8322 8.86012C15.8322 7.22942 14.7883 5.90747 13.5006 5.90747C12.2128 5.90747 11.1689 7.22942 11.1689 8.86012C11.1689 10.4908 12.2128 11.8128 13.5006 11.8128Z" fill="white"/>
<path fill-rule="evenodd" clip-rule="evenodd" d="M13.5005 6.12015C12.3742 6.12015 11.3815 7.29734 11.3815 8.86013C11.3815 10.4229 12.3742 11.6001 13.5005 11.6001C14.6267 11.6001 15.6195 10.4229 15.6195 8.86013C15.6195 7.29734 14.6267 6.12015 13.5005 6.12015ZM10.9561 8.86013C10.9561 7.16152 12.0512 5.69482 13.5005 5.69482C14.9497 5.69482 16.0448 7.16152 16.0448 8.86013C16.0448 10.5587 14.9497 12.0254 13.5005 12.0254C12.0512 12.0254 10.9561 10.5587 10.9561 8.86013Z" fill="black"/>
<path d="M14.5466 11.1585C15.3495 11.1585 16.0004 10.1294 16.0004 8.86C16.0004 7.59058 15.3495 6.56152 14.5466 6.56152C13.7437 6.56152 13.0928 7.59058 13.0928 8.86C13.0928 10.1294 13.7437 11.1585 14.5466 11.1585Z" fill="black"/>
<path d="M6.45031 11.8128C7.73805 11.8128 8.78197 10.4908 8.78197 8.86012C8.78197 7.22942 7.73805 5.90747 6.45031 5.90747C5.16257 5.90747 4.11865 7.22942 4.11865 8.86012C4.11865 10.4908 5.16257 11.8128 6.45031 11.8128Z" fill="white"/>
<path fill-rule="evenodd" clip-rule="evenodd" d="M6.45009 6.12015C5.32386 6.12015 4.33109 7.29734 4.33109 8.86013C4.33109 10.4229 5.32386 11.6001 6.45009 11.6001C7.57632 11.6001 8.56909 10.4229 8.56909 8.86013C8.56909 7.29734 7.57632 6.12015 6.45009 6.12015ZM3.90576 8.86013C3.90576 7.16152 5.00083 5.69482 6.45009 5.69482C7.89935 5.69482 8.99442 7.16152 8.99442 8.86013C8.99442 10.5587 7.89935 12.0254 6.45009 12.0254C5.00083 12.0254 3.90576 10.5587 3.90576 8.86013Z" fill="black"/>
<path d="M7.39421 11.1585C8.19712 11.1585 8.848 10.1294 8.848 8.86C8.848 7.59058 8.19712 6.56152 7.39421 6.56152C6.59131 6.56152 5.94043 7.59058 5.94043 8.86C5.94043 10.1294 6.59131 11.1585 7.39421 11.1585Z" fill="black"/>
<path fill-rule="evenodd" clip-rule="evenodd" d="M11.8683 12.8163C12.0032 12.9471 12.0066 13.1625 11.8758 13.2975L10.2221 15.0039C10.1583 15.0698 10.0705 15.1071 9.97873 15.1074C9.88696 15.1076 9.79898 15.0708 9.73475 15.0053L8.06746 13.3039C7.93592 13.1697 7.9381 12.9543 8.07232 12.8228C8.20653 12.6912 8.42197 12.6934 8.5535 12.8276L9.97641 14.2796L11.3871 12.8239C11.5179 12.6889 11.7333 12.6856 11.8683 12.8163Z" fill="black"/>
</svg>
