<svg width="20" height="20" viewBox="0 0 20 20" fill="none" xmlns="http://www.w3.org/2000/svg">
<path d="M16.854 7.94077C18.5773 7.1684 18.5263 5.90699 18.2153 5.22807C16.1039 1.89032 12.3349 0.537678 9.11791 1.13847C4.31038 1.93218 1.53904 6.22029 1.6153 10.3281C1.6882 14.2552 4.51229 16.8312 5.54478 17.3918C4.31792 15.7893 4.7485 12.8627 5.06436 11.7507C4.95583 11.1516 4.89647 9.94856 5.50726 8.38886C6.24163 6.51358 7.35266 5.49958 9.68412 5.49958C11.648 5.49958 12.9017 6.72318 13.2781 7.34523C13.7588 7.84079 15.3374 8.62052 16.854 7.94077Z" fill="url(#paint0_linear_1_175)"/>
<path d="M16.8539 7.94077C18.5772 7.16841 18.5262 5.90699 18.2152 5.22807C16.1038 1.89032 12.3348 0.537678 9.1178 1.13847C7.71502 1.37006 6.48561 1.89917 5.44971 2.6345C6.27729 2.32088 8.55889 1.85471 11.4949 2.94236C14.3269 3.99145 16.037 6.62899 16.5167 8.06839C16.6291 8.03337 16.7417 7.99107 16.8539 7.94077Z" fill="url(#paint1_linear_1_175)"/>
<path d="M16.8562 12.0338C18.5794 12.8062 18.5284 14.0676 18.2175 14.7465C16.1061 18.0843 12.337 19.4369 9.12008 18.8361C5.79709 18.2875 3.39767 16.0491 2.29172 13.452C1.78625 12.2649 1.58318 11.1237 1.62494 9.72938C1.84906 5.60367 4.4508 3.32752 5.45906 2.63098C4.93155 3.56339 3.97564 5.94878 4.02041 8.22386C4.0649 10.4853 4.66378 11.2443 5.05686 11.7425L5.06398 11.7516C5.15649 12.1551 5.25101 12.7106 5.45983 12.9591C6.30965 13.9701 8.49063 14.3416 9.69106 14.3416C11.7215 14.3416 13.075 13.7793 13.5318 13.0937C13.7561 12.7569 13.8055 12.3674 13.8055 12.2445C14.5212 11.8419 15.7065 11.5186 16.8562 12.0338Z" fill="url(#paint2_linear_1_175)"/>
<path d="M16.8539 12.0592C18.5772 12.8316 18.5262 14.093 18.2152 14.7719C16.1038 18.1097 12.3348 19.4623 9.1178 18.8615C7.71502 18.6299 6.48561 18.1008 5.44971 17.3655C6.27729 17.6791 8.55889 18.1453 11.4949 17.0576C14.3269 16.0086 16.037 13.371 16.5167 11.9316C16.6291 11.9666 16.7417 12.0089 16.8539 12.0592Z" fill="url(#paint3_linear_1_175)"/>
<path fill-rule="evenodd" clip-rule="evenodd" d="M8.45976 10.0774C8.45976 10.6866 7.95083 11.1435 7.39101 11.1435C6.7803 11.1435 6.32227 10.6866 6.32227 10.0774C6.32227 9.87437 6.37316 9.62055 6.52584 9.46826" fill="url(#paint4_linear_1_175)"/>
<path fill-rule="evenodd" clip-rule="evenodd" d="M10.4956 10.0774C10.4956 10.6866 11.0046 11.1435 11.5644 11.1435C12.1751 11.1435 12.6331 10.6866 12.6331 10.0774C12.6331 9.87437 12.5822 9.62055 12.4295 9.46826" fill="url(#paint5_linear_1_175)"/>
<defs>
<linearGradient id="paint0_linear_1_175" x1="2.68211" y1="12.1161" x2="12.7631" y2="3.84469" gradientUnits="userSpaceOnUse">
<stop stop-color="#0F53FB"/>
<stop offset="1" stop-color="#087AFF"/>
</linearGradient>
<linearGradient id="paint1_linear_1_175" x1="10.7455" y1="5.79604" x2="12.1193" y2="1.33731" gradientUnits="userSpaceOnUse">
<stop stop-color="#5DD2FF"/>
<stop offset="1" stop-color="#0F53FB"/>
</linearGradient>
<linearGradient id="paint2_linear_1_175" x1="1.83016" y1="5.7549" x2="13.9249" y2="15.7545" gradientUnits="userSpaceOnUse">
<stop stop-color="#BC55FF"/>
<stop offset="1" stop-color="#5402FF"/>
</linearGradient>
<linearGradient id="paint3_linear_1_175" x1="13.2405" y1="7.94402" x2="19.3883" y2="15.0669" gradientUnits="userSpaceOnUse">
<stop stop-color="#5402FF"/>
<stop offset="0.995152" stop-color="#BC55FF"/>
</linearGradient>
<linearGradient id="paint4_linear_1_175" x1="7.37015" y1="9.44566" x2="7.37015" y2="11.1163" gradientUnits="userSpaceOnUse">
<stop stop-color="#5402FF"/>
<stop offset="1" stop-color="#BC55FF"/>
</linearGradient>
<linearGradient id="paint5_linear_1_175" x1="11.5917" y1="9.43701" x2="11.5917" y2="13.5032" gradientUnits="userSpaceOnUse">
<stop stop-color="#0C68FE"/>
<stop offset="1" stop-color="#00F2FF"/>
</linearGradient>
</defs>
</svg>
