<svg width="20" height="20" viewBox="0 0 20 20" fill="none" xmlns="http://www.w3.org/2000/svg">
<path d="M15.7676 3.0829C14.2342 1.8004 12.3163 1.06727 10.3186 1L5.72852 13.1251L15.7676 3.0829Z" fill="url(#paint0_linear_1_142)"/>
<path d="M16.9118 4.2301L11.1465 9.99753L16.9112 15.7643C19.6961 12.4325 19.6963 7.56232 16.9118 4.2301Z" fill="url(#paint1_linear_1_142)"/>
<path d="M1.0177 9.4307C0.879737 11.6364 1.5481 13.8828 3.02513 15.6889L8.06204 2.38403L1.0177 9.4307Z" fill="url(#paint2_linear_1_142)"/>
<path d="M4.23486 16.9112C7.56597 19.6964 12.4346 19.6962 15.7653 16.9112L10.0004 11.1438L4.23486 16.9112Z" fill="url(#paint3_linear_1_142)"/>
<defs>
<linearGradient id="paint0_linear_1_142" x1="19.0002" y1="19.0008" x2="-0.324074" y2="2.55509" gradientUnits="userSpaceOnUse">
<stop stop-color="#3A72FF"/>
<stop offset="0.565883" stop-color="#7E3DFF"/>
<stop offset="1" stop-color="#C160FF"/>
</linearGradient>
<linearGradient id="paint1_linear_1_142" x1="19" y1="19.0008" x2="-0.324284" y2="2.55511" gradientUnits="userSpaceOnUse">
<stop stop-color="#3A72FF"/>
<stop offset="0.565883" stop-color="#7E3DFF"/>
<stop offset="1" stop-color="#C160FF"/>
</linearGradient>
<linearGradient id="paint2_linear_1_142" x1="19" y1="19.0008" x2="-0.324262" y2="2.55511" gradientUnits="userSpaceOnUse">
<stop stop-color="#3A72FF"/>
<stop offset="0.565883" stop-color="#7E3DFF"/>
<stop offset="1" stop-color="#C160FF"/>
</linearGradient>
<linearGradient id="paint3_linear_1_142" x1="18.9998" y1="19.0008" x2="-0.324485" y2="2.55509" gradientUnits="userSpaceOnUse">
<stop stop-color="#3A72FF"/>
<stop offset="0.565883" stop-color="#7E3DFF"/>
<stop offset="1" stop-color="#C160FF"/>
</linearGradient>
</defs>
</svg>
