<svg width="20" height="20" viewBox="0 0 20 20" fill="none" xmlns="http://www.w3.org/2000/svg">
<path fill-rule="evenodd" clip-rule="evenodd" d="M11.255 4.34155V11.1528H4.44385L11.255 4.34155Z" fill="url(#paint0_linear_1_117)"/>
<path fill-rule="evenodd" clip-rule="evenodd" d="M4.44385 11.1528H11.255V17.9641L4.44385 11.1528Z" fill="url(#paint1_linear_1_117)"/>
<path d="M9.36725 2H2.82066C2.68654 2 2.5579 2.05328 2.46306 2.14812C2.36822 2.24296 2.31494 2.37159 2.31494 2.50572V9.0523C2.31497 9.1023 2.32981 9.15116 2.3576 9.19272C2.38539 9.23427 2.42487 9.26666 2.47105 9.28579C2.51724 9.30492 2.56806 9.30993 2.6171 9.30018C2.66613 9.29043 2.71117 9.26637 2.74653 9.23104L9.54598 2.4309C9.58108 2.3955 9.60493 2.35052 9.61454 2.3016C9.62415 2.25269 9.61909 2.20202 9.59999 2.15598C9.58089 2.10993 9.54861 2.07056 9.5072 2.04281C9.46579 2.01505 9.4171 2.00016 9.36725 2Z" fill="#33408F"/>
<path d="M17.415 4.34082H11.2549V11.1527L17.6062 4.80151C17.6438 4.76368 17.6693 4.71558 17.6797 4.66324C17.69 4.61091 17.6846 4.55669 17.6641 4.50743C17.6437 4.45816 17.6091 4.41605 17.5648 4.38641C17.5204 4.35676 17.4683 4.34089 17.415 4.34082Z" fill="#F25148"/>
<path d="M17.415 17.9641H11.2549V11.1528L17.6062 17.5034C17.6438 17.5412 17.6693 17.5893 17.6797 17.6416C17.69 17.694 17.6846 17.7482 17.6641 17.7974C17.6437 17.8467 17.6091 17.8888 17.5648 17.9185C17.5204 17.9481 17.4683 17.964 17.415 17.9641Z" fill="#F0AD26"/>
<path d="M7.26541 17.9999H2.65163C2.60735 17.9999 2.56352 17.9912 2.52262 17.9742C2.48173 17.9573 2.44458 17.9324 2.41331 17.9011C2.38204 17.8697 2.35725 17.8325 2.34037 17.7916C2.32349 17.7507 2.31485 17.7068 2.31494 17.6625V13.0487C2.31503 13.0155 2.32498 12.983 2.34353 12.9554C2.36207 12.9277 2.38839 12.9062 2.41915 12.8936C2.44991 12.8809 2.48374 12.8776 2.51636 12.8841C2.54898 12.8907 2.57894 12.9067 2.60244 12.9303L7.38457 17.7124C7.40816 17.736 7.42423 17.766 7.43075 17.7987C7.43726 17.8313 7.43393 17.8652 7.42117 17.896C7.4084 17.9268 7.38679 17.9531 7.35906 17.9716C7.33134 17.9901 7.29874 18 7.26541 17.9999Z" fill="#42B8AE"/>
<defs>
<linearGradient id="paint0_linear_1_117" x1="4.44385" y1="11.1528" x2="11.255" y2="11.1528" gradientUnits="userSpaceOnUse">
<stop stop-color="#EE7F75"/>
<stop offset="1" stop-color="#D94940"/>
</linearGradient>
<linearGradient id="paint1_linear_1_117" x1="4.44385" y1="17.9641" x2="11.255" y2="17.9641" gradientUnits="userSpaceOnUse">
<stop stop-color="#F5D540"/>
<stop offset="1" stop-color="#DBA11A"/>
</linearGradient>
</defs>
</svg>
