<svg width="20" height="20" viewBox="0 0 20 20" fill="none" xmlns="http://www.w3.org/2000/svg">
<path d="M7.11779 1H6.95757C6.95757 1 3.20323 3.08278 3.09642 3.14152C2.98962 3.20027 3.0003 3.25367 3.0003 3.41388C3.0003 3.56876 3.0003 16.4125 3.0003 16.9412C3.0003 17.4699 3.4756 17.8171 3.81205 17.8171C4.14849 17.8171 6.64249 17.8171 6.81338 17.8171C6.98428 17.8171 7.07506 17.753 7.07506 17.5821C7.07506 17.4112 7.11779 1 7.11779 1Z" fill="url(#paint0_linear_9_2)"/>
<path d="M11.0965 9.99861C11.0965 9.99861 16.3248 5.98793 16.5011 5.83839C16.6773 5.68886 16.72 5.63011 16.72 5.44854C16.72 5.26696 16.7254 1.53398 16.7254 1.2723C16.7254 1.0747 16.4904 1.0213 16.202 1.2189C15.9136 1.41649 9.06716 6.36176 8.67731 6.65548C8.28745 6.94387 8.26075 7.09874 8.26075 7.47257C8.25541 7.85174 10.3435 10.287 11.0965 9.99861Z" fill="url(#paint1_linear_9_2)"/>
<path d="M8.25507 7.29102C8.25507 7.50997 8.22837 7.61678 8.51141 7.87847C8.79445 8.14015 16.1002 13.8811 16.3672 14.1108C16.6396 14.3404 16.6876 14.3885 16.6876 14.6769C16.6876 14.9652 16.6876 16.8344 16.6876 17.2883C16.6876 17.7423 16.2978 18.036 16.0094 18.036C15.721 18.036 15.7691 18.036 15.6516 18.036C15.5341 18.036 15.4166 18.004 15.2457 17.8705C15.0748 17.7369 8.8532 12.8932 8.58084 12.6956C8.30313 12.5033 8.25507 12.2256 8.25507 11.8731C8.25507 11.5207 8.25507 7.29102 8.25507 7.29102Z" fill="url(#paint2_linear_9_2)"/>
<defs>
<linearGradient id="paint0_linear_9_2" x1="5.05876" y1="0.899989" x2="5.05876" y2="17.7765" gradientUnits="userSpaceOnUse">
<stop offset="4.47534e-07" stop-color="#6DEBC2"/>
<stop offset="0.5354" stop-color="#68E2D5"/>
<stop offset="1" stop-color="#60D0E1"/>
</linearGradient>
<linearGradient id="paint1_linear_9_2" x1="17.6314" y1="2.30784" x2="9.27719" y2="8.83625" gradientUnits="userSpaceOnUse">
<stop offset="4.42206e-07" stop-color="#73F787"/>
<stop offset="1" stop-color="#55BB8D"/>
</linearGradient>
<linearGradient id="paint2_linear_9_2" x1="16.8146" y1="16.0129" x2="8.40508" y2="10.3144" gradientUnits="userSpaceOnUse">
<stop offset="4.42206e-07" stop-color="#75EDFC"/>
<stop offset="0.5317" stop-color="#B6FDE7"/>
<stop offset="1" stop-color="#6EEDBB"/>
</linearGradient>
</defs>
</svg>
