<svg width="20" height="20" viewBox="0 0 20 20" fill="none" xmlns="http://www.w3.org/2000/svg">
<path fill-rule="evenodd" clip-rule="evenodd" d="M18.2171 10.6987C17.7887 10.6987 17.4386 10.3539 17.4334 9.92374C17.3916 5.86765 14.0582 2.5674 10.0004 2.5674C9.56677 2.5674 9.21672 2.21735 9.21672 1.7837C9.21672 1.35005 9.56677 1 10.0004 1C14.9134 1 18.9503 4.99687 19.0008 9.90807C19.0043 10.3417 18.6577 10.6953 18.2258 10.7005C18.2241 10.6987 18.2206 10.6987 18.2171 10.6987ZM10.0004 15.3836C7.03281 15.3836 4.61901 12.9698 4.61901 10.0021C4.61901 7.03453 7.03281 4.62073 10.0004 4.62073C12.968 4.62073 15.3818 7.03453 15.3818 10.0021C15.3818 12.9698 12.968 15.3836 10.0004 15.3836ZM10.0004 6.86211C8.26932 6.86211 6.86214 8.26929 6.86214 10.0004C6.86214 11.7315 8.26932 13.1387 10.0004 13.1387C11.7315 13.1387 13.1387 11.7315 13.1387 10.0004C13.1387 8.27103 11.7315 6.86211 10.0004 6.86211ZM18.6172 12.1718C18.6172 12.6381 18.2392 13.0162 17.7728 13.0162C17.3064 13.0162 16.9283 12.6381 16.9283 12.1718C16.9283 11.7054 17.3064 11.3273 17.7728 11.3273C18.2392 11.3273 18.6172 11.7054 18.6172 12.1718ZM1.78373 9.29681C2.21215 9.29681 2.5622 9.64163 2.56743 10.0718C2.60923 14.1279 5.94257 17.4281 10.0004 17.4281C10.434 17.4281 10.7841 17.7782 10.7841 18.2118C10.7841 18.6455 10.434 18.9955 10.0004 18.9955C5.08746 18.9955 1.05053 14.9987 1.00003 10.0875C0.996539 9.65382 1.34311 9.30029 1.77502 9.29506C1.7785 9.2968 1.78199 9.29681 1.78373 9.29681ZM3.07208 7.82331C3.07208 8.28969 2.694 8.66777 2.22762 8.66777C1.76124 8.66777 1.38316 8.28969 1.38316 7.82331C1.38316 7.35692 1.76124 6.97884 2.22762 6.97884C2.694 6.97884 3.07208 7.35692 3.07208 7.82331Z" fill="url(#paint0_linear_1_124)"/>
<defs>
<linearGradient id="paint0_linear_1_124" x1="1.39847" y1="6.99336" x2="12.5895" y2="18.1843" gradientUnits="userSpaceOnUse">
<stop stop-color="#057ADA"/>
<stop offset="0.9963" stop-color="#00AB75"/>
</linearGradient>
</defs>
</svg>
