<svg width="20" height="20" viewBox="0 0 20 20" fill="none" xmlns="http://www.w3.org/2000/svg">
<path d="M8.72158 6.16035C8.88525 6.16035 9.04254 6.239 9.12012 6.28469C9.135 6.2932 9.15147 6.29798 9.16794 6.29798C9.18229 6.29798 9.19717 6.29426 9.20992 6.28682C9.32736 6.21721 9.55692 6.20021 9.76788 6.20021C9.96875 6.20021 10.1526 6.21562 10.2073 6.21562C10.2924 6.21562 10.4055 6.27619 10.4635 6.31126C10.4768 6.31923 10.4922 6.32349 10.507 6.32349C10.5193 6.32349 10.532 6.32083 10.5437 6.31605C10.675 6.25919 10.7876 6.23581 10.9019 6.23581C10.9874 6.23581 11.0746 6.24909 11.1707 6.27141C11.3296 6.30808 11.4726 6.31446 11.5502 6.31446C11.5709 6.31446 11.5868 6.31392 11.5974 6.31339C11.6065 6.31286 11.6155 6.31074 11.624 6.30755C11.7473 6.25919 11.8631 6.24112 11.9684 6.24112C12.1092 6.24112 12.2309 6.27407 12.327 6.31286C12.4966 6.38141 12.529 6.5286 12.5837 6.65242C12.639 6.77623 12.6847 6.84956 12.7399 6.96434C12.7798 7.04724 12.7474 7.19974 12.7266 7.27786C12.7192 7.30549 12.7256 7.33419 12.7442 7.35597C12.8776 7.51167 13.0418 8.09779 13.0837 8.32682C13.1151 8.49686 13.0843 8.62811 13.0614 8.69347C13.0513 8.72217 13.0566 8.75352 13.0763 8.7769C13.1076 8.81463 13.1528 8.87892 13.1757 8.95544C13.2123 9.07926 13.3361 9.11592 13.3866 9.18926C13.4371 9.26259 13.5561 9.55645 13.5976 9.67548C13.639 9.79451 13.5152 10.0469 13.5381 10.1388C13.5609 10.2308 13.85 10.3822 14.0014 10.7675C14.0625 10.9232 14.0758 11.1538 14.0785 11.2526C14.079 11.2771 14.0896 11.2994 14.1082 11.3148C14.2167 11.4057 14.3633 11.8775 14.46 12.1762C14.5482 12.4488 14.5822 12.7442 14.5907 12.833C14.5923 12.8505 14.5998 12.8675 14.6115 12.8808C14.9399 13.2661 15.01 13.5891 14.9696 13.8415C14.9282 14.0982 14.6163 14.2592 14.3824 14.2959C14.3665 14.2985 14.3511 14.2996 14.3357 14.2996C14.2023 14.2996 14.0849 14.213 14.0158 14.1487C13.9988 14.1327 13.9775 14.1253 13.9563 14.1253C13.9345 14.1253 13.9127 14.1333 13.8957 14.1492C13.7597 14.2752 13.5051 14.2959 13.3186 14.2959C13.2697 14.2959 13.2256 14.2943 13.1895 14.2932C13.0529 14.2879 12.9275 14.2061 12.8632 14.1556C12.8478 14.1434 12.8292 14.1375 12.8106 14.1375C12.7952 14.1375 12.7798 14.1418 12.766 14.1497C12.708 14.1838 12.6055 14.2364 12.4827 14.2688C12.42 14.2853 12.3355 14.2932 12.2452 14.2932C12.0598 14.2932 11.8504 14.2587 11.7579 14.1907C11.6548 14.1152 11.6315 13.8926 11.6261 13.7858C11.6245 13.7549 11.6075 13.7268 11.5794 13.714C11.4417 13.6492 11.3217 13.3803 11.2744 13.2613C11.2611 13.2283 11.2297 13.2065 11.1941 13.2065C11.1936 13.2065 11.1931 13.2065 11.1925 13.2065C11.1835 13.2065 11.1739 13.2065 11.1633 13.2065C11.1096 13.2065 11.0374 13.2044 10.9635 13.1948C10.8625 13.1821 10.7727 13.1284 10.7265 13.096C10.7122 13.0859 10.6952 13.0811 10.6781 13.0811C10.6691 13.0811 10.6601 13.0827 10.651 13.0854C10.5772 13.1093 10.49 13.1778 10.2775 13.1778C10.2435 13.1778 10.2063 13.1763 10.1654 13.172C10.0214 13.1582 9.9358 13.1401 9.88904 13.112C9.87469 13.1035 9.85875 13.0987 9.84281 13.0987C9.82421 13.0987 9.80614 13.1045 9.79073 13.1167C9.7546 13.1454 9.6988 13.18 9.62387 13.1991C9.48146 13.2358 9.28007 13.5525 9.16954 13.9191C9.05954 14.2863 8.97665 14.2497 8.6695 14.2629C8.65409 14.2635 8.63868 14.264 8.62434 14.264C8.4511 14.264 8.34589 14.2172 8.29222 14.1832C8.2784 14.1742 8.26246 14.1699 8.24705 14.1699C8.23005 14.1699 8.21304 14.1747 8.1987 14.1848C8.13971 14.2247 8.0345 14.2842 7.91759 14.29C7.91228 14.29 7.9075 14.2906 7.90218 14.2906C7.79218 14.2906 7.68803 14.2305 7.62692 14.1869C7.61204 14.1763 7.59504 14.171 7.5775 14.171C7.55944 14.171 7.54084 14.1769 7.52596 14.1885C7.45475 14.2433 7.34582 14.264 7.20978 14.2688C7.20447 14.2688 7.19916 14.2688 7.19384 14.2688C7.0881 14.2688 6.99085 14.2342 6.93612 14.2098C6.92549 14.205 6.91433 14.2029 6.90317 14.2029C6.88511 14.2029 6.86651 14.2087 6.85057 14.2194C6.78042 14.2656 6.70284 14.264 6.64226 14.2683C6.63961 14.2683 6.63695 14.2688 6.63482 14.2688C6.61251 14.2688 6.59391 14.2613 6.5785 14.2512C6.56256 14.2406 6.54396 14.2348 6.52536 14.2348C6.51207 14.2348 6.49879 14.238 6.4871 14.2443C6.46372 14.2571 6.42918 14.2683 6.37923 14.2683C6.35478 14.2683 6.32662 14.2656 6.29474 14.2592C6.09866 14.2215 5.86803 13.9393 5.90257 13.7188C5.92861 13.5514 6.06837 13.4117 6.13373 13.3543C6.15339 13.3373 6.16402 13.3123 6.16295 13.2868C6.15711 13.1024 6.34575 12.9674 6.43715 12.9127C6.46584 12.8957 6.48179 12.8643 6.47913 12.8314C6.46212 12.6358 6.52748 12.478 6.52748 12.478C6.54502 12.3324 6.66671 12.2261 6.72516 12.1831C6.74535 12.1682 6.75757 12.1459 6.76023 12.1214C6.80593 11.7282 7.12264 11.3839 7.20766 11.2973C7.22148 11.2835 7.22998 11.2643 7.23157 11.2452C7.27833 10.7898 7.43722 10.6389 7.50896 10.5932C7.53181 10.5783 7.54615 10.5539 7.54881 10.5268C7.59132 10.0544 7.83098 9.78706 7.92503 9.69939C7.94576 9.68026 7.95638 9.65209 7.95213 9.62446C7.92769 9.46823 7.98933 9.12389 8.02387 8.95226C8.0345 8.89912 7.99517 8.8497 7.94097 8.84811C7.78209 8.84439 7.48717 8.83588 7.37558 8.8226C7.21935 8.804 7.06365 8.29972 7.06844 8.12064C7.07216 7.9846 7.14177 7.87779 7.17524 7.83422C7.1864 7.81934 7.19225 7.80234 7.19331 7.78374C7.19969 7.6493 7.24486 7.48829 7.26718 7.41602C7.27461 7.39211 7.27143 7.36607 7.25814 7.34481C7.22626 7.29327 7.16887 7.18646 7.15612 7.0653C7.13752 6.89579 7.10882 6.58918 7.25123 6.40798C7.40268 6.21508 7.57804 6.16142 7.72045 6.16142C7.8246 6.16142 8.01696 6.24272 8.11261 6.28576C8.12377 6.29107 8.13546 6.2932 8.14715 6.2932C8.17 6.2932 8.19285 6.28363 8.21039 6.26716C8.32995 6.15451 8.50212 6.16514 8.71148 6.16142C8.7152 6.16035 8.71839 6.16035 8.72158 6.16035ZM8.72158 5.78838C8.71573 5.78838 8.70989 5.78838 8.70458 5.78838C8.68385 5.78891 8.66366 5.78891 8.644 5.78944C8.48299 5.79157 8.29275 5.7937 8.11739 5.88244C7.90537 5.79954 7.79165 5.78838 7.72151 5.78838C7.42712 5.78838 7.15665 5.92654 6.96003 6.17736C6.72038 6.48237 6.76555 6.9027 6.78733 7.10409C6.80062 7.22578 6.83835 7.33472 6.87979 7.4224C6.85907 7.50157 6.84047 7.59138 6.82984 7.68118C6.76927 7.77896 6.70284 7.92721 6.69806 8.10948C6.69381 8.28005 6.75598 8.50749 6.81603 8.66371C6.86226 8.78434 7.00361 9.15153 7.3336 9.19032C7.38886 9.1967 7.4792 9.20254 7.60354 9.20785C7.58335 9.35133 7.57697 9.45335 7.57591 9.52668C7.44147 9.68238 7.25814 9.96083 7.19437 10.3711C7.06259 10.5007 6.93028 10.7239 6.87501 11.1086C6.7241 11.2765 6.48976 11.5863 6.41058 11.962C6.3128 12.0545 6.20334 12.1953 6.16667 12.3829C6.14595 12.4445 6.11566 12.554 6.10716 12.6895C5.94243 12.8218 5.83721 12.9834 5.8032 13.1561C5.69533 13.2692 5.56886 13.4435 5.53539 13.6603C5.46577 14.1067 5.85528 14.552 6.22459 14.6232C6.27826 14.6333 6.33034 14.6386 6.37976 14.6386C6.42812 14.6386 6.47435 14.6338 6.51845 14.6243C6.55671 14.6338 6.5955 14.6392 6.63536 14.6392C6.64705 14.6392 6.65874 14.6386 6.67043 14.6381C6.67627 14.6376 6.68265 14.6376 6.68903 14.637C6.74163 14.6338 6.824 14.6291 6.91646 14.5972C6.99617 14.6211 7.09129 14.6397 7.19437 14.6397C7.20394 14.6397 7.21297 14.6397 7.22254 14.6392C7.31872 14.636 7.44466 14.6253 7.56794 14.5812C7.66306 14.6264 7.77677 14.6615 7.90271 14.6615C7.91387 14.6615 7.92556 14.6609 7.93672 14.6604C8.05894 14.654 8.16894 14.619 8.26034 14.5759C8.35492 14.6094 8.47555 14.6344 8.62487 14.6344C8.64506 14.6344 8.66578 14.6338 8.68704 14.6328C8.7152 14.6317 8.74124 14.6307 8.76569 14.6301C8.91766 14.6253 9.07548 14.6206 9.22746 14.5143C9.39644 14.3968 9.47084 14.2093 9.52663 14.0238C9.59996 13.7788 9.71102 13.6003 9.76469 13.5429C9.80189 13.5307 9.83856 13.5158 9.87363 13.4988C9.94962 13.5185 10.0346 13.5302 10.1298 13.5392C10.1808 13.544 10.2307 13.5466 10.2775 13.5466C10.4475 13.5466 10.5708 13.5137 10.6569 13.4823C10.7313 13.5179 10.8195 13.5488 10.9173 13.561C10.946 13.5647 10.9752 13.5674 11.0055 13.5695C11.0995 13.7608 11.1915 13.8745 11.2669 13.9436C11.3009 14.1976 11.3918 14.3798 11.5374 14.4872C11.7526 14.645 12.1039 14.662 12.2447 14.662C12.3318 14.662 12.4604 14.6556 12.5763 14.6253C12.6554 14.6046 12.7282 14.5775 12.7915 14.5499C12.8983 14.6083 13.0285 14.6562 13.1746 14.6615C13.2145 14.6631 13.2628 14.6647 13.3175 14.6647C13.5726 14.6647 13.7788 14.6285 13.9414 14.5541C14.0673 14.6291 14.2007 14.6684 14.3346 14.6684C14.3697 14.6684 14.4048 14.6657 14.4393 14.6604C14.8219 14.6004 15.2656 14.3363 15.3363 13.8979C15.3995 13.5057 15.2699 13.105 14.951 12.706C14.9324 12.5545 14.8926 12.3027 14.8139 12.0593L14.7948 11.9998C14.6497 11.5507 14.5551 11.292 14.4457 11.1368C14.4356 10.9784 14.4095 10.7871 14.3474 10.6293C14.2294 10.3291 14.0509 10.142 13.9308 10.0241C13.9664 9.88697 14.0068 9.71852 13.9488 9.55166C13.9472 9.54741 13.7953 9.12549 13.6927 8.97617C13.6401 8.89965 13.5779 8.85183 13.5322 8.81729C13.528 8.8141 13.5232 8.81038 13.5184 8.80666C13.4998 8.75405 13.4759 8.70623 13.4515 8.66425C13.4716 8.55425 13.4786 8.41609 13.4493 8.25667C13.4477 8.24923 13.3154 7.59775 13.1146 7.24119C13.1454 7.06477 13.1321 6.9197 13.0747 6.80067C13.0487 6.74647 13.0253 6.70237 13.003 6.65932C12.9748 6.60565 12.9504 6.55942 12.9233 6.49885C12.9163 6.4829 12.9094 6.46643 12.9031 6.44996C12.8515 6.32136 12.7553 6.08277 12.4663 5.96533C12.3042 5.89944 12.1368 5.86649 11.9678 5.86649C11.8233 5.86649 11.6798 5.89094 11.5395 5.93983C11.4805 5.93929 11.3727 5.93398 11.2542 5.90635C11.1208 5.87553 11.0087 5.86118 10.9013 5.86118C10.7743 5.86118 10.6532 5.88084 10.5267 5.92229C10.4119 5.86862 10.3046 5.84205 10.2068 5.84205C10.1962 5.84205 10.1595 5.83993 10.1292 5.83833C10.0415 5.83355 9.90923 5.82664 9.76735 5.82664C9.51494 5.82664 9.32577 5.84843 9.1791 5.89519C9.0537 5.83833 8.89428 5.78838 8.72158 5.78838Z" fill="#C00F26"/>
<path d="M7.25176 6.40692C7.32456 6.31446 7.40268 6.25388 7.48026 6.21615L9.40919 1.57289L1 9.94064C1 13.9319 3.39443 16.0511 3.39443 16.0511L7.1508 7.00898C7.13433 6.83362 7.1237 6.57006 7.25176 6.40692Z" fill="#C00F26"/>
<path d="M8.21092 6.2661C8.33048 6.15344 8.50265 6.16407 8.71201 6.16035C8.7152 6.16035 8.71839 6.16035 8.72211 6.16035C8.88578 6.16035 9.04307 6.239 9.12065 6.28469C9.13553 6.2932 9.152 6.29798 9.16848 6.29798C9.18282 6.29798 9.1977 6.29426 9.21045 6.28682C9.32789 6.21721 9.55745 6.20021 9.76841 6.20021C9.96927 6.20021 10.1531 6.21561 10.2079 6.21561C10.2929 6.21561 10.4061 6.27619 10.464 6.31126C10.4773 6.31923 10.4927 6.32349 10.5076 6.32349C10.5198 6.32349 10.5325 6.32083 10.5442 6.31605C10.6755 6.25919 10.7881 6.23581 10.9024 6.23581C10.9879 6.23581 11.0751 6.24909 11.1713 6.27141C11.3302 6.30808 11.4731 6.31446 11.5507 6.31446C11.5714 6.31446 11.5873 6.31392 11.598 6.31339C11.607 6.31286 11.616 6.31074 11.6245 6.30755C11.7478 6.25919 11.8637 6.24112 11.9689 6.24112C12.1097 6.24112 12.2314 6.27407 12.3276 6.31286C12.4971 6.38141 12.5295 6.5286 12.5842 6.65242C12.6188 6.73 12.6496 6.78792 12.6815 6.8485L16.043 3.50076L10.2897 1.07764L8.12589 6.29001C8.13333 6.29214 8.14077 6.2932 8.14768 6.2932C8.17053 6.29214 8.19285 6.2831 8.21092 6.2661Z" fill="#C00F26"/>
<path d="M6.13426 13.3537C6.15392 13.3367 6.16455 13.3118 6.16348 13.2862C6.15764 13.1019 6.34628 12.9669 6.43768 12.9122C6.46638 12.8951 6.48232 12.8638 6.47966 12.8308C6.46266 12.6353 6.52802 12.4775 6.52802 12.4775C6.54555 12.3319 6.66724 12.2256 6.72569 12.1826C6.74588 12.1677 6.75811 12.1454 6.76076 12.1209C6.80646 11.7277 7.12317 11.3834 7.20819 11.2967C7.22201 11.2829 7.23051 11.2638 7.2321 11.2447C7.27887 10.7893 7.43775 10.6383 7.50949 10.5926C7.53234 10.5778 7.54668 10.5533 7.54934 10.5262C7.59185 10.0538 7.83151 9.78653 7.92556 9.69885C7.94629 9.67972 7.95691 9.65156 7.95266 9.62393C7.92822 9.4677 7.98986 9.12336 8.0244 8.95173C8.03503 8.89859 7.99571 8.84917 7.94151 8.84758C7.78262 8.84386 7.4877 8.83535 7.37611 8.82207C7.3049 8.81356 7.23423 8.7041 7.1779 8.57019L4.51884 14.975L5.99982 13.5004C6.04817 13.434 6.10078 13.383 6.13426 13.3537Z" fill="#C00F26"/>
<path d="M13.1895 14.2911C13.0529 14.2858 12.9275 14.204 12.8632 14.1535C12.8478 14.1413 12.8292 14.1354 12.8106 14.1354C12.7952 14.1354 12.7798 14.1397 12.766 14.1476C12.708 14.1816 12.6055 14.2342 12.4827 14.2667C12.42 14.2831 12.3355 14.2911 12.2452 14.2911C12.0598 14.2911 11.8504 14.2566 11.7579 14.1885C11.6548 14.1131 11.6315 13.8904 11.6261 13.7836C11.6245 13.7528 11.6075 13.7246 11.5794 13.7119C11.4418 13.6471 11.3217 13.3782 11.2744 13.2591C11.2611 13.2262 11.2297 13.2044 11.1941 13.2044C11.1936 13.2044 11.1931 13.2044 11.1925 13.2044C11.1835 13.2044 11.1739 13.2044 11.1633 13.2044C11.1096 13.2044 11.0374 13.2023 10.9635 13.1927C10.8625 13.18 10.7727 13.1263 10.7265 13.0939C10.7122 13.0838 10.6952 13.079 10.6781 13.079C10.6691 13.079 10.6601 13.0806 10.651 13.0833C10.5772 13.1072 10.49 13.1757 10.2775 13.1757C10.2435 13.1757 10.2063 13.1741 10.1654 13.1699C10.0214 13.1561 9.9358 13.138 9.88904 13.1098C9.87469 13.1013 9.85875 13.0965 9.84281 13.0965C9.82421 13.0965 9.80614 13.1024 9.79126 13.1146C9.75513 13.1433 9.69933 13.1778 9.62441 13.197C9.482 13.2336 9.2806 13.5503 9.17007 13.917C9.06007 14.2842 8.97718 14.2475 8.67004 14.2608C8.65463 14.2613 8.63922 14.2619 8.62487 14.2619C8.45164 14.2619 8.34642 14.2151 8.29275 14.1811C8.27894 14.1721 8.26299 14.1678 8.24758 14.1678C8.23058 14.1678 8.21357 14.1726 8.19923 14.1827C8.14024 14.2226 8.03503 14.2821 7.91759 14.2879C7.91228 14.2879 7.9075 14.2884 7.90218 14.2884C7.79219 14.2884 7.68803 14.2284 7.62692 14.1848C7.61204 14.1742 7.59504 14.1689 7.57751 14.1689C7.55944 14.1689 7.54137 14.1747 7.52596 14.1864C7.45475 14.2412 7.34582 14.2619 7.20979 14.2667C7.20447 14.2667 7.19916 14.2667 7.19384 14.2667C7.0881 14.2667 6.99085 14.2321 6.93612 14.2077C6.92549 14.2029 6.91433 14.2008 6.90317 14.2008C6.88511 14.2008 6.86651 14.2066 6.85057 14.2172C6.78042 14.2635 6.70284 14.2619 6.64226 14.2661C6.63961 14.2661 6.63695 14.2667 6.63482 14.2667C6.61251 14.2667 6.59391 14.2592 6.5785 14.2491C6.56256 14.2385 6.54396 14.2326 6.52536 14.2326C6.51207 14.2326 6.49879 14.2358 6.4871 14.2422C6.46372 14.255 6.42918 14.2661 6.37923 14.2661C6.35478 14.2661 6.32662 14.2635 6.29474 14.2571C6.25382 14.2491 6.20561 14.2291 6.16416 14.2025L3.94123 16.4283L9.96928 18.9227L16.0457 16.4225L13.8423 14.1899C13.6998 14.2776 13.4807 14.2927 13.3175 14.2927C13.2697 14.2938 13.2256 14.2927 13.1895 14.2911Z" fill="#C00F26"/>
<path d="M18.9837 9.43795C18.7765 5.93026 16.6026 3.84351 16.6026 3.84351L12.8584 7.56587C12.9589 7.80712 13.0534 8.15996 13.0843 8.32575C13.1156 8.4958 13.0848 8.62705 13.0619 8.69241C13.0519 8.72111 13.0572 8.75246 13.0768 8.77584C13.1082 8.81356 13.1533 8.87787 13.1762 8.95438C13.2129 9.0782 13.3367 9.11486 13.3872 9.18819C13.4376 9.26152 13.5567 9.55538 13.5981 9.67441C13.6396 9.79344 13.5158 10.0459 13.5386 10.1378C13.5615 10.2297 13.8505 10.3812 14.002 10.7664C14.0631 10.9221 14.0764 11.1527 14.079 11.2516C14.0796 11.276 14.0902 11.2983 14.1088 11.3137C14.2172 11.4046 14.3638 11.8765 14.4606 12.1751C14.5488 12.4477 14.5828 12.7432 14.5913 12.8319C14.5929 12.8494 14.6003 12.8665 14.612 12.8797C14.9404 13.265 15.0105 13.5881 14.9702 13.8405C14.9457 13.9925 14.8267 14.1104 14.6848 14.1891L16.5733 16.0861C16.5723 16.0856 19.2313 13.6359 18.9837 9.43795Z" fill="#C00F26"/>
<path d="M10.0803 11.1703C10.1303 11.1373 10.2398 11.0342 10.2796 10.7558C10.2849 10.717 10.3301 10.6979 10.3609 10.7218C10.4029 10.7542 10.456 10.7914 10.5001 10.8095C10.5187 10.8174 10.5315 10.835 10.5315 10.8551C10.5325 10.945 10.54 11.1804 10.591 11.3005C10.6011 11.3249 10.5905 11.3525 10.5671 11.3648C10.5283 11.3849 10.4741 11.4184 10.4326 11.4641C10.4172 11.4811 10.3928 11.4854 10.3726 11.4747C10.3157 11.4455 10.2036 11.3924 10.1106 11.3764C10.0883 11.3727 10.0724 11.3541 10.0697 11.3318L10.058 11.217C10.0564 11.1984 10.0649 11.1804 10.0803 11.1703Z" fill="#C00F26"/>
</svg>
