<svg width="20" height="20" viewBox="0 0 20 20" fill="none" xmlns="http://www.w3.org/2000/svg">
<path d="M8.72158 6.16084C8.88525 6.16084 9.04254 6.23948 9.12012 6.28518C9.135 6.29368 9.15147 6.29847 9.16794 6.29847C9.18229 6.29847 9.19717 6.29475 9.20992 6.28731C9.32736 6.2177 9.55692 6.20069 9.76788 6.20069C9.96875 6.20069 10.1526 6.2161 10.2073 6.2161C10.2924 6.2161 10.4055 6.27668 10.4635 6.31175C10.4768 6.31972 10.4922 6.32398 10.507 6.32398C10.5193 6.32398 10.532 6.32132 10.5437 6.31654C10.675 6.25968 10.7876 6.2363 10.9019 6.2363C10.9874 6.2363 11.0746 6.24958 11.1707 6.2719C11.3296 6.30856 11.4726 6.31494 11.5502 6.31494C11.5709 6.31494 11.5868 6.31441 11.5974 6.31388C11.6065 6.31335 11.6155 6.31122 11.624 6.30804C11.7473 6.25968 11.8631 6.24161 11.9684 6.24161C12.1092 6.24161 12.2309 6.27456 12.327 6.31335C12.4966 6.3819 12.529 6.52909 12.5837 6.6529C12.639 6.77672 12.6847 6.85005 12.7399 6.96483C12.7798 7.04772 12.7474 7.20023 12.7266 7.27834C12.7192 7.30598 12.7256 7.33467 12.7442 7.35646C12.8776 7.51216 13.0418 8.09828 13.0837 8.3273C13.1151 8.49735 13.0843 8.6286 13.0614 8.69396C13.0513 8.72265 13.0566 8.75401 13.0763 8.77739C13.1076 8.81512 13.1528 8.87941 13.1757 8.95593C13.2123 9.07975 13.3361 9.11641 13.3866 9.18974C13.4371 9.26308 13.5561 9.55693 13.5976 9.67596C13.639 9.795 13.5152 10.0474 13.5381 10.1393C13.5609 10.2313 13.85 10.3827 14.0014 10.768C14.0625 10.9237 14.0758 11.1543 14.0785 11.2531C14.079 11.2776 14.0896 11.2999 14.1082 11.3153C14.2167 11.4062 14.3633 11.878 14.46 12.1767C14.5482 12.4493 14.5822 12.7447 14.5907 12.8335C14.5923 12.851 14.5998 12.868 14.6115 12.8813C14.9399 13.2665 15.01 13.5896 14.9696 13.842C14.9282 14.0987 14.6163 14.2597 14.3824 14.2964C14.3665 14.299 14.3511 14.3001 14.3357 14.3001C14.2023 14.3001 14.0849 14.2135 14.0158 14.1492C13.9988 14.1332 13.9775 14.1258 13.9563 14.1258C13.9345 14.1258 13.9127 14.1338 13.8957 14.1497C13.7597 14.2756 13.5051 14.2964 13.3186 14.2964C13.2697 14.2964 13.2256 14.2948 13.1895 14.2937C13.0529 14.2884 12.9275 14.2066 12.8632 14.1561C12.8478 14.1439 12.8292 14.138 12.8106 14.138C12.7952 14.138 12.7798 14.1423 12.766 14.1502C12.708 14.1842 12.6055 14.2369 12.4827 14.2693C12.42 14.2857 12.3355 14.2937 12.2452 14.2937C12.0598 14.2937 11.8504 14.2592 11.7579 14.1912C11.6548 14.1157 11.6315 13.893 11.6261 13.7862C11.6245 13.7554 11.6075 13.7273 11.5794 13.7145C11.4417 13.6497 11.3217 13.3808 11.2744 13.2618C11.2611 13.2288 11.2297 13.207 11.1941 13.207C11.1936 13.207 11.1931 13.207 11.1925 13.207C11.1835 13.207 11.1739 13.207 11.1633 13.207C11.1096 13.207 11.0374 13.2049 10.9635 13.1953C10.8625 13.1826 10.7727 13.1289 10.7265 13.0965C10.7122 13.0864 10.6952 13.0816 10.6781 13.0816C10.6691 13.0816 10.6601 13.0832 10.651 13.0859C10.5772 13.1098 10.49 13.1783 10.2775 13.1783C10.2435 13.1783 10.2063 13.1767 10.1654 13.1725C10.0214 13.1587 9.9358 13.1406 9.88904 13.1124C9.87469 13.1039 9.85875 13.0992 9.84281 13.0992C9.82421 13.0992 9.80614 13.105 9.79073 13.1172C9.7546 13.1459 9.6988 13.1805 9.62387 13.1996C9.48146 13.2363 9.28007 13.553 9.16954 13.9196C9.05954 14.2868 8.97665 14.2501 8.6695 14.2634C8.65409 14.264 8.63868 14.2645 8.62434 14.2645C8.4511 14.2645 8.34589 14.2177 8.29222 14.1837C8.2784 14.1747 8.26246 14.1704 8.24705 14.1704C8.23005 14.1704 8.21304 14.1752 8.1987 14.1853C8.13971 14.2252 8.0345 14.2847 7.91759 14.2905C7.91228 14.2905 7.9075 14.2911 7.90218 14.2911C7.79218 14.2911 7.68803 14.231 7.62692 14.1874C7.61204 14.1768 7.59504 14.1715 7.5775 14.1715C7.55944 14.1715 7.54084 14.1773 7.52596 14.189C7.45475 14.2438 7.34582 14.2645 7.20978 14.2693C7.20447 14.2693 7.19916 14.2693 7.19384 14.2693C7.0881 14.2693 6.99085 14.2347 6.93612 14.2103C6.92549 14.2055 6.91433 14.2034 6.90317 14.2034C6.88511 14.2034 6.86651 14.2092 6.85057 14.2198C6.78042 14.2661 6.70284 14.2645 6.64226 14.2687C6.63961 14.2687 6.63695 14.2693 6.63482 14.2693C6.61251 14.2693 6.59391 14.2618 6.5785 14.2517C6.56256 14.2411 6.54396 14.2353 6.52536 14.2353C6.51207 14.2353 6.49879 14.2385 6.4871 14.2448C6.46372 14.2576 6.42918 14.2687 6.37923 14.2687C6.35478 14.2687 6.32662 14.2661 6.29474 14.2597C6.09866 14.222 5.86803 13.9398 5.90257 13.7193C5.92861 13.5519 6.06837 13.4121 6.13373 13.3548C6.15339 13.3377 6.16402 13.3128 6.16295 13.2873C6.15711 13.1029 6.34575 12.9679 6.43715 12.9132C6.46584 12.8962 6.48179 12.8648 6.47913 12.8319C6.46212 12.6363 6.52748 12.4785 6.52748 12.4785C6.54502 12.3329 6.66671 12.2266 6.72516 12.1836C6.74535 12.1687 6.75757 12.1464 6.76023 12.1219C6.80593 11.7287 7.12264 11.3844 7.20766 11.2978C7.22148 11.2839 7.22998 11.2648 7.23157 11.2457C7.27833 10.7903 7.43722 10.6394 7.50896 10.5937C7.53181 10.5788 7.54615 10.5543 7.54881 10.5272C7.59132 10.0548 7.83098 9.78755 7.92503 9.69987C7.94576 9.68074 7.95638 9.65258 7.95213 9.62495C7.92769 9.46872 7.98933 9.12438 8.02387 8.95274C8.0345 8.89961 7.99517 8.85019 7.94097 8.84859C7.78209 8.84488 7.48717 8.83637 7.37558 8.82309C7.21935 8.80449 7.06365 8.3002 7.06844 8.12113C7.07216 7.98509 7.14177 7.87828 7.17524 7.83471C7.1864 7.81983 7.19225 7.80282 7.19331 7.78423C7.19969 7.64979 7.24486 7.48878 7.26718 7.41651C7.27461 7.39259 7.27143 7.36656 7.25814 7.3453C7.22626 7.29376 7.16887 7.18695 7.15612 7.06579C7.13752 6.89628 7.10882 6.58967 7.25123 6.40846C7.40268 6.21557 7.57804 6.1619 7.72045 6.1619C7.8246 6.1619 8.01696 6.2432 8.11261 6.28625C8.12377 6.29156 8.13546 6.29369 8.14715 6.29369C8.17 6.29369 8.19285 6.28412 8.21039 6.26765C8.32995 6.155 8.50212 6.16562 8.71148 6.1619C8.7152 6.16084 8.71839 6.16084 8.72158 6.16084ZM8.72158 5.78887C8.71573 5.78887 8.70989 5.78887 8.70458 5.78887C8.68385 5.7894 8.66366 5.7894 8.644 5.78993C8.48299 5.79206 8.29275 5.79418 8.11739 5.88293C7.90537 5.80003 7.79165 5.78887 7.72151 5.78887C7.42712 5.78887 7.15665 5.92703 6.96003 6.17785C6.72038 6.48286 6.76555 6.90319 6.78733 7.10458C6.80062 7.22627 6.83835 7.3352 6.87979 7.42288C6.85907 7.50206 6.84047 7.59186 6.82984 7.68167C6.76927 7.77944 6.70284 7.9277 6.69806 8.10997C6.69381 8.28054 6.75598 8.50797 6.81603 8.6642C6.86226 8.78483 7.00361 9.15202 7.3336 9.19081C7.38886 9.19719 7.4792 9.20303 7.60354 9.20834C7.58335 9.35182 7.57697 9.45384 7.57591 9.52717C7.44147 9.68287 7.25814 9.96132 7.19437 10.3715C7.06259 10.5012 6.93028 10.7244 6.87501 11.1091C6.7241 11.277 6.48976 11.5868 6.41058 11.9625C6.3128 12.055 6.20334 12.1958 6.16667 12.3834C6.14595 12.445 6.11566 12.5545 6.10716 12.69C5.94243 12.8223 5.83721 12.9838 5.8032 13.1565C5.69533 13.2697 5.56886 13.444 5.53539 13.6608C5.46577 14.1072 5.85528 14.5525 6.22459 14.6237C6.27826 14.6338 6.33034 14.6391 6.37976 14.6391C6.42812 14.6391 6.47435 14.6343 6.51845 14.6248C6.55671 14.6343 6.5955 14.6396 6.63536 14.6396C6.64705 14.6396 6.65874 14.6391 6.67043 14.6386C6.67627 14.6381 6.68265 14.6381 6.68903 14.6375C6.74163 14.6343 6.824 14.6296 6.91646 14.5977C6.99617 14.6216 7.09129 14.6402 7.19437 14.6402C7.20394 14.6402 7.21297 14.6402 7.22254 14.6396C7.31872 14.6365 7.44466 14.6258 7.56794 14.5817C7.66306 14.6269 7.77677 14.662 7.90271 14.662C7.91387 14.662 7.92556 14.6614 7.93672 14.6609C8.05894 14.6545 8.16894 14.6195 8.26034 14.5764C8.35492 14.6099 8.47555 14.6349 8.62487 14.6349C8.64506 14.6349 8.66578 14.6343 8.68704 14.6333C8.7152 14.6322 8.74124 14.6311 8.76569 14.6306C8.91766 14.6258 9.07548 14.621 9.22746 14.5148C9.39644 14.3973 9.47084 14.2098 9.52663 14.0243C9.59996 13.7793 9.71102 13.6008 9.76469 13.5434C9.80189 13.5312 9.83856 13.5163 9.87363 13.4993C9.94962 13.519 10.0346 13.5306 10.1298 13.5397C10.1808 13.5445 10.2307 13.5471 10.2775 13.5471C10.4475 13.5471 10.5708 13.5142 10.6569 13.4828C10.7313 13.5184 10.8195 13.5492 10.9173 13.5615C10.946 13.5652 10.9752 13.5678 11.0055 13.57C11.0995 13.7613 11.1915 13.875 11.2669 13.9441C11.3009 14.1981 11.3918 14.3803 11.5374 14.4877C11.7526 14.6455 12.1039 14.6625 12.2447 14.6625C12.3318 14.6625 12.4604 14.6561 12.5763 14.6258C12.6554 14.6051 12.7282 14.578 12.7915 14.5504C12.8983 14.6088 13.0285 14.6567 13.1746 14.662C13.2145 14.6636 13.2628 14.6652 13.3175 14.6652C13.5726 14.6652 13.7788 14.629 13.9414 14.5546C14.0673 14.6296 14.2007 14.6689 14.3346 14.6689C14.3697 14.6689 14.4048 14.6662 14.4393 14.6609C14.8219 14.6009 15.2656 14.3368 15.3363 13.8984C15.3995 13.5062 15.2699 13.1055 14.951 12.7065C14.9324 12.555 14.8926 12.3031 14.8139 12.0598L14.7948 12.0002C14.6497 11.5512 14.5551 11.2924 14.4457 11.1373C14.4356 10.9789 14.4095 10.7876 14.3474 10.6298C14.2294 10.3296 14.0509 10.1425 13.9308 10.0246C13.9664 9.88746 14.0068 9.71901 13.9488 9.55215C13.9472 9.5479 13.7953 9.12598 13.6927 8.97666C13.6401 8.90014 13.5779 8.85231 13.5322 8.81777C13.528 8.81459 13.5232 8.81086 13.5184 8.80715C13.4998 8.75454 13.4759 8.70671 13.4515 8.66473C13.4716 8.55474 13.4786 8.41658 13.4493 8.25716C13.4477 8.24972 13.3154 7.59824 13.1146 7.24168C13.1454 7.06526 13.1321 6.92019 13.0747 6.80116C13.0487 6.74696 13.0253 6.70286 13.003 6.65981C12.9748 6.60614 12.9504 6.55991 12.9233 6.49933C12.9163 6.48339 12.9094 6.46692 12.9031 6.45045C12.8515 6.32185 12.7553 6.08326 12.4663 5.96582C12.3042 5.89993 12.1368 5.86698 11.9678 5.86698C11.8233 5.86698 11.6798 5.89143 11.5395 5.94031C11.4805 5.93978 11.3727 5.93447 11.2542 5.90684C11.1208 5.87602 11.0087 5.86167 10.9013 5.86167C10.7743 5.86167 10.6532 5.88133 10.5267 5.92278C10.4119 5.86911 10.3046 5.84254 10.2068 5.84254C10.1962 5.84254 10.1595 5.84041 10.1292 5.83882C10.0415 5.83404 9.90923 5.82713 9.76735 5.82713C9.51494 5.82713 9.32577 5.84892 9.1791 5.89568C9.0537 5.83882 8.89428 5.78887 8.72158 5.78887Z" fill="#C00F26"/>
<path d="M7.25176 6.40741C7.32456 6.31495 7.40268 6.25437 7.48026 6.21664L9.40919 1.57338L1 9.94113C1 13.9324 3.39443 16.0515 3.39443 16.0515L7.1508 7.00947C7.13433 6.83411 7.1237 6.57054 7.25176 6.40741Z" fill="#C00F26"/>
<path d="M8.21092 6.26659C8.33048 6.15393 8.50265 6.16456 8.71201 6.16084C8.7152 6.16084 8.71839 6.16084 8.72211 6.16084C8.88578 6.16084 9.04307 6.23948 9.12065 6.28518C9.13553 6.29368 9.152 6.29847 9.16848 6.29847C9.18282 6.29847 9.1977 6.29475 9.21045 6.28731C9.32789 6.2177 9.55745 6.20069 9.76841 6.20069C9.96927 6.20069 10.1531 6.2161 10.2079 6.2161C10.2929 6.2161 10.4061 6.27668 10.464 6.31175C10.4773 6.31972 10.4927 6.32398 10.5076 6.32398C10.5198 6.32398 10.5325 6.32132 10.5442 6.31654C10.6755 6.25968 10.7881 6.2363 10.9024 6.2363C10.9879 6.2363 11.0751 6.24958 11.1713 6.2719C11.3302 6.30856 11.4731 6.31494 11.5507 6.31494C11.5714 6.31494 11.5873 6.31441 11.598 6.31388C11.607 6.31335 11.616 6.31122 11.6245 6.30804C11.7478 6.25968 11.8637 6.24161 11.9689 6.24161C12.1097 6.24161 12.2314 6.27456 12.3276 6.31335C12.4971 6.3819 12.5295 6.52909 12.5842 6.6529C12.6188 6.73049 12.6496 6.78841 12.6815 6.84899L16.043 3.50125L10.2897 1.07812L8.12589 6.2905C8.13333 6.29262 8.14077 6.29369 8.14768 6.29369C8.17053 6.29262 8.19285 6.28359 8.21092 6.26659Z" fill="#C00F26"/>
<path d="M6.13426 13.3542C6.15392 13.3372 6.16455 13.3122 6.16348 13.2867C6.15764 13.1023 6.34628 12.9674 6.43768 12.9126C6.46638 12.8956 6.48232 12.8643 6.47966 12.8313C6.46266 12.6358 6.52802 12.478 6.52802 12.478C6.54555 12.3324 6.66724 12.2261 6.72569 12.183C6.74588 12.1682 6.75811 12.1458 6.76076 12.1214C6.80646 11.7282 7.12317 11.3838 7.20819 11.2972C7.22201 11.2834 7.23051 11.2643 7.2321 11.2451C7.27887 10.7898 7.43775 10.6388 7.50949 10.5931C7.53234 10.5783 7.54668 10.5538 7.54934 10.5267C7.59185 10.0543 7.83151 9.78702 7.92556 9.69934C7.94629 9.68021 7.95691 9.65205 7.95266 9.62442C7.92822 9.46819 7.98986 9.12385 8.0244 8.95221C8.03503 8.89907 7.99571 8.84966 7.94151 8.84806C7.78262 8.84434 7.4877 8.83584 7.37611 8.82255C7.3049 8.81405 7.23423 8.70459 7.1779 8.57068L4.51884 14.9755L5.99982 13.5009C6.04817 13.4345 6.10078 13.3834 6.13426 13.3542Z" fill="#C00F26"/>
<path d="M13.1895 14.2916C13.0529 14.2863 12.9275 14.2044 12.8632 14.154C12.8478 14.1417 12.8292 14.1359 12.8106 14.1359C12.7952 14.1359 12.7798 14.1401 12.766 14.1481C12.708 14.1821 12.6055 14.2347 12.4827 14.2671C12.42 14.2836 12.3355 14.2916 12.2452 14.2916C12.0598 14.2916 11.8504 14.2571 11.7579 14.189C11.6548 14.1136 11.6315 13.8909 11.6261 13.7841C11.6245 13.7533 11.6075 13.7251 11.5794 13.7124C11.4418 13.6475 11.3217 13.3787 11.2744 13.2596C11.2611 13.2267 11.2297 13.2049 11.1941 13.2049C11.1936 13.2049 11.1931 13.2049 11.1925 13.2049C11.1835 13.2049 11.1739 13.2049 11.1633 13.2049C11.1096 13.2049 11.0374 13.2028 10.9635 13.1932C10.8625 13.1805 10.7727 13.1268 10.7265 13.0944C10.7122 13.0843 10.6952 13.0795 10.6781 13.0795C10.6691 13.0795 10.6601 13.0811 10.651 13.0837C10.5772 13.1077 10.49 13.1762 10.2775 13.1762C10.2435 13.1762 10.2063 13.1746 10.1654 13.1704C10.0214 13.1565 9.9358 13.1385 9.88904 13.1103C9.87469 13.1018 9.85875 13.097 9.84281 13.097C9.82421 13.097 9.80614 13.1029 9.79126 13.1151C9.75513 13.1438 9.69933 13.1783 9.62441 13.1975C9.482 13.2341 9.2806 13.5508 9.17007 13.9175C9.06007 14.2847 8.97718 14.248 8.67004 14.2613C8.65463 14.2618 8.63922 14.2624 8.62487 14.2624C8.45164 14.2624 8.34642 14.2156 8.29275 14.1816C8.27894 14.1726 8.26299 14.1683 8.24758 14.1683C8.23058 14.1683 8.21357 14.1731 8.19923 14.1832C8.14024 14.223 8.03503 14.2826 7.91759 14.2884C7.91228 14.2884 7.9075 14.2889 7.90218 14.2889C7.79219 14.2889 7.68803 14.2289 7.62692 14.1853C7.61204 14.1747 7.59504 14.1694 7.57751 14.1694C7.55944 14.1694 7.54137 14.1752 7.52596 14.1869C7.45475 14.2416 7.34582 14.2624 7.20979 14.2671C7.20447 14.2671 7.19916 14.2671 7.19384 14.2671C7.0881 14.2671 6.99085 14.2326 6.93612 14.2082C6.92549 14.2034 6.91433 14.2013 6.90317 14.2013C6.88511 14.2013 6.86651 14.2071 6.85057 14.2177C6.78042 14.264 6.70284 14.2624 6.64226 14.2666C6.63961 14.2666 6.63695 14.2671 6.63482 14.2671C6.61251 14.2671 6.59391 14.2597 6.5785 14.2496C6.56256 14.239 6.54396 14.2331 6.52536 14.2331C6.51207 14.2331 6.49879 14.2363 6.4871 14.2427C6.46372 14.2555 6.42918 14.2666 6.37923 14.2666C6.35478 14.2666 6.32662 14.264 6.29474 14.2576C6.25382 14.2496 6.20561 14.2296 6.16416 14.203L3.94123 16.4288L9.96928 18.9232L16.0457 16.423L13.8423 14.1904C13.6998 14.2781 13.4807 14.2932 13.3175 14.2932C13.2697 14.2942 13.2256 14.2932 13.1895 14.2916Z" fill="#C00F26"/>
<path d="M18.9837 9.43843C18.7765 5.93075 16.6026 3.844 16.6026 3.844L12.8584 7.56636C12.9589 7.80761 13.0534 8.16045 13.0843 8.32624C13.1156 8.49628 13.0848 8.62754 13.0619 8.6929C13.0519 8.72159 13.0572 8.75294 13.0768 8.77632C13.1082 8.81405 13.1533 8.87835 13.1762 8.95487C13.2129 9.07869 13.3367 9.11535 13.3872 9.18868C13.4376 9.26201 13.5567 9.55587 13.5981 9.6749C13.6396 9.79393 13.5158 10.0463 13.5386 10.1383C13.5615 10.2302 13.8505 10.3816 14.002 10.7669C14.0631 10.9226 14.0764 11.1532 14.079 11.2521C14.0796 11.2765 14.0902 11.2988 14.1088 11.3142C14.2172 11.4051 14.3638 11.877 14.4606 12.1756C14.5488 12.4482 14.5828 12.7437 14.5913 12.8324C14.5929 12.8499 14.6003 12.8669 14.612 12.8802C14.9404 13.2655 15.0105 13.5886 14.9702 13.841C14.9457 13.9929 14.8267 14.1109 14.6848 14.1896L16.5733 16.0866C16.5723 16.0861 19.2313 13.6364 18.9837 9.43843Z" fill="#C00F26"/>
<path d="M10.0803 11.1707C10.1303 11.1378 10.2398 11.0347 10.2796 10.7563C10.2849 10.7175 10.3301 10.6983 10.3609 10.7223C10.4029 10.7547 10.456 10.7919 10.5001 10.8099C10.5187 10.8179 10.5315 10.8354 10.5315 10.8556C10.5325 10.9454 10.54 11.1808 10.591 11.3009C10.6011 11.3254 10.5905 11.353 10.5671 11.3652C10.5283 11.3854 10.4741 11.4189 10.4326 11.4646C10.4172 11.4816 10.3928 11.4859 10.3726 11.4752C10.3157 11.446 10.2036 11.3929 10.1106 11.3769C10.0883 11.3732 10.0724 11.3546 10.0697 11.3323L10.058 11.2175C10.0564 11.1989 10.0649 11.1808 10.0803 11.1707Z" fill="#C00F26"/>
</svg>
