<svg width="42" height="46" viewBox="0 0 42 46" fill="none" xmlns="http://www.w3.org/2000/svg">
<path d="M39.8955 32.9393V13.0606C39.8955 12.4604 39.5753 11.9058 39.0555 11.6057L21.8401 1.66636C21.3203 1.36626 20.6798 1.36626 20.1601 1.66636L2.94461 11.6057C2.42482 11.9058 2.10461 12.4604 2.10461 13.0606V32.9393C2.10461 33.5395 2.42482 34.0941 2.94461 34.3942L20.1601 44.3336C20.6798 44.6337 21.3203 44.6337 21.8401 44.3336L39.0555 34.3942C39.5753 34.0941 39.8955 33.5395 39.8955 32.9393Z" fill="#F7F7F9"/>
<path d="M38.5094 9.89951L23.5906 1.28618C21.9876 0.360663 20.0124 0.360663 18.4094 1.28618L3.49063 9.89951C1.88755 10.8251 0.900024 12.5356 0.900024 14.3866V31.6133C0.900024 33.4644 1.88755 35.1748 3.49063 36.1004L18.4094 44.7137C20.0124 45.6393 21.9876 45.6393 23.5906 44.7137L38.5094 36.1004C40.1124 35.1748 41.1 33.4644 41.1 31.6133V14.3866C41.1 12.5356 40.1124 10.825 38.5094 9.89951ZM39.8955 31.4752C39.8955 32.9814 39.0919 34.3732 37.7875 35.1263L23.108 43.6015C21.8036 44.3546 20.1965 44.3546 18.892 43.6015L4.21253 35.1263C2.90813 34.3732 2.10454 32.9814 2.10454 31.4752V14.5248C2.10454 13.0185 2.90813 11.6268 4.21253 10.8737L18.892 2.39848C20.1964 1.64536 21.8036 1.64536 23.108 2.39848L37.7875 10.8737C39.0919 11.6268 39.8955 13.0186 39.8955 14.5248V31.4752Z" fill="url(#paint0_linear_23_462)"/>
<path opacity="0.1" d="M21.0001 2.61662C21.6019 2.61662 22.1954 2.77567 22.7166 3.07655L37.396 11.5517C38.4548 12.1631 39.1125 13.3023 39.1125 14.5248V31.4752C39.1125 32.6978 38.4548 33.837 37.396 34.4483L22.7166 42.9235C22.1954 43.2244 21.6019 43.3834 21.0001 43.3834C20.3983 43.3834 19.8047 43.2244 19.2836 42.9235L4.60409 34.4483C3.54529 33.837 2.88757 32.6978 2.88757 31.4752V14.5248C2.88757 13.3022 3.54529 12.163 4.60409 11.5517L19.2836 3.07653C19.8048 2.77564 20.3983 2.61662 21.0001 2.61662ZM21.0001 1.83362C20.2722 1.83362 19.5443 2.0219 18.8921 2.39846L4.21261 10.8736C2.90821 11.6268 2.10461 13.0186 2.10461 14.5248V31.4752C2.10461 32.9814 2.90821 34.3732 4.21261 35.1263L18.8921 43.6015C19.5443 43.9781 20.2722 44.1664 21.0001 44.1664C21.728 44.1664 22.4558 43.9781 23.1081 43.6015L37.7875 35.1263C39.0919 34.3732 39.8955 32.9814 39.8955 31.4752V14.5248C39.8955 13.0186 39.0919 11.6268 37.7875 10.8737L23.1081 2.39848C22.4558 2.02192 21.7279 1.83362 21.0001 1.83362Z" fill="url(#paint1_linear_23_462)"/>
<path opacity="0.65" d="M21.0001 2.61662C21.6019 2.61662 22.1954 2.77567 22.7166 3.07655L37.396 11.5517C38.4548 12.1631 39.1125 13.3023 39.1125 14.5248V31.4752C39.1125 32.6978 38.4548 33.837 37.396 34.4483L22.7166 42.9235C22.1954 43.2244 21.6019 43.3834 21.0001 43.3834C20.3983 43.3834 19.8047 43.2244 19.2836 42.9235L4.60409 34.4483C3.54529 33.837 2.88757 32.6978 2.88757 31.4752V14.5248C2.88757 13.3022 3.54529 12.163 4.60409 11.5517L19.2836 3.07653C19.8048 2.77564 20.3983 2.61662 21.0001 2.61662ZM21.0001 1.83362C20.2722 1.83362 19.5443 2.0219 18.8921 2.39846L4.21261 10.8736C2.90821 11.6268 2.10461 13.0186 2.10461 14.5248V31.4752C2.10461 32.9814 2.90821 34.3732 4.21261 35.1263L18.8921 43.6015C19.5443 43.9781 20.2722 44.1664 21.0001 44.1664C21.728 44.1664 22.4558 43.9781 23.1081 43.6015L37.7875 35.1263C39.0919 34.3732 39.8955 32.9814 39.8955 31.4752V14.5248C39.8955 13.0186 39.0919 11.6268 37.7875 10.8737L23.1081 2.39848C22.4558 2.02192 21.7279 1.83362 21.0001 1.83362Z" fill="url(#paint2_linear_23_462)"/>
<path style="mix-blend-mode:soft-light" opacity="0.8" d="M38.5094 9.89951L23.5906 1.28618C21.9876 0.360663 20.0124 0.360663 18.4094 1.28618L3.49063 9.89951C1.88755 10.8251 0.900024 12.5356 0.900024 14.3866V31.6133C0.900024 32.5387 1.14686 33.429 1.59406 34.2037L40.4057 11.7958C39.9584 11.0212 39.3108 10.3623 38.5094 9.89951Z" fill="url(#paint3_linear_23_462)"/>
<path opacity="0.4" d="M24.4385 19.2015L29.9734 22.3971C30.0264 22.4277 30.059 22.4842 30.059 22.5454V28.9366C30.059 28.9978 30.0264 29.0543 29.9734 29.0849L24.6097 32.1817C24.4955 32.2476 24.3529 32.1652 24.3529 32.0334V25.741L18.9035 22.5948C18.7894 22.5289 18.7894 22.3642 18.9035 22.2983L24.2673 19.2015C24.3202 19.1709 24.3855 19.1709 24.4385 19.2015ZM24.0961 32.1817L18.6467 29.0355V11.955C18.6467 11.8232 18.5041 11.7409 18.3899 11.8068L13.0261 14.9036C12.9732 14.9341 12.9406 14.9907 12.9406 15.0518V32.2311C12.9406 32.2923 12.9732 32.3488 13.0261 32.3794L18.5611 35.575C18.6141 35.6056 18.6793 35.6056 18.7323 35.575L24.0961 32.4782C24.2102 32.4123 24.2102 32.2476 24.0961 32.1817Z" fill="#CBCBE3"/>
<path d="M24.3529 25.0224V31.3148C24.3529 31.4466 24.4955 31.5289 24.6097 31.4631L29.9735 28.3663C30.0264 28.3357 30.0591 28.2792 30.0591 28.218V21.8268C30.0591 21.7962 30.0509 21.7668 30.0361 21.7411L24.3529 25.0224Z" fill="url(#paint4_linear_23_462)"/>
<path d="M29.9734 21.6785L24.4384 18.4829C24.3855 18.4523 24.3202 18.4523 24.2672 18.4829L18.9035 21.5797C18.7893 21.6455 18.7893 21.8103 18.9035 21.8762L20.8108 22.9774L24.3528 25.0224L30.0361 21.7411C30.0213 21.7155 29.9999 21.6938 29.9734 21.6785Z" fill="url(#paint5_linear_23_462)"/>
<path d="M18.6467 28.3168V21.7279V11.2364C18.6467 11.1046 18.5041 11.0223 18.39 11.0881L13.0261 14.185C12.9732 14.2155 12.9406 14.272 12.9406 14.3332V31.5125C12.9406 31.5431 12.9487 31.5725 12.9635 31.598L18.6467 28.3168Z" fill="url(#paint6_linear_23_462)"/>
<path d="M24.0961 31.463L18.6467 28.3168L12.9635 31.5981C12.9782 31.6236 12.9996 31.6453 13.026 31.6606L18.5612 34.8564C18.6141 34.8869 18.6794 34.8869 18.7323 34.8564L24.0961 31.7596C24.2102 31.6937 24.2102 31.5289 24.0961 31.463Z" fill="url(#paint7_linear_23_462)"/>
<defs>
<linearGradient id="paint0_linear_23_462" x1="40.6536" y1="42.6536" x2="-3.31181" y2="-1.31185" gradientUnits="userSpaceOnUse">
<stop stop-color="#5E55A0"/>
<stop offset="0.5112" stop-color="#B3B7EC"/>
<stop offset="0.8468" stop-color="#5E55A0"/>
</linearGradient>
<linearGradient id="paint1_linear_23_462" x1="21.0001" y1="44.1664" x2="21.0001" y2="1.88532" gradientUnits="userSpaceOnUse">
<stop stop-opacity="0"/>
<stop offset="1" stop-opacity="0.9"/>
</linearGradient>
<linearGradient id="paint2_linear_23_462" x1="21.0001" y1="44.1664" x2="21.0001" y2="1.88532" gradientUnits="userSpaceOnUse">
<stop stop-color="#CBBBFF" stop-opacity="0.95"/>
<stop offset="1" stop-color="#D6C7FF" stop-opacity="0"/>
</linearGradient>
<linearGradient id="paint3_linear_23_462" x1="-33.1374" y1="4.53923" x2="31.8525" y2="23.1932" gradientUnits="userSpaceOnUse">
<stop stop-color="white"/>
<stop offset="0.5374" stop-color="white" stop-opacity="0.4693"/>
<stop offset="1" stop-color="white" stop-opacity="0"/>
</linearGradient>
<linearGradient id="paint4_linear_23_462" x1="25.8939" y1="24.2167" x2="28.6732" y2="29.2038" gradientUnits="userSpaceOnUse">
<stop stop-color="#FF00FF"/>
<stop offset="1" stop-color="#9D00FF"/>
</linearGradient>
<linearGradient id="paint5_linear_23_462" x1="23.0468" y1="19.1826" x2="25.7563" y2="24.2351" gradientUnits="userSpaceOnUse">
<stop stop-color="#FF00FF"/>
<stop offset="1" stop-color="#9D00FF"/>
</linearGradient>
<linearGradient id="paint6_linear_23_462" x1="20.2277" y1="27.8106" x2="11.2195" y2="14.7335" gradientUnits="userSpaceOnUse">
<stop stop-color="#00FFBE"/>
<stop offset="1" stop-color="#603CF7"/>
</linearGradient>
<linearGradient id="paint7_linear_23_462" x1="19.9964" y1="34.1298" x2="17.2125" y2="29.1483" gradientUnits="userSpaceOnUse">
<stop stop-color="#00FFBE"/>
<stop offset="1" stop-color="#508CFF"/>
</linearGradient>
</defs>
</svg>
