<svg width="20" height="20" viewBox="0 0 20 20" fill="none" xmlns="http://www.w3.org/2000/svg">
<path d="M9.99914 1H4.22406C2.63473 1 1.34613 2.34021 1.34613 3.99318V9.99955C1.34613 15.013 5.2871 19.0691 10.1233 18.9991C14.7846 18.9318 18.5883 14.9758 18.653 10.1278C18.7186 5.09881 14.8187 1 9.99914 1ZM9.95455 15.6122C7.88703 15.6122 6.02057 14.3375 5.19968 12.3636C4.99861 11.8798 5.21192 11.3179 5.677 11.1079C6.14209 10.8979 6.68236 11.1206 6.8843 11.6043C7.41495 12.8782 8.61962 13.7019 9.95455 13.7019C11.7983 13.7019 13.2984 12.1417 13.2984 10.2241C13.2984 8.30657 11.7983 6.74633 9.95455 6.74633C8.59951 6.74633 7.38697 7.58737 6.86594 8.88848C6.69809 9.30854 6.26797 9.54676 5.83873 9.45765C5.40949 9.36855 5.1009 8.97667 5.1009 8.52115V4.59146C5.1009 4.0641 5.51178 3.63677 6.01883 3.63677C6.52587 3.63677 6.93675 4.0641 6.93675 4.59146V5.84347C7.79698 5.20246 8.84517 4.83877 9.95455 4.83877C12.8106 4.83877 15.1343 7.2555 15.1343 10.226C15.1343 13.1964 12.8097 15.6122 9.95455 15.6122ZM8.58902 10.225C8.58902 9.44129 9.2001 8.80483 9.95455 8.80483C10.709 8.80483 11.3201 9.44038 11.3201 10.225C11.3201 11.0088 10.709 11.6453 9.95455 11.6453C9.2001 11.6453 8.58902 11.0088 8.58902 10.225Z" fill="url(#paint0_linear_5020_26253)"/>
<defs>
<linearGradient id="paint0_linear_5020_26253" x1="2.18797" y1="1.87673" x2="16.6568" y2="15.7884" gradientUnits="userSpaceOnUse">
<stop offset="0.0776" stop-color="#8D62E6"/>
<stop offset="0.5517" stop-color="#1AA8F9"/>
<stop offset="0.9428" stop-color="#41DDDC"/>
<stop offset="1" stop-color="#41DDDB"/>
</linearGradient>
</defs>
</svg>
