<svg width="20" height="20" viewBox="0 0 20 20" fill="none" xmlns="http://www.w3.org/2000/svg">
<path d="M18.7297 12.1771C17.5277 16.9986 12.6443 19.9329 7.82229 18.7306C3.00227 17.5285 0.0680127 12.6449 1.27056 7.82378C2.47204 3.00177 7.35541 0.067296 12.176 1.26931C16.9977 2.47133 19.9317 7.35553 18.7296 12.1772L18.7297 12.1771H18.7297Z" fill="#F7931A"/>
<path d="M13.9812 8.71116C14.1603 7.51345 13.2485 6.86964 12.0016 6.44016L12.4061 4.81776L11.4185 4.57168L11.0247 6.15136C10.7651 6.0866 10.4985 6.02559 10.2335 5.9651L10.6301 4.37499L9.6431 4.12891L9.23838 5.75077C9.02353 5.70185 8.8125 5.65351 8.60777 5.60257L8.60891 5.59746L7.24699 5.25737L6.98427 6.31219C6.98427 6.31219 7.71699 6.48015 7.70155 6.49048C8.10147 6.5903 8.17379 6.85504 8.16178 7.06488L7.70102 8.91317C7.72856 8.92016 7.76428 8.93028 7.8037 8.94612C7.77075 8.93793 7.73569 8.929 7.6993 8.92029L7.05347 11.5095C7.0046 11.631 6.88054 11.8133 6.60093 11.7441C6.61083 11.7584 5.88313 11.565 5.88313 11.565L5.3928 12.6954L6.67801 13.0158C6.9171 13.0758 7.15139 13.1385 7.38213 13.1975L6.97345 14.8385L7.95991 15.0846L8.36463 13.461C8.63412 13.5342 8.89564 13.6017 9.15167 13.6653L8.74832 15.2812L9.73596 15.5273L10.1446 13.8894C11.8287 14.2081 13.095 14.0796 13.628 12.5563C14.0574 11.33 13.6066 10.6226 12.7206 10.1613C13.3659 10.0125 13.852 9.58803 13.9816 8.71129L13.9812 8.71107L13.9812 8.71116ZM11.7248 11.8753C11.4195 13.1017 9.35469 12.4387 8.68523 12.2725L9.22756 10.0984C9.89697 10.2655 12.0437 10.5963 11.7248 11.8753H11.7248ZM12.0302 8.69339C11.7518 9.80891 10.0332 9.24218 9.47567 9.10321L9.96736 7.13148C10.5249 7.27045 12.3202 7.52982 12.0303 8.69339H12.0302Z" fill="white"/>
</svg>
