<svg width="20" height="20" viewBox="0 0 20 20" fill="none" xmlns="http://www.w3.org/2000/svg">
<path d="M18.7297 12.1771C17.5277 16.9986 12.6444 19.9329 7.82231 18.7306C3.00229 17.5285 0.0680317 12.6449 1.27057 7.82378C2.47206 3.00177 7.35543 0.067296 12.176 1.26931C16.9977 2.47133 19.9318 7.35553 18.7296 12.1772L18.7297 12.1771H18.7297Z" fill="#F7931A"/>
<path d="M13.9812 8.71018C14.1604 7.51248 13.2485 6.86867 12.0016 6.43918L12.4061 4.81679L11.4185 4.5707L11.0247 6.15038C10.7651 6.08562 10.4985 6.02461 10.2335 5.96412L10.6301 4.37402L9.64312 4.12793L9.2384 5.7498C9.02355 5.70088 8.81252 5.65253 8.60779 5.60159L8.60893 5.59649L7.24701 5.25639L6.98429 6.31121C6.98429 6.31121 7.71701 6.47917 7.70157 6.48951C8.10149 6.58932 8.17381 6.85406 8.1618 7.0639L7.70104 8.91219C7.72858 8.91918 7.7643 8.9293 7.80371 8.94514C7.77077 8.93696 7.7357 8.92803 7.69932 8.91932L7.05349 11.5085C7.00461 11.63 6.88056 11.8124 6.60095 11.7431C6.61085 11.7575 5.88315 11.564 5.88315 11.564L5.39282 12.6945L6.67802 13.0148C6.91712 13.0748 7.15141 13.1375 7.38215 13.1965L6.97347 14.8375L7.95993 15.0836L8.36465 13.46C8.63414 13.5332 8.89566 13.6007 9.15169 13.6643L8.74834 15.2802L9.73598 15.5263L10.1446 13.8884C11.8287 14.2071 13.095 14.0786 13.628 12.5554C14.0575 11.329 13.6066 10.6216 12.7206 10.1603C13.3659 10.0115 13.852 9.58706 13.9816 8.71031L13.9813 8.71009L13.9812 8.71018ZM11.7248 11.8743C11.4196 13.1007 9.35471 12.4377 8.68525 12.2715L9.22758 10.0974C9.89699 10.2646 12.0438 10.5953 11.7248 11.8743H11.7248ZM12.0302 8.69241C11.7518 9.80794 10.0332 9.2412 9.47569 9.10223L9.96738 7.1305C10.5249 7.26947 12.3202 7.52884 12.0303 8.69241H12.0302Z" fill="white"/>
</svg>
