<svg width="20" height="20" viewBox="0 0 20 20" fill="none" xmlns="http://www.w3.org/2000/svg">
<path d="M10 1.14893L12.1934 3.38842L6.67031 8.89494L4.47695 6.70814L10 1.14893Z" fill="#F0B90B"/>
<path d="M13.3297 4.46866L15.5231 6.70816L6.67031 15.5344L4.47695 13.3476L13.3297 4.46866Z" fill="#F0B90B"/>
<path d="M3.34062 7.78837L5.53399 10.0279L3.34062 12.2147L1.14726 10.0279L3.34062 7.78837Z" fill="#F0B90B"/>
<path d="M16.6594 7.78837L18.8528 10.0279L10 18.8541L7.80664 16.6673L16.6594 7.78837Z" fill="#F0B90B"/>
<path fill-rule="evenodd" clip-rule="evenodd" d="M10.0005 1L12.3406 3.3893L6.67031 9.04264L4.32917 6.7085L10.0005 1ZM4.62472 6.70779L6.67031 8.74726L12.0461 3.38755L9.99947 1.29786L4.62472 6.70779ZM13.3304 4.31987L15.6703 6.70904L6.67031 15.6821L4.32903 13.3478L13.3304 4.31987ZM4.62486 13.3474L6.67031 15.3867L15.3758 6.70728L13.329 4.61746L4.62486 13.3474ZM3.34062 7.6389L5.68124 10.0287L3.34062 12.3624L1 10.0287L3.34062 7.6389ZM16.66 7.63958L19 10.0287L10 19.0018L7.65873 16.6675L16.66 7.63958ZM7.95455 16.6671L10 18.7064L18.7055 10.027L16.6587 7.93717L7.95455 16.6671ZM1.29451 10.027L3.34062 12.067L5.38673 10.027L3.34062 7.93785L1.29451 10.027Z" fill="#F0B90B"/>
</svg>
