<svg width="20" height="20" viewBox="0 0 20 20" fill="none" xmlns="http://www.w3.org/2000/svg">
<path d="M16.2402 7.94077C17.9635 7.1684 17.9125 5.90699 17.6015 5.22807C15.4901 1.89032 11.7211 0.537681 8.50414 1.13847C3.69661 1.93218 0.925274 6.22029 1.00153 10.3281C1.07444 14.2552 3.89852 16.8312 4.93102 17.3918C3.70415 15.7893 4.13473 12.8627 4.4506 11.7507C4.34206 11.1516 4.28271 9.94856 4.89349 8.38886C5.62786 6.51358 6.73889 5.49958 9.07035 5.49958C11.0343 5.49958 12.2879 6.72318 12.6643 7.34523C13.145 7.84079 14.7236 8.62052 16.2402 7.94077Z" fill="url(#paint0_linear_367_1837)"/>
<path d="M16.2401 7.94077C17.9634 7.16841 17.9124 5.90699 17.6014 5.22807C15.49 1.89032 11.721 0.537681 8.50402 1.13847C7.10125 1.37006 5.87183 1.89917 4.83594 2.6345C5.66351 2.32088 7.94512 1.85471 10.8812 2.94236C13.7131 3.99145 15.4232 6.62899 15.9029 8.06839C16.0153 8.03337 16.1279 7.99107 16.2401 7.94077Z" fill="url(#paint1_linear_367_1837)"/>
<path d="M16.2424 12.0338C17.9657 12.8062 17.9146 14.0676 17.6037 14.7465C15.4923 18.0843 11.7232 19.4369 8.50628 18.8361C5.18329 18.2875 2.78386 16.0491 1.67791 13.452C1.17244 12.2649 0.969374 11.1237 1.01114 9.72941C1.23525 5.6037 3.837 3.32755 4.84525 2.63101C4.31775 3.56342 3.36184 5.94881 3.4066 8.22389C3.4511 10.4853 4.04997 11.2443 4.44305 11.7425L4.45017 11.7516C4.54269 12.1551 4.6372 12.7106 4.84602 12.9591C5.69584 13.9701 7.87682 14.3416 9.07725 14.3416C11.1077 14.3416 12.4613 13.7793 12.918 13.0937C13.1423 12.7569 13.1917 12.3674 13.1917 12.2445C13.9074 11.8419 15.0927 11.5186 16.2424 12.0338Z" fill="url(#paint2_linear_367_1837)"/>
<path d="M16.2401 12.0592C17.9634 12.8316 17.9124 14.093 17.6014 14.7719C15.49 18.1097 11.721 19.4623 8.50402 18.8615C7.10125 18.6299 5.87183 18.1008 4.83594 17.3655C5.66351 17.6791 7.94512 18.1453 10.8812 17.0576C13.7131 16.0086 15.4232 13.371 15.9029 11.9316C16.0153 11.9666 16.1279 12.0089 16.2401 12.0592Z" fill="url(#paint3_linear_367_1837)"/>
<path fill-rule="evenodd" clip-rule="evenodd" d="M7.84623 10.0779C7.84623 10.6871 7.3373 11.1439 6.77749 11.1439C6.16677 11.1439 5.70874 10.6871 5.70874 10.0779C5.70874 9.87486 5.75963 9.62104 5.91231 9.46875" fill="url(#paint4_linear_367_1837)"/>
<path fill-rule="evenodd" clip-rule="evenodd" d="M9.88207 10.0779C9.88207 10.6871 10.391 11.1439 10.9508 11.1439C11.5615 11.1439 12.0196 10.6871 12.0196 10.0779C12.0196 9.87486 11.9687 9.62104 11.816 9.46875" fill="url(#paint5_linear_367_1837)"/>
<defs>
<linearGradient id="paint0_linear_367_1837" x1="2.06835" y1="12.1161" x2="12.1493" y2="3.84469" gradientUnits="userSpaceOnUse">
<stop stop-color="#0F53FB"/>
<stop offset="1" stop-color="#087AFF"/>
</linearGradient>
<linearGradient id="paint1_linear_367_1837" x1="10.1318" y1="5.79604" x2="11.5056" y2="1.33731" gradientUnits="userSpaceOnUse">
<stop stop-color="#5DD2FF"/>
<stop offset="1" stop-color="#0F53FB"/>
</linearGradient>
<linearGradient id="paint2_linear_367_1837" x1="1.21635" y1="5.75493" x2="13.3111" y2="15.7545" gradientUnits="userSpaceOnUse">
<stop stop-color="#BC55FF"/>
<stop offset="1" stop-color="#5402FF"/>
</linearGradient>
<linearGradient id="paint3_linear_367_1837" x1="12.6267" y1="7.94398" x2="18.7746" y2="15.0669" gradientUnits="userSpaceOnUse">
<stop stop-color="#5402FF"/>
<stop offset="0.995152" stop-color="#BC55FF"/>
</linearGradient>
<linearGradient id="paint4_linear_367_1837" x1="6.75662" y1="9.44615" x2="6.75662" y2="11.1168" gradientUnits="userSpaceOnUse">
<stop stop-color="#5402FF"/>
<stop offset="1" stop-color="#BC55FF"/>
</linearGradient>
<linearGradient id="paint5_linear_367_1837" x1="10.9781" y1="9.4375" x2="10.9781" y2="13.5037" gradientUnits="userSpaceOnUse">
<stop stop-color="#0C68FE"/>
<stop offset="1" stop-color="#00F2FF"/>
</linearGradient>
</defs>
</svg>
