<svg width="40" height="40" viewBox="0 0 40 40" fill="none" xmlns="http://www.w3.org/2000/svg">
<path d="M33.7075 15.8815C37.1541 14.3368 37.052 11.814 36.4301 10.4561C32.2073 3.78064 24.6693 1.07536 18.2353 2.27693C8.62027 3.86437 3.0776 12.4406 3.23012 20.6562C3.37593 28.5104 9.02409 33.6624 11.0891 34.7836C8.63536 31.5787 9.49651 25.7254 10.1282 23.5014C9.91117 22.3031 9.79247 19.8971 11.014 16.7777C12.4828 13.0272 14.7048 10.9992 19.3677 10.9992C23.2956 10.9992 25.8028 13.4464 26.5556 14.6905C27.5171 15.6816 30.6742 17.241 33.7075 15.8815Z" fill="url(#paint0_linear_4096_22709)"/>
<path d="M33.7073 15.8815C37.1538 14.3368 37.0518 11.814 36.4299 10.4561C32.2071 3.78064 24.669 1.07536 18.2351 2.27693C15.4295 2.74013 12.9707 3.79834 10.8989 5.269C12.5541 4.64176 17.1173 3.70941 22.9894 5.88472C28.6533 7.98289 32.0734 13.258 33.0329 16.1368C33.2577 16.0667 33.4828 15.9821 33.7073 15.8815Z" fill="url(#paint1_linear_4096_22709)"/>
<path d="M33.7118 24.0678C37.1584 25.6125 37.0564 28.1354 36.4345 29.4932C32.2116 36.1687 24.6736 38.874 18.2397 37.6724C11.5937 36.5752 6.79483 32.0983 4.58294 26.904C3.57199 24.53 3.16586 22.2475 3.24938 19.4589C3.69761 11.2075 8.9011 6.65523 10.9176 5.26214C9.86261 7.12696 7.95078 11.8977 8.04031 16.4479C8.1293 20.9707 9.32706 22.4888 10.1132 23.4852L10.1275 23.5033C10.3125 24.3104 10.5015 25.4214 10.9192 25.9183C12.6188 27.9404 16.9808 28.6833 19.3816 28.6833C23.4425 28.6833 26.1496 27.5588 27.0631 26.1875C27.5118 25.514 27.6106 24.7349 27.6106 24.4891C29.0419 23.684 31.4124 23.0372 33.7118 24.0678Z" fill="url(#paint2_linear_4096_22709)"/>
<path d="M33.7073 24.1185C37.1538 25.6632 37.0518 28.186 36.4299 29.5439C32.2071 36.2194 24.669 38.9246 18.2351 37.7231C15.4295 37.2599 12.9707 36.2017 10.8989 34.731C12.5541 35.3582 17.1173 36.2906 22.9894 34.1153C28.6533 32.0171 32.0734 26.742 33.0329 23.8632C33.2577 23.9333 33.4828 24.0179 33.7073 24.1185Z" fill="url(#paint3_linear_4096_22709)"/>
<path fill-rule="evenodd" clip-rule="evenodd" d="M16.9198 20.1546C16.9198 21.3729 15.9019 22.2867 14.7823 22.2867C13.5608 22.2867 12.6448 21.3729 12.6448 20.1546C12.6448 19.7485 12.7466 19.2409 13.0519 18.9363" fill="url(#paint4_linear_4096_22709)"/>
<path fill-rule="evenodd" clip-rule="evenodd" d="M20.9914 20.1544C20.9914 21.3727 22.0092 22.2864 23.1289 22.2864C24.3503 22.2864 25.2664 21.3727 25.2664 20.1544C25.2664 19.7483 25.1646 19.2406 24.8592 18.936" fill="url(#paint5_linear_4096_22709)"/>
<defs>
<linearGradient id="paint0_linear_4096_22709" x1="5.36375" y1="24.2322" x2="25.5257" y2="7.68937" gradientUnits="userSpaceOnUse">
<stop stop-color="#FB0F0F"/>
<stop offset="1" stop-color="#2724D0"/>
</linearGradient>
<linearGradient id="paint1_linear_4096_22709" x1="21.4906" y1="11.5921" x2="24.2382" y2="2.67461" gradientUnits="userSpaceOnUse">
<stop stop-color="#FF5D97"/>
<stop offset="1" stop-color="#4C27BE"/>
</linearGradient>
<linearGradient id="paint2_linear_4096_22709" x1="3.65982" y1="11.51" x2="27.8493" y2="31.5092" gradientUnits="userSpaceOnUse">
<stop stop-color="#FF5555"/>
<stop offset="1" stop-color="#1D0057"/>
</linearGradient>
<linearGradient id="paint3_linear_4096_22709" x1="26.4805" y1="15.888" x2="38.7762" y2="30.1339" gradientUnits="userSpaceOnUse">
<stop stop-color="#7A35B5"/>
<stop offset="0.995152" stop-color="#F55156"/>
</linearGradient>
<linearGradient id="paint4_linear_4096_22709" x1="15.2197" y1="24.1768" x2="18.0996" y2="21.8502" gradientUnits="userSpaceOnUse">
<stop stop-color="#3835B5"/>
<stop offset="0.995152" stop-color="#AD51F5"/>
</linearGradient>
<linearGradient id="paint5_linear_4096_22709" x1="23.5161" y1="21.2093" x2="22.6606" y2="19.2733" gradientUnits="userSpaceOnUse">
<stop stop-color="#FF5D97"/>
<stop offset="1" stop-color="#4C27BE"/>
</linearGradient>
</defs>
</svg>
