<svg width="20" height="20" viewBox="0 0 20 20" fill="none" xmlns="http://www.w3.org/2000/svg">
<path d="M10 1C14.971 1 19 5.02979 19 10C19 14.971 14.971 19 10 19C5.02979 19 1 14.9706 1 10C1 5.02979 5.02979 1 10 1Z" fill="#F5AC37"/>
<path d="M10.3317 10.6311H13.7516C13.8245 10.6311 13.8589 10.6311 13.8642 10.5356C13.8921 10.1877 13.8921 9.83773 13.8642 9.48942C13.8642 9.42179 13.8306 9.39384 13.7572 9.39384H6.95116C6.86691 9.39384 6.84423 9.42179 6.84423 9.50076V10.5019C6.84423 10.6311 6.84423 10.6311 6.9791 10.6311H10.3317ZM13.4823 8.22379C13.492 8.19827 13.492 8.17033 13.4823 8.14522C13.4251 8.02088 13.3575 7.90221 13.2789 7.79084C13.1607 7.60049 13.0214 7.42512 12.8626 7.26757C12.7877 7.1724 12.701 7.08694 12.6038 7.01444C12.117 6.60013 11.5382 6.3069 10.9161 6.15948C10.6023 6.08901 10.2815 6.0554 9.95993 6.05823H6.93941C6.85517 6.05823 6.84383 6.09185 6.84383 6.16515V8.16182C6.84383 8.24606 6.84383 8.26874 6.95075 8.26874H13.4418C13.4418 8.26874 13.498 8.2574 13.5094 8.22379H13.4818H13.4823ZM13.4823 11.8012C13.3867 11.7907 13.2903 11.7907 13.1947 11.8012H6.95683C6.87258 11.8012 6.84423 11.8012 6.84423 11.9138V13.8659C6.84423 13.9558 6.84423 13.9785 6.95683 13.9785H9.83681C9.97451 13.989 10.1122 13.9793 10.2471 13.9505C10.665 13.9206 11.0761 13.8299 11.4682 13.6804C11.6107 13.631 11.7484 13.5666 11.8784 13.4892H11.9177C12.5929 13.1381 13.1412 12.5865 13.4871 11.9093C13.4871 11.9093 13.5264 11.8243 13.4823 11.802V11.8012ZM5.71387 14.9906V14.957V13.6464V13.2021V11.8802C5.71387 11.8069 5.71387 11.7959 5.62396 11.7959H4.40327C4.33564 11.7959 4.30769 11.7959 4.30769 11.706V10.6372H5.61262C5.68552 10.6372 5.71387 10.6372 5.71387 10.5416V9.48416C5.71387 9.41652 5.71387 9.39992 5.62396 9.39992H4.40327C4.33564 9.39992 4.30769 9.39992 4.30769 9.31001V8.32018C4.30769 8.25821 4.30769 8.24161 4.3976 8.24161H5.60695C5.69119 8.24161 5.71387 8.24161 5.71387 8.13469V5.10283C5.71387 5.01291 5.71387 4.99023 5.82646 4.99023H10.045C10.3512 5.00238 10.6553 5.036 10.9562 5.09149C11.5763 5.2061 12.1721 5.42764 12.7168 5.74395C13.0781 5.95657 13.4106 6.21335 13.7066 6.509C13.9294 6.74026 14.1303 6.99055 14.3085 7.25704C14.4854 7.52718 14.6325 7.81595 14.7479 8.11768C14.7621 8.19625 14.8374 8.2493 14.916 8.23594H15.9228C16.052 8.23594 16.052 8.23594 16.0577 8.35987V9.28247C16.0577 9.37238 16.0241 9.39506 15.9337 9.39506H15.1573C15.0788 9.39506 15.0561 9.39506 15.0618 9.49631C15.0925 9.83894 15.0925 10.1828 15.0618 10.5254C15.0618 10.621 15.0618 10.6323 15.1691 10.6323H16.0573C16.0966 10.683 16.0573 10.7336 16.0573 10.7846C16.0629 10.8498 16.0629 10.9158 16.0573 10.9811V11.6619C16.0573 11.7574 16.0293 11.7858 15.9447 11.7858H14.8815C14.8074 11.7716 14.7353 11.819 14.7183 11.8927C14.4652 12.5508 14.0602 13.1409 13.5369 13.614C13.3458 13.7861 13.1449 13.9481 12.9351 14.0976C12.7099 14.2272 12.4908 14.362 12.2599 14.4689C11.8351 14.6601 11.3896 14.8011 10.9323 14.8906C10.4982 14.9683 10.0579 15.0036 9.61608 14.9975H5.71225V14.9918L5.71387 14.9906Z" fill="#FEFEFD"/>
</svg>
