<svg width="20" height="20" viewBox="0 0 20 20" fill="none" xmlns="http://www.w3.org/2000/svg">
<path d="M10 1C14.971 1 19 5.02979 19 10C19 14.971 14.971 19 10 19C5.02979 19 1 14.9706 1 10C1 5.02979 5.02979 1 10 1Z" fill="#C2C3C7"/>
<path fill-rule="evenodd" clip-rule="evenodd" d="M8.0425 9.56013C8.0425 10.7316 7.0638 11.6102 5.98724 11.6102C4.8128 11.6102 3.93198 10.7316 3.93198 9.56013C3.93198 9.16964 4.02985 8.68154 4.32345 8.38867" fill="#464A53"/>
<path fill-rule="evenodd" clip-rule="evenodd" d="M11.9575 9.56013C11.9575 10.7316 12.9362 11.6102 14.0128 11.6102C15.1872 11.6102 16.068 10.7316 16.068 9.56013C16.068 9.16964 15.9702 8.68154 15.6765 8.38867" fill="#464A53"/>
</svg>
