<svg width="20" height="20" viewBox="0 0 20 20" fill="none" xmlns="http://www.w3.org/2000/svg">
<path d="M19 10C19 14.9706 14.9706 19 10 19C5.02944 19 1 14.9706 1 10C1 5.02944 5.02944 1 10 1C14.9706 1 19 5.02944 19 10Z" fill="white"/>
<path fill-rule="evenodd" clip-rule="evenodd" d="M10 18.4C14.6392 18.4 18.4 14.6392 18.4 10C18.4 5.36081 14.6392 1.6 10 1.6C5.36081 1.6 1.6 5.36081 1.6 10C1.6 14.6392 5.36081 18.4 10 18.4ZM10 19C14.9706 19 19 14.9706 19 10C19 5.02944 14.9706 1 10 1C5.02944 1 1 5.02944 1 10C1 14.9706 5.02944 19 10 19Z" fill="#AF2B2D"/>
<path d="M8.08101 13.1506C9.21991 13.1668 10.3588 12.3533 10.8789 12.3533C11.3989 12.3533 13.7131 12.3678 14.8927 11.8746C15.9333 11.4395 16.0946 9.74304 16.0669 9.4894C16.0387 9.23577 15.0838 8.1451 14.339 7.88418C13.5942 7.62327 12.9726 7.68374 11.8772 7.57568C10.703 7.45978 7.70862 7.33661 6.47852 7.4889C5.24842 7.64119 3.92658 8.35898 3.94069 9.14899C3.9548 9.93956 4.61545 10.2033 4.78428 10.5319C4.95311 10.86 5.30433 11.8897 5.75435 12.2883C6.20438 12.687 7.06154 13.136 8.08101 13.1506Z" fill="#AF2B2D"/>
<path d="M16.2167 10.6657C16.2167 10.6657 16.0387 11.6226 15.9963 11.8309C15.954 12.0386 15.7102 13.0055 14.5295 13.4596C13.3483 13.9143 12.8798 13.6433 11.3425 13.7978C9.80511 13.9523 9.43054 14.3829 8.59618 14.5906C7.76182 14.7983 7.18368 14.7838 6.13598 14.136C5.3065 13.6237 5.40042 13.0095 4.77234 12.2413C4.14426 11.4731 3.84461 11.1249 3.78326 10.7329V9.8063C3.78326 9.8063 4.04546 10.2901 4.33154 10.5314C4.61763 10.7727 4.91728 11.9423 5.47044 12.4501C6.02361 12.9574 7.21842 13.6393 8.43224 13.5184C9.64605 13.3975 10.2269 12.7933 10.8691 12.692C11.5113 12.5907 13.6013 12.697 14.5947 12.3393C15.5881 11.9815 15.9404 11.3908 16.2167 10.6657Z" fill="#AF2B2D"/>
<path d="M4.65074 8.81473C4.65074 8.81473 4.88959 8.55382 5.26253 8.4452L8.10273 12.6215C8.10273 12.6215 7.74444 12.6937 7.22385 12.5056L4.65074 8.81473Z" fill="white"/>
<path d="M9.59231 12.2581C9.59231 12.2581 9.76819 12.201 9.83116 12.1573L6.99097 7.95921C6.99097 7.95921 6.76677 7.94857 6.6544 7.99952L9.59231 12.2581Z" fill="white"/>
<path d="M8.67163 7.95809L11.3359 11.8163C11.3359 11.8163 12.116 11.7872 12.2219 11.8163L9.62814 7.95809C9.62759 7.95809 9.09343 7.90826 8.67163 7.95809Z" fill="white"/>
<path d="M11.3902 8.08239L13.8597 11.6276L14.0844 11.584L11.7083 8.08183C11.7083 8.08239 11.5493 8.06615 11.3902 8.08239Z" fill="white"/>
<path d="M13.5361 8.26379C13.5361 8.26379 14.0214 8.23468 14.3232 8.49559L15.4904 10.163C15.4904 10.163 15.448 10.547 15.2515 10.7576L13.5361 8.26379Z" fill="white"/>
<path d="M7.96864 6.6541C7.96864 6.6541 7.57508 6.39766 7.6451 5.85177C7.71513 5.30531 8.11358 4.98673 8.10218 4.46939C8.09024 3.95204 8.0251 3.83111 8.0251 3.83111C8.0251 3.83111 8.46589 4.09706 8.41432 4.63847C8.36275 5.17989 7.97841 5.60989 7.94096 5.91C7.90296 6.20954 7.96864 6.6541 7.96864 6.6541Z" fill="#AF2B2D"/>
<path d="M10.1118 6.13507C10.1118 6.13507 9.71825 5.87864 9.78828 5.33274C9.8583 4.78629 10.2568 4.46771 10.2454 3.95036C10.2334 3.43302 10.1683 3.31208 10.1683 3.31208C10.1683 3.31208 10.6091 3.57803 10.5575 4.11945C10.5059 4.66087 10.1216 5.09087 10.0841 5.39097C10.0467 5.69108 10.1118 6.13507 10.1118 6.13507Z" fill="#AF2B2D"/>
<path d="M12.0894 6.6541C12.0894 6.6541 11.6959 6.39766 11.7659 5.85177C11.8359 5.30587 12.2344 4.98673 12.223 4.46939C12.211 3.95204 12.1459 3.83111 12.1459 3.83111C12.1459 3.83111 12.5867 4.09706 12.5351 4.63847C12.4835 5.17989 12.0992 5.60989 12.0617 5.91C12.0237 6.20954 12.0894 6.6541 12.0894 6.6541Z" fill="#AF2B2D"/>
<path fill-rule="evenodd" clip-rule="evenodd" d="M10 17.8C14.3078 17.8 17.8 14.3078 17.8 10C17.8 5.69218 14.3078 2.2 10 2.2C5.69218 2.2 2.2 5.69218 2.2 10C2.2 14.3078 5.69218 17.8 10 17.8ZM10 18C14.4183 18 18 14.4183 18 10C18 5.58172 14.4183 2 10 2C5.58172 2 2 5.58172 2 10C2 14.4183 5.58172 18 10 18Z" fill="#AF2B2D"/>
</svg>
