<svg width="41" height="40" viewBox="0 0 41 40" fill="none" xmlns="http://www.w3.org/2000/svg">
<rect x="0.5" width="40" height="40" rx="3" fill="#BFF009"/>
<path d="M17.2461 28.488C16.1989 25.2309 15.1508 21.9747 14.1054 18.7176C13.3624 16.4029 12.6285 14.0865 11.8774 11.7746C11.7817 11.4785 11.8512 11.4252 12.1437 11.4216C13.2965 11.408 13.302 11.3972 13.6576 12.4995C15.0461 16.811 16.4309 21.1243 17.822 25.4349C17.8744 25.5965 17.8798 25.7915 18.0423 25.9098C18.4666 25.1479 18.4657 24.4148 18.184 23.5735C16.8642 19.6185 15.6103 15.641 14.3338 11.6716C14.3112 11.6021 14.295 11.5317 14.276 11.4622C14.3085 11.4514 14.3221 11.4423 14.3356 11.4423C14.8005 11.4423 15.3386 11.2961 15.7105 11.4821C16.077 11.6653 16.0626 12.2666 16.2007 12.6881C16.829 14.6119 17.4384 16.542 18.0567 18.4684C18.0974 18.5957 18.1551 18.7167 18.2048 18.8413C18.5216 19.6718 18.7816 20.5213 19.0642 21.3645C19.1057 21.489 19.1075 21.6642 19.2736 21.6687C19.447 21.6741 19.4379 21.4863 19.493 21.3708C19.6799 20.9862 19.6826 20.607 19.5065 20.2098C19.3431 19.8424 19.2348 19.4515 19.1409 19.0588C18.7988 17.7056 18.3285 16.3921 17.9006 15.0651C17.5151 13.8698 17.1395 12.671 16.7441 11.427C17.219 11.427 17.6388 11.4378 18.0567 11.4234C18.3212 11.4144 18.3276 11.6085 18.3808 11.7728C19.0543 13.8391 19.7268 15.9055 20.4012 17.971C20.4237 18.0396 20.4562 18.1046 20.5312 18.2852C20.9437 17.0015 21.322 15.8171 21.7047 14.6354C22.0234 13.6514 22.3529 12.671 22.6635 11.6843C22.723 11.4965 22.7989 11.4207 23.0029 11.4216C26.7005 11.4315 30.3991 11.4351 34.0968 11.4396C34.1112 11.4396 34.1247 11.4496 34.1762 11.4676C33.9162 12.2593 33.6526 13.051 33.3962 13.8455C31.9572 18.3123 30.5192 22.78 29.0829 27.2477C29.0468 27.3614 29.026 27.4797 28.998 27.5961C29.0116 27.6557 29.0062 27.7144 28.9917 27.774C28.8647 28.2837 28.5361 28.5386 28.0059 28.5386C24.58 28.5386 21.1541 28.5386 17.7272 28.5359C17.5665 28.5359 17.3968 28.5873 17.2452 28.4844L17.2461 28.488Z" fill="black"/>
<path d="M14.7348 28.4708C14.2987 27.0833 13.8708 25.693 13.4249 24.3091C12.1863 20.4706 10.9387 16.6348 9.69833 12.7973C9.55569 12.3567 9.43382 11.9108 9.29028 11.4269C9.75159 11.4269 10.1714 11.4395 10.5902 11.4224C10.8701 11.4106 10.8891 11.6065 10.9477 11.7907C11.6013 13.8336 12.2558 15.8765 12.9121 17.9186C13.9972 21.2912 15.0841 24.663 16.1656 28.0375C16.2135 28.1855 16.3435 28.3272 16.2451 28.5033C15.7404 28.5466 15.2349 28.6044 14.7339 28.4717L14.7348 28.4708Z" fill="black"/>
<path d="M11.9244 27.4799C11.7492 26.6268 11.4107 25.8243 11.1462 24.9983C9.7307 20.5838 8.30526 16.173 6.88524 11.7604C6.85455 11.6647 6.84371 11.5627 6.82385 11.4679C6.85816 11.4534 6.8717 11.4435 6.88614 11.4426C8.3188 11.3298 8.30436 11.3352 8.74129 12.692C10.3951 17.8296 12.0598 22.9635 13.719 28.1001C13.7597 28.2265 13.7786 28.3601 13.8075 28.491C13.3516 28.602 12.8885 28.5154 12.429 28.5416C12.2566 28.5515 12.2015 28.4287 12.1528 28.2978C12.0544 28.0315 11.9668 27.7625 11.9253 27.4799H11.9244Z" fill="black"/>
<path d="M17.2461 28.4879C20.9645 28.4906 24.682 28.4897 28.4004 28.5015C28.6478 28.5015 28.7408 28.4067 28.7968 28.1927C28.8491 27.9914 28.9304 27.7973 28.999 27.5996C29.0865 28.3074 28.8572 28.5926 28.1937 28.5926C24.7299 28.5926 21.2669 28.5926 17.8031 28.5899C17.6144 28.5899 17.4086 28.6441 17.2461 28.4879Z" fill="#BFF009"/>
<path d="M19.141 19.0603C19.4172 19.5586 19.5924 20.1065 19.7007 20.6509C19.8 21.151 19.4272 21.5925 19.271 22.0763C18.9207 20.9822 18.4432 19.9513 18.2048 18.8418C18.5713 19.3509 18.6445 19.9729 18.8656 20.539C18.9983 20.8775 19.0308 21.2566 19.2683 21.6141C19.5192 21.2007 19.6438 20.8324 19.4913 20.3945C19.3405 19.9603 19.1085 19.545 19.1401 19.0612L19.141 19.0603Z" fill="#BFF009"/>
<path d="M11.9244 27.4805C12.0499 28.5638 12.7929 28.6062 13.6288 28.4952C13.6875 28.487 13.7471 28.4925 13.8066 28.4915C13.3156 28.6874 12.8055 28.5972 12.3081 28.5565C12.0625 28.5367 12.0752 28.2397 11.9957 28.0546C11.9181 27.8723 11.9055 27.6773 11.9244 27.4814V27.4805Z" fill="#BFF009"/>
<path d="M14.7347 28.4717C15.2385 28.4825 15.7422 28.4933 16.2459 28.5033C15.7395 28.6152 15.234 28.6965 14.7347 28.4717Z" fill="#BFF009"/>
</svg>
