<svg width="20" height="20" viewBox="0 0 20 20" fill="none" xmlns="http://www.w3.org/2000/svg">
<path d="M1 10C1 5.02944 5.02944 1 10 1C14.9706 1 19 5.02944 19 10C19 14.9706 14.9706 19 10 19C5.02944 19 1 14.9706 1 10Z" fill="#BFF009"/>
<path fill-rule="evenodd" clip-rule="evenodd" d="M10.3703 6.2364C10.0671 6.2364 9.82006 6.48329 9.82006 6.78634C9.82006 7.08937 10.0677 7.33627 10.3709 7.33627H12.364V12.3985H10.9937V11.9422C10.3287 12.6297 9.09772 12.6624 8.31046 12.1669C7.42834 11.6403 7.02328 10.5504 7.16962 9.54007C7.29484 8.61985 7.8328 7.89265 8.64292 7.55035C8.5393 7.31695 8.48134 7.05835 8.48134 6.78634C8.48134 5.74381 9.32722 4.89844 10.3703 4.89844H11.3549V6.2364H10.3703ZM11.0241 9.94549V8.67481H9.75274C9.05092 8.67481 8.48134 9.24403 8.48134 9.94549C8.48134 10.647 9.05092 11.2162 9.75274 11.2162C10.4546 11.2162 11.0241 10.6476 11.0241 9.94549Z" fill="#040404"/>
<path d="M6.02368 14.8222H8.03146C8.58046 14.8222 8.89756 15.0071 9.07402 15.1581C9.16744 15.2381 9.22978 15.3162 9.26632 15.3693C9.2845 15.3957 9.29566 15.4149 9.30058 15.4239C9.30148 15.4255 9.30262 15.4276 9.30262 15.4276C9.4216 15.6796 9.67552 15.8409 9.95506 15.8409C10.2346 15.8409 10.4885 15.6796 10.6076 15.4276C10.6076 15.4276 10.6086 15.4255 10.6095 15.4239C10.6145 15.4149 10.6257 15.3957 10.6438 15.3693C10.6803 15.3162 10.7427 15.2381 10.8361 15.1581C11.0126 15.0071 11.3297 14.8222 11.8787 14.8222H13.8864V13.3789H11.8787C11.0019 13.3789 10.3744 13.675 9.95506 14.0139C9.53572 13.675 8.90818 13.3789 8.03146 13.3789H6.02368V14.8222Z" fill="#040404"/>
</svg>
