<svg width="20" height="20" viewBox="0 0 20 20" fill="none" xmlns="http://www.w3.org/2000/svg">
<path d="M9.97788 18.7448C14.784 18.7448 18.6802 14.8487 18.6802 10.0425C18.6802 5.2364 14.784 1.34026 9.97788 1.34026C5.17175 1.34026 1.27561 5.2364 1.27561 10.0425C1.27561 14.8487 5.17175 18.7448 9.97788 18.7448Z" fill="#FFF200"/>
<path fill-rule="evenodd" clip-rule="evenodd" d="M10 1.59546C5.3583 1.59546 1.59546 5.3583 1.59546 10C1.59546 14.6417 5.3583 18.4045 10 18.4045C14.6417 18.4045 18.4045 14.6417 18.4045 10C18.4045 5.3583 14.6417 1.59546 10 1.59546ZM1 10C1 5.02944 5.02944 1 10 1C14.9706 1 19 5.02944 19 10C19 14.9706 14.9706 19 10 19C5.02944 19 1 14.9706 1 10Z" fill="black"/>
<path d="M13.5005 11.8128C14.7882 11.8128 15.8321 10.4908 15.8321 8.86011C15.8321 7.22941 14.7882 5.90746 13.5005 5.90746C12.2127 5.90746 11.1688 7.22941 11.1688 8.86011C11.1688 10.4908 12.2127 11.8128 13.5005 11.8128Z" fill="white"/>
<path fill-rule="evenodd" clip-rule="evenodd" d="M13.5005 6.12013C12.3742 6.12013 11.3815 7.29732 11.3815 8.86011C11.3815 10.4229 12.3742 11.6001 13.5005 11.6001C14.6267 11.6001 15.6195 10.4229 15.6195 8.86011C15.6195 7.29732 14.6267 6.12013 13.5005 6.12013ZM10.9561 8.86011C10.9561 7.1615 12.0512 5.6948 13.5005 5.6948C14.9497 5.6948 16.0448 7.1615 16.0448 8.86011C16.0448 10.5587 14.9497 12.0254 13.5005 12.0254C12.0512 12.0254 10.9561 10.5587 10.9561 8.86011Z" fill="black"/>
<path d="M14.5468 11.1586C15.3497 11.1586 16.0006 10.1295 16.0006 8.86011C16.0006 7.59069 15.3497 6.56163 14.5468 6.56163C13.7439 6.56163 13.093 7.59069 13.093 8.86011C13.093 10.1295 13.7439 11.1586 14.5468 11.1586Z" fill="black"/>
<path d="M6.45019 11.8128C7.73793 11.8128 8.78185 10.4908 8.78185 8.86011C8.78185 7.22941 7.73793 5.90746 6.45019 5.90746C5.16245 5.90746 4.11853 7.22941 4.11853 8.86011C4.11853 10.4908 5.16245 11.8128 6.45019 11.8128Z" fill="white"/>
<path fill-rule="evenodd" clip-rule="evenodd" d="M6.45019 6.12013C5.32396 6.12013 4.33119 7.29732 4.33119 8.86011C4.33119 10.4229 5.32396 11.6001 6.45019 11.6001C7.57642 11.6001 8.56919 10.4229 8.56919 8.86011C8.56919 7.29732 7.57642 6.12013 6.45019 6.12013ZM3.90586 8.86011C3.90586 7.1615 5.00093 5.6948 6.45019 5.6948C7.89945 5.6948 8.99452 7.1615 8.99452 8.86011C8.99452 10.5587 7.89945 12.0254 6.45019 12.0254C5.00093 12.0254 3.90586 10.5587 3.90586 8.86011Z" fill="black"/>
<path d="M7.39442 11.1586C8.19733 11.1586 8.84821 10.1295 8.84821 8.86011C8.84821 7.59069 8.19733 6.56163 7.39442 6.56163C6.59152 6.56163 5.94064 7.59069 5.94064 8.86011C5.94064 10.1295 6.59152 11.1586 7.39442 11.1586Z" fill="black"/>
<path fill-rule="evenodd" clip-rule="evenodd" d="M11.8684 12.8163C12.0033 12.9471 12.0067 13.1625 11.8759 13.2975L10.2222 15.0039C10.1584 15.0698 10.0706 15.1071 9.97884 15.1074C9.88707 15.1076 9.79909 15.0708 9.73486 15.0053L8.06757 13.3039C7.93603 13.1697 7.93821 12.9543 8.07243 12.8228C8.20664 12.6912 8.42208 12.6934 8.55361 12.8276L9.97652 14.2796L11.3872 12.8239C11.518 12.6889 11.7334 12.6856 11.8684 12.8163Z" fill="black"/>
</svg>
