<svg width="21" height="20" viewBox="0 0 21 20" fill="none" xmlns="http://www.w3.org/2000/svg">
<path d="M8.42857 10C8.42857 9.45757 8.64357 8.93721 9.0265 8.55293C9.40935 8.16871 9.929 7.95193 10.4714 7.95C11.0139 7.95193 11.5335 8.16871 11.9164 8.55293C12.2993 8.93721 12.5143 9.45757 12.5143 10C12.5143 10.5418 12.2991 11.0614 11.9159 11.4445C11.5329 11.8276 11.0132 12.0429 10.4714 12.0429C9.92964 12.0429 9.41 11.8276 9.02693 11.4445C8.64378 11.0614 8.42857 10.5418 8.42857 10ZM8.1 10C8.10192 10.6277 8.35257 11.2291 8.79707 11.6722C9.24164 12.1154 9.84371 12.3643 10.4714 12.3643C10.7837 12.3671 11.0934 12.3081 11.3828 12.1905C11.6721 12.0729 11.9353 11.8993 12.1571 11.6794C12.3789 11.4596 12.555 11.198 12.6751 10.9098C12.7953 10.6215 12.8571 10.3123 12.8571 10C12.8571 9.37229 12.6083 8.77021 12.1651 8.32564C11.7219 7.88114 11.1206 7.63043 10.4929 7.62857C9.86393 7.62857 9.26071 7.87843 8.816 8.32314C8.37128 8.76786 8.12143 9.37107 8.12143 10H8.1ZM7.40714 10C7.40714 9.17971 7.733 8.39307 8.313 7.813C8.89307 7.233 9.67971 6.90714 10.5 6.90714C10.9059 6.90714 11.3076 6.98721 11.6825 7.14271C12.0574 7.29821 12.3979 7.52614 12.6845 7.81343C12.9711 8.10071 13.1982 8.44179 13.3529 8.81693C13.5076 9.19214 13.5866 9.59414 13.5857 10C13.5857 10.8184 13.2606 11.6032 12.6819 12.1819C12.1033 12.7606 11.3184 13.0857 10.5 13.0857C9.681 13.0857 8.89535 12.7609 8.31557 12.1824C7.73571 11.6039 7.40907 10.8191 7.40714 10ZM7.04285 10C7.04285 10.9169 7.40707 11.7962 8.05543 12.4446C8.70378 13.0929 9.58314 13.4571 10.5 13.4571C11.4169 13.4571 12.2962 13.0929 12.9446 12.4446C13.5929 11.7962 13.9571 10.9169 13.9571 10C13.9571 9.08314 13.5929 8.20379 12.9446 7.55543C12.2962 6.90707 11.4169 6.54286 10.5 6.54286C9.58314 6.54286 8.70378 6.90707 8.05543 7.55543C7.40707 8.20379 7.04285 9.08314 7.04285 10ZM6.36428 10C6.36621 8.90371 6.8025 7.85286 7.57771 7.07771C8.35285 6.3025 9.40371 5.86614 10.5 5.86429C11.5963 5.86614 12.6471 6.3025 13.4223 7.07771C14.1975 7.85286 14.6339 8.90371 14.6357 10C14.6339 11.0956 14.1973 12.1457 13.4219 12.9198C12.6465 13.6939 11.5956 14.1286 10.5 14.1286C9.40435 14.1286 8.3535 13.6939 7.57814 12.9198C6.80271 12.1457 6.36621 11.0956 6.36428 10ZM5.95 10C5.95192 11.2055 6.43214 12.361 7.28521 13.2127C8.13828 14.0645 9.2945 14.5429 10.5 14.5429C11.7055 14.5429 12.8617 14.0645 13.7148 13.2127C14.5679 12.361 15.0481 11.2055 15.05 10C15.0481 8.79386 14.5681 7.63764 13.7153 6.78471C12.8624 5.93186 11.7061 5.45186 10.5 5.45C9.29385 5.45186 8.13764 5.93186 7.28478 6.78471C6.43185 7.63764 5.95192 8.79386 5.95 10ZM5.32142 10C5.32335 8.62714 5.8695 7.31107 6.84028 6.34029C7.81107 5.3695 9.12714 4.82329 10.5 4.82143C11.8729 4.82329 13.1889 5.3695 14.1597 6.34029C15.1305 7.31107 15.6767 8.62714 15.6786 10C15.6767 11.3722 15.1303 12.6876 14.1593 13.6572C13.1883 14.6268 11.8722 15.1714 10.5 15.1714C9.12778 15.1714 7.81171 14.6268 6.84071 13.6572C5.86978 12.6876 5.32335 11.3722 5.32142 10ZM4.86428 10C4.86621 11.4941 5.46057 12.9265 6.51707 13.9829C7.5735 15.0394 9.00593 15.6339 10.5 15.6357C11.9941 15.6339 13.4265 15.0394 14.483 13.9829C15.5395 12.9265 16.1339 11.4941 16.1357 10C16.1357 8.50464 15.5422 7.07043 14.4855 6.01243C13.4288 4.95436 11.9954 4.35907 10.5 4.35714C9.759 4.35714 9.02521 4.50307 8.34057 4.78671C7.65592 5.07029 7.03385 5.48593 6.50992 6.00993C5.45164 7.06814 4.85714 8.50343 4.85714 10H4.86428ZM4.27142 10C4.27335 8.35057 4.92942 6.76921 6.09571 5.60286C7.26207 4.43657 8.84342 3.78043 10.4929 3.77857C12.1423 3.78043 13.7236 4.43657 14.89 5.60286C16.0564 6.76921 16.7124 8.35057 16.7143 10C16.7124 11.6494 16.0564 13.2308 14.89 14.3971C13.7236 15.5635 12.1423 16.2196 10.4929 16.2214C8.84342 16.2196 7.26207 15.5635 6.09571 14.3971C4.92942 13.2308 4.27335 11.6494 4.27142 10ZM3.76428 10C3.76428 11.7859 4.47271 13.4988 5.73414 14.7629C6.99564 16.027 8.707 16.7391 10.4929 16.7429C12.2762 16.7391 13.9855 16.029 15.2465 14.7679C16.5076 13.5069 17.2176 11.7976 17.2214 10.0143C17.2196 8.23036 16.5101 6.52 15.2486 5.25857C13.9871 3.99714 12.2768 3.28764 10.4929 3.28571C8.70893 3.28764 6.99857 3.99714 5.73714 5.25857C4.47571 6.52 3.76621 8.23036 3.76428 10.0143V10ZM3.22857 10.0143C3.22667 8.08514 3.99071 6.23414 5.35285 4.868C6.71492 3.50186 8.56371 2.73236 10.4929 2.72857C12.4196 2.73235 14.2661 3.49986 15.6279 4.86293C16.9896 6.226 17.7553 8.07329 17.7571 10C17.7553 11.926 16.9893 13.7726 15.6274 15.1346C14.2655 16.4964 12.4189 17.2624 10.4929 17.2643C8.56685 17.2624 6.72021 16.4964 5.35835 15.1346C3.99642 13.7726 3.23047 11.926 3.22857 10V10.0143ZM2.67143 10C2.68276 12.0764 3.51557 14.0639 4.98785 15.5281C6.46014 16.9924 8.45214 17.8143 10.5286 17.8143C12.605 17.8143 14.5971 16.9924 16.0693 15.5281C17.5416 14.0639 18.3744 12.0764 18.3857 10C18.3857 7.92236 17.5629 5.92921 16.0971 4.45671C14.6313 2.98429 12.6419 2.1523 10.5643 2.14286C8.48664 2.1523 6.49728 2.98429 5.0315 4.45671C3.56571 5.92921 2.74284 7.92236 2.74286 10H2.67143ZM2.25 10C2.25179 7.80779 3.11854 5.70486 4.66199 4.14807C6.20535 2.59129 8.30078 1.70641 10.4929 1.68571C12.6967 1.68761 14.8096 2.56441 16.3674 4.12343C17.925 5.68243 18.8 7.79614 18.8 10C18.7981 12.2026 17.9223 14.3145 16.3648 15.8719C14.8074 17.4294 12.6955 18.3053 10.4929 18.3071C8.28957 18.3053 6.177 17.4296 4.61835 15.8724C3.05977 14.3151 2.18235 12.2033 2.17857 10H2.25ZM1.58572 10C1.59515 12.3574 2.53729 14.6154 4.20628 16.2803C5.87528 17.9453 8.13543 18.8819 10.4929 18.8857C12.8504 18.8819 15.1105 17.9453 16.7794 16.2803C18.4484 14.6154 19.3906 12.3574 19.4 10C19.3981 7.63757 18.4593 5.37243 16.7895 3.70129C15.1197 2.03012 12.8553 1.0895 10.4929 1.08571C8.1305 1.0895 5.866 2.03012 4.19621 3.70129C2.52641 5.37243 1.5876 7.63757 1.58572 10ZM1.13571 10C1.13949 7.5195 2.12654 5.14164 3.88057 3.38764C5.6345 1.63369 8.01235 0.646636 10.4929 0.642857C12.9746 0.64475 15.3543 1.63096 17.1098 3.38514C18.8654 5.13936 19.8534 7.51829 19.8571 10C19.8534 12.4799 18.8661 14.8569 17.1119 16.6098C15.3577 18.3626 12.9799 19.3481 10.5 19.35C8.02014 19.3481 5.64228 18.3626 3.88814 16.6098C2.13392 14.8569 1.14664 12.4799 1.14286 10H1.13571ZM0.5 10C0.5 12.6521 1.55357 15.1957 3.42892 17.0711C5.30428 18.9464 7.84785 20 10.5 20C13.1521 20 15.6957 18.9464 17.5711 17.0711C19.4464 15.1957 20.5 12.6521 20.5 10C20.5 7.34786 19.4464 4.80429 17.5711 2.92893C15.6957 1.05357 13.1521 0 10.5 0C7.84785 0 5.30428 1.05357 3.42892 2.92893C1.55357 4.80429 0.5 7.34786 0.5 10Z" fill="url(#paint0_radial_451_390)"/>
<defs>
<radialGradient id="paint0_radial_451_390" cx="0" cy="0" r="1" gradientUnits="userSpaceOnUse" gradientTransform="translate(10.4999 9.99971) scale(10.0001 9.99971)">
<stop offset="0.1875" stop-color="#1F14FF"/>
<stop offset="0.348958" stop-color="#7827AA"/>
<stop offset="0.848958" stop-color="#EF3529"/>
</radialGradient>
</defs>
</svg>
