<svg width="20" height="20" viewBox="0 0 20 20" fill="none" xmlns="http://www.w3.org/2000/svg">
<path fill-rule="evenodd" clip-rule="evenodd" d="M11.2551 4.34155V11.1528H4.44391L11.2551 4.34155Z" fill="url(#paint0_linear_5134_28314)"/>
<path fill-rule="evenodd" clip-rule="evenodd" d="M4.44391 11.1528H11.2551V17.9641L4.44391 11.1528Z" fill="url(#paint1_linear_5134_28314)"/>
<path d="M9.36737 2H2.82078C2.68666 2 2.55802 2.05328 2.46318 2.14812C2.36834 2.24296 2.31506 2.37159 2.31506 2.50572V9.0523C2.31509 9.1023 2.32993 9.15116 2.35772 9.19272C2.38551 9.23427 2.42499 9.26666 2.47117 9.28579C2.51736 9.30492 2.56818 9.30993 2.61722 9.30018C2.66625 9.29043 2.71129 9.26637 2.74665 9.23104L9.5461 2.4309C9.5812 2.3955 9.60505 2.35052 9.61466 2.3016C9.62427 2.25269 9.61921 2.20202 9.60011 2.15598C9.58101 2.10993 9.54873 2.07056 9.50732 2.04281C9.46591 2.01505 9.41722 2.00016 9.36737 2V2Z" fill="#33408F"/>
<path d="M17.4152 4.34082H11.2551V11.1527L17.6064 4.80151C17.644 4.76368 17.6695 4.71558 17.6799 4.66324C17.6902 4.61091 17.6848 4.55669 17.6643 4.50743C17.6439 4.45816 17.6093 4.41605 17.565 4.38641C17.5206 4.35676 17.4685 4.34089 17.4152 4.34082V4.34082Z" fill="#F25148"/>
<path d="M17.4152 17.9641H11.2551V11.1528L17.6064 17.5034C17.644 17.5412 17.6695 17.5893 17.6799 17.6416C17.6902 17.694 17.6848 17.7482 17.6643 17.7974C17.6439 17.8467 17.6093 17.8888 17.565 17.9185C17.5206 17.9481 17.4685 17.964 17.4152 17.9641V17.9641Z" fill="#F0AD26"/>
<path d="M7.26553 17.9999H2.65175C2.60747 17.9999 2.56364 17.9912 2.52274 17.9742C2.48185 17.9573 2.4447 17.9324 2.41343 17.9011C2.38216 17.8697 2.35737 17.8325 2.34049 17.7916C2.32361 17.7507 2.31497 17.7068 2.31506 17.6625V13.0487C2.31515 13.0155 2.3251 12.983 2.34365 12.9554C2.36219 12.9277 2.38851 12.9062 2.41927 12.8936C2.45003 12.8809 2.48386 12.8776 2.51648 12.8841C2.5491 12.8907 2.57906 12.9067 2.60256 12.9303L7.38469 17.7124C7.40828 17.736 7.42435 17.766 7.43087 17.7987C7.43738 17.8313 7.43405 17.8652 7.42129 17.896C7.40852 17.9268 7.38691 17.9531 7.35918 17.9716C7.33146 17.9901 7.29886 18 7.26553 17.9999V17.9999Z" fill="#42B8AE"/>
<defs>
<linearGradient id="paint0_linear_5134_28314" x1="4.44391" y1="11.1528" x2="11.2551" y2="11.1528" gradientUnits="userSpaceOnUse">
<stop stop-color="#EE7F75"/>
<stop offset="1" stop-color="#D94940"/>
</linearGradient>
<linearGradient id="paint1_linear_5134_28314" x1="4.44391" y1="17.9641" x2="11.2551" y2="17.9641" gradientUnits="userSpaceOnUse">
<stop stop-color="#F5D540"/>
<stop offset="1" stop-color="#DBA11A"/>
</linearGradient>
</defs>
</svg>
