<svg width="20" height="20" viewBox="0 0 20 20" fill="none" xmlns="http://www.w3.org/2000/svg">
<path fill-rule="evenodd" clip-rule="evenodd" d="M11.2551 4.3418V11.153H4.44388L11.2551 4.3418Z" fill="url(#paint0_linear_5134_28314)"/>
<path fill-rule="evenodd" clip-rule="evenodd" d="M4.44388 11.1523H11.2551V17.9636L4.44388 11.1523Z" fill="url(#paint1_linear_5134_28314)"/>
<path d="M9.36734 2H2.82075C2.68662 2 2.55799 2.05328 2.46315 2.14812C2.36831 2.24296 2.31503 2.37159 2.31503 2.50572V9.0523C2.31506 9.1023 2.3299 9.15116 2.35769 9.19272C2.38548 9.23427 2.42496 9.26666 2.47114 9.28579C2.51733 9.30492 2.56815 9.30993 2.61719 9.30018C2.66622 9.29043 2.71126 9.26637 2.74662 9.23104L9.54607 2.4309C9.58117 2.3955 9.60502 2.35052 9.61463 2.3016C9.62424 2.25269 9.61918 2.20202 9.60008 2.15598C9.58098 2.10993 9.5487 2.07056 9.50729 2.04281C9.46588 2.01505 9.41719 2.00016 9.36734 2Z" fill="#33408F"/>
<path d="M17.4151 4.3418H11.2551V11.1537L17.6063 4.80248C17.644 4.76466 17.6695 4.71655 17.6798 4.66422C17.6902 4.61189 17.6847 4.55767 17.6643 4.50841C17.6439 4.45914 17.6093 4.41703 17.5649 4.38738C17.5206 4.35773 17.4685 4.34187 17.4151 4.3418Z" fill="#F25148"/>
<path d="M17.4151 17.9636H11.2551V11.1523L17.6063 17.5029C17.644 17.5407 17.6695 17.5888 17.6798 17.6411C17.6902 17.6935 17.6847 17.7477 17.6643 17.797C17.6439 17.8462 17.6093 17.8883 17.5649 17.918C17.5206 17.9476 17.4685 17.9635 17.4151 17.9636Z" fill="#F0AD26"/>
<path d="M7.2655 17.9999H2.65172C2.60744 17.9999 2.56361 17.9912 2.52271 17.9742C2.48182 17.9573 2.44467 17.9324 2.4134 17.9011C2.38213 17.8697 2.35734 17.8325 2.34046 17.7916C2.32358 17.7507 2.31494 17.7068 2.31503 17.6625V13.0487C2.31512 13.0155 2.32507 12.983 2.34362 12.9554C2.36216 12.9277 2.38848 12.9062 2.41924 12.8936C2.45 12.8809 2.48383 12.8776 2.51645 12.8841C2.54907 12.8907 2.57903 12.9067 2.60253 12.9303L7.38466 17.7124C7.40825 17.736 7.42432 17.766 7.43083 17.7987C7.43735 17.8313 7.43402 17.8652 7.42126 17.896C7.40849 17.9268 7.38688 17.9531 7.35915 17.9716C7.33142 17.9901 7.29883 18 7.2655 17.9999Z" fill="#42B8AE"/>
<defs>
<linearGradient id="paint0_linear_5134_28314" x1="4.44388" y1="11.153" x2="11.2551" y2="11.153" gradientUnits="userSpaceOnUse">
<stop stop-color="#EE7F75"/>
<stop offset="1" stop-color="#D94940"/>
</linearGradient>
<linearGradient id="paint1_linear_5134_28314" x1="4.44388" y1="17.9636" x2="11.2551" y2="17.9636" gradientUnits="userSpaceOnUse">
<stop stop-color="#F5D540"/>
<stop offset="1" stop-color="#DBA11A"/>
</linearGradient>
</defs>
</svg>
