<svg width="20" height="20" viewBox="0 0 20 20" fill="none" xmlns="http://www.w3.org/2000/svg">
<path d="M20 0H0V20H20V0Z" fill="url(#paint0_linear_1_2)"/>
<path fill-rule="evenodd" clip-rule="evenodd" d="M15.8 8.53334L7.025 8.53334L4.1 5.60001H15.8V8.53334Z" fill="#D1F52C"/>
<path fill-rule="evenodd" clip-rule="evenodd" d="M4.1 11.4667H12.875L15.8 14.4H4.1V11.4667Z" fill="#D1F52C"/>
<path fill-rule="evenodd" clip-rule="evenodd" d="M12.875 8.53333V11.4667L9.94999 14.4L7.02499 11.4667V8.53333L9.94999 5.6L12.875 8.53333Z" fill="white"/>
<path fill-rule="evenodd" clip-rule="evenodd" d="M12.875 11.4667L9.95 14.4L7.025 11.4667L7.025 8.53333L9.95 11.4667L12.875 8.53333V11.4667Z" fill="#E0E0E0"/>
<path fill-rule="evenodd" clip-rule="evenodd" d="M9.95 11.4667L9.95 14.4L7.025 11.4667L7.025 8.53334L9.95 11.4667Z" fill="#BFBFBF"/>
<defs>
<linearGradient id="paint0_linear_1_2" x1="20" y1="20" x2="0" y2="0" gradientUnits="userSpaceOnUse">
<stop stop-color="#202321"/>
<stop offset="1" stop-color="#0E0F0E"/>
</linearGradient>
</defs>
</svg>
