<svg width="20" height="20" viewBox="0 0 20 20" fill="none" xmlns="http://www.w3.org/2000/svg">
<path d="M10 19.0005C14.9875 19.0005 19 14.988 19 10.0005C19 5.01296 14.9875 1.00049 10 1.00049C5.01247 1.00049 1 5.01296 1 10.0005C1 14.988 5.01247 19.0005 10 19.0005Z" fill="#2775CA"/>
<path d="M12.475 11.4257C12.475 10.1132 11.6875 9.66321 10.1125 9.47574C8.98748 9.32571 8.76248 9.02574 8.76248 8.50068C8.76248 7.97562 9.13751 7.63821 9.88748 7.63821C10.5625 7.63821 10.9375 7.86321 11.125 8.42571C11.1625 8.53821 11.275 8.61318 11.3875 8.61318H11.9875C12.1375 8.61318 12.25 8.50068 12.25 8.35074V8.31321C12.1 7.48818 11.425 6.85071 10.5625 6.77574V5.87574C10.5625 5.72571 10.45 5.61321 10.2625 5.57568H9.70001C9.54998 5.57568 9.43748 5.68818 9.39995 5.87574V6.73821C8.27495 6.88824 7.56251 7.63821 7.56251 8.57574C7.56251 9.81324 8.31248 10.3007 9.88748 10.4882C10.9375 10.6757 11.275 10.9007 11.275 11.5007C11.275 12.1008 10.75 12.5132 10.0375 12.5132C9.06245 12.5132 8.72495 12.1007 8.61245 11.5382C8.57501 11.3882 8.46251 11.3132 8.35001 11.3132H7.71245C7.56251 11.3132 7.45001 11.4257 7.45001 11.5757V11.6132C7.59995 12.5507 8.19998 13.2257 9.43748 13.4132V14.3132C9.43748 14.4632 9.54998 14.5757 9.73745 14.6132H10.3C10.45 14.6132 10.5625 14.5007 10.6 14.3132V13.4132C11.725 13.2257 12.475 12.4382 12.475 11.4257Z" fill="white"/>
<path d="M8.0875 15.3629C5.1625 14.313 3.66247 11.0505 4.75003 8.16293C5.31253 6.58793 6.55003 5.38796 8.0875 4.82546C8.23753 4.75049 8.3125 4.63799 8.3125 4.45043V3.92546C8.3125 3.77543 8.23753 3.66293 8.0875 3.62549C8.04997 3.62549 7.975 3.62549 7.93747 3.66293C4.375 4.78793 2.42497 8.57549 3.54997 12.138C4.22497 14.2379 5.8375 15.8505 7.93747 16.5255C8.0875 16.6004 8.23753 16.5255 8.27497 16.3754C8.3125 16.338 8.3125 16.3005 8.3125 16.2255V15.7004C8.3125 15.5879 8.2 15.438 8.0875 15.3629ZM12.0625 3.66293C11.9125 3.58796 11.7625 3.66293 11.725 3.81296C11.6875 3.85049 11.6875 3.88793 11.6875 3.96299V4.48796C11.6875 4.63799 11.8 4.78793 11.9125 4.86299C14.8375 5.91293 16.3375 9.17543 15.25 12.063C14.6875 13.638 13.45 14.838 11.9125 15.4005C11.7625 15.4754 11.6875 15.5879 11.6875 15.7755V16.3005C11.6875 16.4505 11.7625 16.563 11.9125 16.6004C11.95 16.6004 12.025 16.6004 12.0625 16.563C15.625 15.438 17.575 11.6504 16.45 8.08796C15.775 5.95046 14.125 4.33793 12.0625 3.66293Z" fill="white"/>
</svg>
