<svg width="20" height="20" viewBox="0 0 20 20" fill="none" xmlns="http://www.w3.org/2000/svg">
<path d="M10 19C14.9875 19 19 14.9875 19 10C19 5.01247 14.9875 1 10 1C5.01247 1 1 5.01247 1 10C1 14.9875 5.01247 19 10 19Z" fill="#2775CA"/>
<path d="M12.475 11.4242C12.475 10.1118 11.6875 9.66175 10.1125 9.47428C8.98748 9.32425 8.76248 9.02428 8.76248 8.49922C8.76248 7.97416 9.13751 7.63675 9.88748 7.63675C10.5625 7.63675 10.9375 7.86175 11.125 8.42425C11.1625 8.53675 11.275 8.61172 11.3875 8.61172H11.9875C12.1375 8.61172 12.25 8.49922 12.25 8.34928V8.31175C12.1 7.48672 11.425 6.84925 10.5625 6.77428V5.87428C10.5625 5.72425 10.45 5.61175 10.2625 5.57422H9.70001C9.54998 5.57422 9.43748 5.68672 9.39995 5.87428V6.73675C8.27495 6.88678 7.56251 7.63675 7.56251 8.57428C7.56251 9.81178 8.31248 10.2992 9.88748 10.4868C10.9375 10.6743 11.275 10.8993 11.275 11.4993C11.275 12.0993 10.75 12.5118 10.0375 12.5118C9.06245 12.5118 8.72495 12.0992 8.61245 11.5367C8.57501 11.3868 8.46251 11.3117 8.35001 11.3117H7.71245C7.56251 11.3117 7.45001 11.4242 7.45001 11.5743V11.6118C7.59995 12.5492 8.19998 13.2242 9.43748 13.4118V14.3118C9.43748 14.4617 9.54998 14.5742 9.73745 14.6118H10.3C10.45 14.6118 10.5625 14.4993 10.6 14.3118V13.4118C11.725 13.2242 12.475 12.4367 12.475 11.4242Z" fill="white"/>
<path d="M8.0875 15.3624C5.1625 14.3125 3.66247 11.05 4.75003 8.16244C5.31253 6.58744 6.55003 5.38747 8.0875 4.82497C8.23753 4.75 8.3125 4.6375 8.3125 4.44994V3.92497C8.3125 3.77494 8.23753 3.66244 8.0875 3.625C8.04997 3.625 7.975 3.625 7.93747 3.66244C4.375 4.78744 2.42497 8.575 3.54997 12.1375C4.22497 14.2374 5.8375 15.85 7.93747 16.525C8.0875 16.5999 8.23753 16.525 8.27497 16.3749C8.3125 16.3375 8.3125 16.3 8.3125 16.225V15.6999C8.3125 15.5874 8.2 15.4375 8.0875 15.3624ZM12.0625 3.66244C11.9125 3.58747 11.7625 3.66244 11.725 3.81247C11.6875 3.85 11.6875 3.88744 11.6875 3.9625V4.48747C11.6875 4.6375 11.8 4.78744 11.9125 4.8625C14.8375 5.91244 16.3375 9.17494 15.25 12.0625C14.6875 13.6375 13.45 14.8375 11.9125 15.4C11.7625 15.4749 11.6875 15.5874 11.6875 15.775V16.3C11.6875 16.45 11.7625 16.5625 11.9125 16.5999C11.95 16.5999 12.025 16.5999 12.0625 16.5625C15.625 15.4375 17.575 11.6499 16.45 8.08747C15.775 5.94997 14.125 4.33744 12.0625 3.66244Z" fill="white"/>
</svg>
