<svg width="20" height="20" viewBox="0 0 20 20" fill="none" xmlns="http://www.w3.org/2000/svg">
<path fill-rule="evenodd" clip-rule="evenodd" d="M4.29563 2.27584L1.01349 9.14435C1.001 9.1699 0.997046 9.19876 1.0022 9.22671C1.00735 9.25466 1.02134 9.28023 1.04213 9.29969L9.9064 17.7622C9.93158 17.7863 9.96511 17.7997 10 17.7997C10.0349 17.7997 10.0684 17.7863 10.0936 17.7622L18.9579 9.30022C18.9787 9.28076 18.9926 9.25519 18.9978 9.22724C19.003 9.19929 18.999 9.17043 18.9865 9.14488L15.7044 2.27637C15.6938 2.2533 15.6767 2.23376 15.6553 2.22008C15.6339 2.2064 15.6089 2.19916 15.5835 2.19923H4.41761C4.39202 2.19891 4.36689 2.20598 4.34525 2.21957C4.32361 2.23316 4.30638 2.25271 4.29563 2.27584Z" fill="#50AF95"/>
<path fill-rule="evenodd" clip-rule="evenodd" d="M11.1376 9.84915C11.0739 9.8539 10.7451 9.87345 10.0117 9.87345C9.42835 9.87345 9.01417 9.85602 8.86887 9.84915C6.61448 9.75035 4.93178 9.35937 4.93178 8.89125C4.93178 8.42314 6.61448 8.03269 8.86887 7.9323V9.45975C9.0163 9.47032 9.43843 9.49515 10.0218 9.49515C10.7218 9.49515 11.0723 9.4661 11.1354 9.46028V7.93336C13.3851 8.03322 15.064 8.42419 15.064 8.89125C15.064 9.35831 13.3856 9.74929 11.1354 9.84862L11.1376 9.84915ZM11.1376 7.77538V6.40855H14.2771V4.32422H5.72938V6.40855H8.86834V7.77486C6.31698 7.89162 4.39828 8.39513 4.39828 8.99851C4.39828 9.60188 6.31698 10.1049 8.86834 10.2222V14.6022H11.137V10.2206C13.6826 10.1038 15.5981 9.60082 15.5981 8.99798C15.5981 8.39514 13.6842 7.89215 11.137 7.77486L11.1376 7.77538Z" fill="white"/>
</svg>
