<svg width="20" height="20" viewBox="0 0 20 20" fill="none" xmlns="http://www.w3.org/2000/svg">
<path fill-rule="evenodd" clip-rule="evenodd" d="M4.29563 2.27633L1.01349 9.14484C1.001 9.17039 0.997046 9.19925 1.0022 9.2272C1.00735 9.25515 1.02134 9.28072 1.04213 9.30018L9.9064 17.7627C9.93158 17.7868 9.96511 17.8002 10 17.8002C10.0349 17.8002 10.0684 17.7868 10.0936 17.7627L18.9579 9.3007C18.9787 9.28125 18.9926 9.25567 18.9978 9.22773C19.003 9.19978 18.999 9.17092 18.9865 9.14537L15.7044 2.27686C15.6938 2.25379 15.6767 2.23425 15.6553 2.22057C15.6339 2.20689 15.6089 2.19965 15.5835 2.19972H4.41761C4.39202 2.1994 4.36689 2.20646 4.34525 2.22006C4.32361 2.23365 4.30638 2.25319 4.29563 2.27633Z" fill="#50AF95"/>
<path fill-rule="evenodd" clip-rule="evenodd" d="M11.1376 9.84939C11.074 9.85415 10.7452 9.87369 10.0117 9.87369C9.42838 9.87369 9.0142 9.85626 8.8689 9.84939C6.61452 9.75059 4.93182 9.35961 4.93182 8.8915C4.93182 8.42338 6.61452 8.03293 8.8689 7.93255V9.46C9.01633 9.47057 9.43846 9.4954 10.0218 9.4954C10.7218 9.4954 11.0724 9.46634 11.1355 9.46053V7.9336C13.3851 8.03346 15.0641 8.42444 15.0641 8.8915C15.0641 9.35856 13.3856 9.74953 11.1355 9.84886L11.1376 9.84939ZM11.1376 7.77563V6.40879H14.2771V4.32446H5.72941V6.40879H8.86837V7.7751C6.31701 7.89186 4.39832 8.39538 4.39832 8.99875C4.39832 9.60212 6.31701 10.1051 8.86837 10.2224V14.6024H11.1371V10.2208C13.6826 10.1041 15.5981 9.60107 15.5981 8.99822C15.5981 8.39538 13.6842 7.89239 11.1371 7.7751L11.1376 7.77563Z" fill="white"/>
</svg>
