<svg width="20" height="20" viewBox="0 0 20 20" fill="none" xmlns="http://www.w3.org/2000/svg">
<path fill-rule="evenodd" clip-rule="evenodd" d="M6.55882 1.68214C7.65006 1.23052 8.81938 0.99873 10 1.00001C12.02 0.998737 13.9817 1.67861 15.5694 2.9302C17.1571 4.1818 18.2785 5.93234 18.753 7.90011H17.7053C17.1936 6.03317 16.0241 4.41536 14.4134 3.34631C12.8028 2.27725 10.8601 1.82942 8.94525 2.08574C7.0304 2.34207 5.27312 3.28518 3.9989 4.74041C2.72468 6.19563 2.01986 8.06435 2.01501 10.0004C2.01518 10.2083 2.02307 10.4141 2.0387 10.6179H3.11306L4.07406 8.66749C4.125 8.56364 4.2067 8.47808 4.308 8.42253C4.4093 8.36697 4.52525 8.34413 4.63999 8.35712C4.75474 8.37012 4.86268 8.41831 4.94906 8.49512C5.03543 8.57192 5.09603 8.67359 5.12256 8.78622L5.86764 11.9371L6.61526 7.5392C6.63767 7.40566 6.70745 7.28472 6.81177 7.19866C6.91609 7.11259 7.04791 7.06719 7.18298 7.07081C7.31805 7.07443 7.44727 7.12683 7.54685 7.21836C7.64643 7.3099 7.70967 7.4344 7.72491 7.56895L8.35496 13.036L9.33722 4.63306C9.3507 4.52758 9.40514 4.43168 9.48873 4.36618C9.57231 4.30067 9.6783 4.27084 9.7837 4.28316C9.88909 4.29548 9.98539 4.34895 10.0517 4.43198C10.118 4.515 10.1489 4.62088 10.1378 4.72664L8.90908 15.2293C8.89442 15.3665 8.82924 15.4933 8.72628 15.585C8.62332 15.6766 8.48998 15.7265 8.35228 15.7249C8.21452 15.7264 8.08113 15.6764 7.97821 15.5846C7.87528 15.4928 7.81022 15.3658 7.79574 15.2285L7.1206 9.37245L6.45896 13.2642C6.43742 13.3921 6.37238 13.5085 6.27488 13.5938C6.17739 13.6791 6.05344 13.728 5.92409 13.7321C5.79473 13.7362 5.66794 13.6954 5.56524 13.6164C5.46253 13.5375 5.39025 13.4254 5.36065 13.2991L4.49443 9.63646L3.76834 11.1111C3.72232 11.2054 3.65073 11.2847 3.56178 11.34C3.47283 11.3954 3.37011 11.4245 3.26542 11.424H1.11261C1.09384 11.3048 1.07741 11.1849 1.06331 11.0643C1.06316 11.0629 1.06297 11.0615 1.06279 11.0601C1.06235 11.0569 1.06191 11.0537 1.06191 11.0505C1.05274 10.9717 1.04459 10.8925 1.03745 10.8129C1.0361 10.7983 1.035 10.7837 1.0339 10.7691C1.03323 10.7603 1.03257 10.7515 1.03185 10.7427C1.03133 10.7365 1.03082 10.7303 1.0303 10.7241C1.02736 10.6887 1.02442 10.6533 1.02204 10.6178C1.00803 10.4137 1 10.2079 1 10.0003C1.00127 8.81709 1.23507 7.64572 1.68805 6.55306C2.14103 5.46041 2.80432 4.46787 3.64005 3.63211C4.47578 2.79636 5.46758 2.13375 6.55882 1.68214ZM18.9789 9.3784V9.38262C18.9925 9.58663 19 9.79242 19 10.0003C18.9944 12.2061 18.1827 14.3334 16.7183 15.9802C15.254 17.627 13.2384 18.6791 11.0525 18.9377C8.86668 19.1964 6.66204 18.6435 4.8553 17.3837C3.04856 16.1239 1.7649 14.2445 1.24695 12.1006H2.29456C2.80628 13.9675 3.97577 15.5853 5.58642 16.6544C7.19707 17.7234 9.13973 18.1713 11.0546 17.9149C12.9694 17.6586 14.7267 16.7155 16.0009 15.2603C17.2752 13.8051 17.98 11.9363 17.9848 10.0003C17.9848 9.79229 17.9762 9.58701 17.9604 9.38274H16.8868L15.9257 11.3332C15.8747 11.4371 15.793 11.5226 15.6917 11.5782C15.5904 11.6337 15.4745 11.6566 15.3597 11.6436C15.245 11.6306 15.137 11.5824 15.0507 11.5056C14.9643 11.4288 14.9037 11.3271 14.8771 11.2145L14.1323 8.06347L13.3847 12.4614C13.3623 12.5949 13.2925 12.7158 13.1882 12.8019C13.0839 12.888 12.9521 12.9334 12.817 12.9297C12.6819 12.9261 12.5527 12.8737 12.4531 12.7822C12.3535 12.6907 12.2903 12.5662 12.2751 12.4316L11.645 6.96467L10.662 15.3675C10.6504 15.4656 10.6033 15.5561 10.5297 15.6218C10.456 15.6874 10.3608 15.7237 10.2622 15.7238C10.2464 15.7238 10.2306 15.7228 10.2149 15.721C10.1089 15.7087 10.0121 15.6547 9.9458 15.5709C9.87951 15.4871 9.84914 15.3804 9.86136 15.2742L11.0918 4.77127C11.1064 4.63406 11.1716 4.50724 11.2746 4.4156C11.3775 4.32396 11.5109 4.27407 11.6486 4.27569C11.7864 4.27413 11.9198 4.32413 12.0227 4.41593C12.1257 4.50773 12.1908 4.6347 12.2052 4.77204L12.8804 10.628L13.542 6.73628C13.5636 6.60838 13.6286 6.4919 13.7261 6.4066C13.8236 6.32131 13.9475 6.27245 14.0769 6.26833C14.2063 6.26421 14.333 6.30508 14.4357 6.384C14.5385 6.46292 14.6107 6.57503 14.6403 6.70129L15.5066 10.364L16.2327 8.88933C16.2787 8.79507 16.3503 8.71573 16.4392 8.66039C16.5282 8.60504 16.6309 8.57594 16.7356 8.57642H18.8884C18.9187 8.76826 18.9429 8.96205 18.9611 9.1578C18.9619 9.16074 18.9619 9.16367 18.9619 9.16648C18.9649 9.19957 18.9676 9.23449 18.9701 9.26651L18.9708 9.27525C18.9718 9.28797 18.9728 9.30068 18.9739 9.31341C18.9756 9.33504 18.9774 9.3567 18.9789 9.3784Z" fill="#27EA84"/>
</svg>
