<svg width="20" height="20" viewBox="0 0 20 20" fill="none" xmlns="http://www.w3.org/2000/svg">
<path fill-rule="evenodd" clip-rule="evenodd" d="M10 1C5.02944 1 1 5.02944 1 10C1 14.9706 5.02944 19 10 19C14.9706 19 19 14.9706 19 10C19 5.02944 14.9706 1 10 1ZM9.82006 6.78634C9.82006 6.48329 10.0671 6.2364 10.3703 6.2364H11.3549V4.89844H10.3703C9.32722 4.89844 8.48134 5.74381 8.48134 6.78634C8.48134 7.05835 8.5393 7.31695 8.64292 7.55035C7.8328 7.89265 7.29484 8.61985 7.16962 9.54007C7.02328 10.5504 7.42834 11.6403 8.31046 12.1669C9.09772 12.6624 10.3287 12.6297 10.9937 11.9422V12.3985H12.364V7.33627H10.3709C10.0677 7.33627 9.82006 7.08937 9.82006 6.78634ZM11.0241 8.67481V9.94549C11.0241 10.6476 10.4546 11.2162 9.75274 11.2162C9.05092 11.2162 8.48134 10.647 8.48134 9.94549C8.48134 9.24403 9.05092 8.67481 9.75274 8.67481H11.0241ZM8.03146 14.8214H6.02368V13.3781H8.03146C8.90818 13.3781 9.53572 13.6742 9.95506 14.0131C10.3744 13.6742 11.0019 13.3781 11.8787 13.3781H13.8864V14.8214H11.8787C11.3297 14.8214 11.0126 15.0063 10.8361 15.1574C10.7427 15.2373 10.6803 15.3155 10.6438 15.3686C10.6257 15.3949 10.6145 15.4142 10.6095 15.4232L10.6076 15.4268C10.4885 15.6788 10.2346 15.8402 9.95506 15.8402C9.67552 15.8402 9.4216 15.6788 9.30262 15.4268L9.30058 15.4232C9.29566 15.4142 9.2845 15.3949 9.26632 15.3686C9.22978 15.3155 9.16744 15.2373 9.07402 15.1574C8.89756 15.0063 8.58046 14.8214 8.03146 14.8214Z" fill="url(#paint0_linear_1198_3444)"/>
<defs>
<linearGradient id="paint0_linear_1198_3444" x1="19" y1="19.0008" x2="-0.324255" y2="2.55507" gradientUnits="userSpaceOnUse">
<stop stop-color="#3A72FF"/>
<stop offset="0.565883" stop-color="#7E3DFF"/>
<stop offset="1" stop-color="#C160FF"/>
</linearGradient>
</defs>
</svg>
