<svg width="20" height="20" viewBox="0 0 20 20" fill="none" xmlns="http://www.w3.org/2000/svg">
<path d="M10 1C14.971 1 19 5.02979 19 10C19 14.971 14.971 19 10 19C5.02979 19 1 14.9706 1 10C1 5.02979 5.02979 1 10 1Z" fill="#23292F"/>
<path d="M14.3849 5.03906H16.1789L12.4461 8.60771C11.0948 9.89969 8.90427 9.89969 7.55297 8.60771L3.82062 5.03906H5.61459L8.4502 7.75006C9.30575 8.5684 10.6933 8.5684 11.5493 7.75006L14.3849 5.03906ZM5.59176 14.9626H3.79779L7.55346 11.3719C8.90477 10.0799 11.0952 10.0799 12.4466 11.3719L16.2022 14.9626H14.4083L11.5493 12.2296C10.6938 11.4112 9.30624 11.4112 8.4502 12.2296L5.59176 14.9626Z" fill="white"/>
</svg>
