<svg width="20" height="20" viewBox="0 0 20 20" fill="none" xmlns="http://www.w3.org/2000/svg">
<path d="M10 1C14.971 1 19 5.02979 19 10C19 14.971 14.971 19 10 19C5.02979 19 1 14.9706 1 10C1 5.02979 5.02979 1 10 1Z" fill="#23292F"/>
<path d="M14.3849 5.03833H16.1789L12.4461 8.60697C11.0948 9.89895 8.90427 9.89895 7.55297 8.60697L3.82062 5.03833H5.61459L8.4502 7.74933C9.30575 8.56766 10.6933 8.56766 11.5493 7.74933L14.3849 5.03833ZM5.59176 14.9619H3.79779L7.55346 11.3712C8.90477 10.0792 11.0952 10.0792 12.4466 11.3712L16.2022 14.9619H14.4083L11.5493 12.2288C10.6938 11.4105 9.30624 11.4105 8.4502 12.2288L5.59176 14.9619Z" fill="white"/>
</svg>
